SplineFontDB: 3.2
FontName: OpenTTDSans
FullName: OpenTTD Sans
FamilyName: OpenTTD Sans
Weight: Bold
Copyright: Richard Wheeler (Zephyris)
UComments: "2023-12-11: Created with FontForge (http://fontforge.org)"
Version: 001.000
ItalicAngle: 0
UnderlinePosition: -120
UnderlineWidth: 60
Ascent: 1000
Descent: 200
InvalidEm: 0
LayerCount: 2
Layer: 0 0 "Back" 1
Layer: 1 0 "Fore" 0
XUID: [1021 686 -1269612197 6434]
StyleMap: 0x0000
FSType: 0
OS2Version: 4
OS2_WeightWidthSlopeOnly: 0
OS2_UseTypoMetrics: 1
CreationTime: 1702291130
ModificationTime: 1705659579
PfmFamily: 33
TTFWeight: 500
TTFWidth: 5
LineGap: 0
VLineGap: 0
OS2TypoAscent: 0
OS2TypoAOffset: 1
OS2TypoDescent: 0
OS2TypoDOffset: 1
OS2TypoLinegap: 0
OS2WinAscent: 0
OS2WinAOffset: 1
OS2WinDescent: 0
OS2WinDOffset: 1
HheadAscent: 0
HheadAOffset: 1
HheadDescent: 0
HheadDOffset: 1
OS2CapHeight: 800
OS2XHeight: 600
OS2Vendor: 'PfEd'
Lookup: 1 0 0 "Tabular Numbers" { "Tabular Numbers" ("tabular") } ['tnum' ('DFLT' <'dflt' > 'armn' <'dflt' > 'cyrl' <'dflt' > 'grek' <'dflt' > 'latn' <'dflt' > ) ]
Lookup: 1 0 0 "Proportional Numbers" { "Proportional Numbers" ("proportional") } ['pnum' ('DFLT' <'dflt' > 'armn' <'dflt' > 'cyrl' <'dflt' > 'grek' <'dflt' > 'latn' <'dflt' > ) ]
Lookup: 258 0 0 "Greek Kern" { "Greek Kern" [100,0,6] } ['????' ('copt' <'dflt' > 'grek' <'dflt' > ) ]
Lookup: 258 0 0 "Kern" { "Kern" [100,0,6] } ['kern' ('DFLT' <'dflt' > 'latn' <'dflt' > ) ]
MarkAttachClasses: 1
DEI: 91125
KernClass2: 5+ 5 "Greek Kern"
 0 
 9 Gamma Tau
 37 Upsilontonos Upsilon Upsilon1 uni03D3
 193 alphatonos epsilontonos etatonos alpha gamma epsilon eta iota kappa uni03BC nu omicron pi rho sigma1 sigma tau upsilon phi chi psi omega omicrontonos upsilontonos omegatonos phi1 omega1 uni03D7
 38 Alphatonos Alpha uni0394 Lambda lambda
 44 Epsilontonos Etatonos Iotatonos Omicrontonos
 41 Upsilontonos Tau Upsilon Upsilon1 uni03D3

StartChar: a
Encoding: 97 97 0
Width: 600
VWidth: 1000
Flags: W
HStem: 0 100<203.562 296.27> 300 100<226.593 300> 500 100<50.0366 301.431>
VStem: 0 200<105.469 274.097> 300 200<102.885 300> 400 100<0 100>
LayerCount: 2
Fore
SplineSet
500 350 m 2xf4
 500 0 l 1
 400 0 l 1
 400 100 l 1
 400 50 354.645507812 0 250 0 c 0
 125 0 0 75 0 175 c 2
 0 225 l 2
 0 325 125 400.052734375 250 400 c 2
 350 400 l 1
 350 450 295.715820312 500.899414062 200 500 c 0
 100.004882812 499.060546875 50 475 50 475 c 1
 50 575 l 1
 50 575 100 600 200 600 c 0
 300 600 500 600 500 350 c 2xf4
300 150 m 2xf8
 300 300 l 1
 250 300 200 275 200 225 c 2
 200 175 l 2
 200 125 200 100 250 100 c 0
 297.8984375 100 300 125 300 150 c 2xf8
EndSplineSet
Validated: 33
EndChar

StartChar: y
Encoding: 121 121 1
Width: 700
VWidth: 1000
Flags: W
HStem: 580 20G<0 160 440 600>
LayerCount: 2
Fore
SplineSet
50 -200 m 1
 200 100 l 1
 0 500 l 1
 0 600 l 1
 150 600 l 1
 300 300 l 1
 450 600 l 1
 600 600 l 1
 600 500 l 1
 250 -200 l 1
 50 -200 l 1
EndSplineSet
Validated: 1
EndChar

StartChar: d
Encoding: 100 100 2
Width: 600
VWidth: 1000
Flags: W
HStem: 0 100<241.87 300> 500 100<241.87 300> 780 20G<300 500>
VStem: 0 200<142.832 456.989> 300 200<100 500 600.053 800>
LayerCount: 2
Fore
SplineSet
500 0 m 1
 250 0 l 2
 75 0 0 125 0 225 c 2
 0 375 l 2
 0 475 75 599.815429688 250 600 c 2
 300 600.052734375 l 1
 300 800 l 1
 500 800 l 1
 500 0 l 1
300 100 m 1
 300 500 l 1
 251.71484375 500 200 450 200 375 c 2
 200 225 l 2
 200 150 250 100 300 100 c 1
EndSplineSet
Validated: 1
EndChar

StartChar: b
Encoding: 98 98 3
Width: 600
Flags: W
HStem: 0 100<200 258.13> 500 100.053<200 258.13> 780 20G<0 200>
VStem: 0 200<100 500 600.053 800> 300 200<142.832 456.989>
LayerCount: 2
Fore
SplineSet
0 0 m 1
 0 800 l 1
 200 800 l 1
 200 600.052734375 l 1
 250 600 l 2
 425 599.815429688 500 475 500 375 c 2
 500 225 l 2
 500 125 425 0 250 0 c 2
 0 0 l 1
200 100 m 1
 250 100 300 150 300 225 c 2
 300 375 l 2
 300 450 248.28515625 500 200 500 c 1
 200 100 l 1
EndSplineSet
Validated: 1
EndChar

StartChar: c
Encoding: 99 99 4
Width: 600
Flags: W
HStem: 0 100<225.557 327.933> 500 100<225.557 328.601>
VStem: 0 200<124.82 475.18> 350 150<120.38 200 400 479.62>
LayerCount: 2
Fore
SplineSet
500 400 m 1
 350 400 l 1
 350 475 319.08203125 500 275 500 c 0
 225 500 200 450 200 375 c 2
 200 225 l 2
 200 150 225 100 275 100 c 0
 315.265625 100 350 125.385742188 350 200 c 1
 500 200 l 1
 500 125 450 0 250 0 c 0
 75 0 0 125 0 225 c 2
 0 375 l 2
 0 475 75 600 250 600 c 0
 450 600 500 475 500 400 c 1
EndSplineSet
EndChar

StartChar: e
Encoding: 101 101 5
Width: 600
Flags: W
HStem: 0 100<233.886 324.763> 300 100<200 350> 500 100<217.416 333.333>
VStem: 0 200<133.252 300 400 476.213> 350 150<124.836 200 400 483.796>
LayerCount: 2
Fore
SplineSet
250 600 m 0
 450 600 500 475 500 400 c 2
 500 300 l 1
 200 300 l 1
 200 225 l 2
 200 150 241.192382812 100.899414062 275 100 c 0
 299.991210938 99.3349609375 350 125.385742188 350 200 c 1
 500 200 l 1
 500 125 450 0 250 0 c 0
 75 0 0 125 0 225 c 2
 0 375 l 2
 0 475 75 600 250 600 c 0
275 500 m 0
 225 500 200 475 200 400 c 1
 350 400 l 1
 350 475 325 500 275 500 c 0
EndSplineSet
EndChar

StartChar: f
Encoding: 102 102 6
Width: 600
Flags: W
HStem: 0 21G<100 300> 0 21G<100 300> 500 100<0 100 300 400> 700 100<318.353 499.957>
VStem: 100 200<0 500 600 682.15>
LayerCount: 2
Fore
SplineSet
350 800 m 0xb8
 449.556640625 800 500 775 500 775 c 1
 500 675 l 1
 500 675 441.663085938 702.543945312 375 700 c 0
 325.036132812 698.092773438 300 675 300 600 c 1
 400 600 l 1
 400 500 l 1
 300 500 l 1
 300 0 l 1
 100 0 l 1
 100 500 l 1
 0 500 l 1
 0 600 l 1
 100 600 l 1
 100 700 175 800 350 800 c 0xb8
EndSplineSet
Validated: 33
EndChar

StartChar: g
Encoding: 103 103 7
Width: 600
Flags: W
HStem: -200 100<75.0376 279.372> 0 100<241.87 300> 500 100.053<241.87 300>
VStem: 0 200<142.832 456.989> 300 200<-80.7907 0 100 500>
LayerCount: 2
Fore
SplineSet
200 -100 m 4
 295.720703125 -100 300 -50 300 0 c 5
 250 0 l 6
 75 0 0 125 0 225 c 6
 0 375 l 6
 0 475 75 599.815429688 250 600 c 6
 300 600.052734375 l 5
 500 600 l 5
 500 50 l 6
 500 -200 300 -200 200 -200 c 4
 127.987304688 -200 75 -175 75 -175 c 5
 75 -75 l 5
 75 -75 125 -100 200 -100 c 4
300 100 m 5
 300 500 l 5
 251.71484375 500 200 450 200 375 c 6
 200 225 l 6
 200 150 250 100 300 100 c 5
EndSplineSet
EndChar

StartChar: h
Encoding: 104 104 8
Width: 600
Flags: W
HStem: 0 21G<0 200 300 500> 0 21G<0 200 300 500> 500 100.053<200 258.13> 780 20G<0 200>
VStem: 0 200<0 500 600.053 800> 300 200<0 456.989>
LayerCount: 2
Fore
SplineSet
0 0 m 5xbc
 0 800 l 5
 200 800 l 5
 200 600.052734375 l 5
 250 600 l 6
 425 599.815429688 500 475 500 375 c 6
 500 0 l 5
 300 0 l 5
 300 375 l 6
 300 450 248.28515625 500 200 500 c 5
 200 0 l 5
 0 0 l 5xbc
EndSplineSet
Validated: 1
EndChar

StartChar: i
Encoding: 105 105 9
Width: 300
Flags: W
HStem: 0 21G<0 200> 0 21G<0 200> 580 20G<0 200> 675 125<24.3852 175.616>
VStem: 0 200<0 600 699.572 797.02>
LayerCount: 2
Fore
SplineSet
0 600 m 1xb8
 200 600 l 1
 200 0 l 1
 0 0 l 1
 0 600 l 1xb8
50 800 m 2
 150 800 l 2
 175 800 199.99609375 795.439453125 200 750 c 0
 200.00390625 708.579101562 155.228515625 675 100 675 c 0
 44.771484375 675 0 708.579101562 0 750 c 0
 0 800 25 800 50 800 c 2
EndSplineSet
EndChar

StartChar: j
Encoding: 106 106 10
Width: 500
Flags: W
HStem: -200 100<0.0425365 181.647> 580 20G<200 400> 675 125<224.385 375.616>
VStem: 200 200<-82.1503 600 699.572 797.02>
LayerCount: 2
Fore
SplineSet
200 600 m 1
 400 600 l 1
 400 0 l 2
 400 -100 325 -200 150 -200 c 0
 50.443359375 -200 0 -175 0 -175 c 1
 0 -75 l 1
 0 -75 58.3369140625 -102.543945312 125 -100 c 0
 174.963867188 -98.0927734375 200 -75 200 0 c 2
 200 600 l 1
250 800 m 2
 350 800 l 2
 375 800 399.99609375 795.439453125 400 750 c 0
 400.00390625 708.579101562 355.228515625 675 300 675 c 0
 244.771484375 675 200 708.579101562 200 750 c 0
 200 800 225 800 250 800 c 2
EndSplineSet
EndChar

StartChar: k
Encoding: 107 107 11
Width: 600
Flags: W
HStem: 0 21G<0 200 392.5 500> 0 21G<0 200 392.5 500> 580 20G<342.5 500> 780 20G<0 200>
VStem: 0 200<0 212.5 437.5 800>
LayerCount: 2
Fore
SplineSet
0 800 m 1xb8
 200 800 l 1
 200 437.5 l 1
 362.5 600 l 1
 500 600 l 1
 500 525 l 1
 300 325 l 1
 500 125 l 1
 500 0 l 1
 412.5 0 l 1
 200 212.5 l 1
 200 0 l 1
 0 0 l 1
 0 800 l 1xb8
EndSplineSet
EndChar

StartChar: l
Encoding: 108 108 12
Width: 300
Flags: W
HStem: 0 21G<0 200> 0 21G<0 200> 780 20G<0 200>
VStem: 0 200<0 800>
LayerCount: 2
Fore
SplineSet
0 800 m 1xb0
 200 800 l 1
 200 0 l 1
 0 0 l 1
 0 800 l 1xb0
EndSplineSet
Validated: 1
EndChar

StartChar: n
Encoding: 110 110 13
Width: 600
Flags: W
HStem: 0 21G<0 200 300 500> 0 21G<0 200 300 500> 500 100.053<200 258.13>
VStem: 0 200<0 500> 300 200<0 456.989>
LayerCount: 2
Fore
SplineSet
0 0 m 1xb8
 0 600 l 1
 200 600.052734375 l 1
 250 600 l 2
 425 599.815429688 500 475 500 375 c 2
 500 0 l 1
 300 0 l 1
 300 375 l 2
 300 450 248.28515625 500 200 500 c 1
 200 0 l 1
 0 0 l 1xb8
EndSplineSet
Validated: 1
EndChar

StartChar: m
Encoding: 109 109 14
Width: 900
Flags: W
HStem: 0 20.9746G<0 200 300 500 600 800> 0 20.9746G<0 200 300 500 600 800> 500 100.053<200 258.802 468.028 558.13>
VStem: 0 200<0 500> 300 200<0 456.989> 600 200<-0.0253906 457.114>
CounterMasks: 1 1c
LayerCount: 2
Fore
SplineSet
200 600.052734375 m 1xbc
 250 600 l 2
 314.638671875 599.931640625 365.594726562 582.829101562 404.20703125 556.28515625 c 1
 445.59375 581.766601562 489.162109375 598.786132812 550 599.974609375 c 0
 725 599.790039062 800 474.974609375 800 374.974609375 c 2
 800 -0.025390625 l 1
 600 -0.025390625 l 1
 600 374.974609375 l 2
 600 449.974609375 550 499.948242188 500 499.974609375 c 0
 489.912109375 499.979492188 478.799804688 495.793945312 467.498046875 489.298828125 c 1
 489.583007812 452.899414062 500 412.233398438 500 375 c 2
 500 0 l 1
 300 0 l 1
 300 375 l 2
 300 450 248.28515625 500 200 500 c 1
 200 0 l 1
 0 0 l 1
 0 600 l 1
 200 600.052734375 l 1xbc
EndSplineSet
Validated: 1
EndChar

StartChar: o
Encoding: 111 111 15
Width: 600
Flags: W
HStem: 0 100<201.732 298.268> 500 100<203.397 296.603>
VStem: 0 175<124.82 475.18> 325 175<124.939 475.18>
LayerCount: 2
Fore
SplineSet
500 375 m 2
 500 225 l 2
 500 125 425 0 250 0 c 0
 75 0 0 125 0 225 c 2
 0 375 l 2
 0 475 75 599.908203125 250 600 c 0
 425 600.091796875 500 475 500 375 c 2
175 375 m 2
 175 225 l 2
 175 150 200 100 250 100 c 0
 300 100 325 150.385742188 325 225 c 2
 325 375 l 2
 325 450 300 500 250 500 c 0
 200 500 175 450 175 375 c 2
EndSplineSet
EndChar

StartChar: p
Encoding: 112 112 16
Width: 600
Flags: W
HStem: -0.0527344 100.053<200 258.13> 500 100<200 258.13>
VStem: 0 200<-200 -0.0527344 100 500> 300 200<143.011 457.168>
LayerCount: 2
Fore
SplineSet
0 600 m 1
 250 600 l 2
 425 600 500 475 500 375 c 2
 500 225 l 2
 500 125 425 0.1845703125 250 0 c 2
 200 -0.052734375 l 1
 200 -200 l 1
 0 -200 l 1
 0 600 l 1
200 500 m 1
 200 100 l 1
 248.28515625 100 300 150 300 225 c 2
 300 375 l 2
 300 450 250 500 200 500 c 1
EndSplineSet
Validated: 1
EndChar

StartChar: q
Encoding: 113 113 17
Width: 600
Flags: W
HStem: 0 100<241.87 300> 500 100<241.87 300>
VStem: 0 200<143.011 457.168> 300 200<-200 -0.0527344 100 500>
LayerCount: 2
Fore
SplineSet
500 600 m 1
 500 -200 l 1
 300 -200 l 1
 300 -0.052734375 l 1
 250 0 l 2
 75 0.1845703125 0 125 0 225 c 2
 0 375 l 2
 0 475 75 600 250 600 c 2
 500 600 l 1
300 500 m 1
 250 500 200 450 200 375 c 2
 200 225 l 2
 200 150 251.71484375 100 300 100 c 1
 300 500 l 1
EndSplineSet
Validated: 1
EndChar

StartChar: r
Encoding: 114 114 18
Width: 500
Flags: W
HStem: 0 21G<0 200> 0 21G<0 200> 500 100<218.353 399.957>
VStem: 0 200<0 482.15>
LayerCount: 2
Fore
SplineSet
0 0 m 1xb0
 0 400 l 2
 0 500 75 600 250 600 c 0
 349.556640625 600 400 575 400 575 c 1
 400 475 l 1
 400 475 341.663085938 502.543945312 275 500 c 0
 225.036132812 498.092773438 200 475 200 400 c 2
 200 0 l 1
 0 0 l 1xb0
EndSplineSet
Validated: 33
EndChar

StartChar: t
Encoding: 116 116 19
Width: 500
Flags: W
HStem: 0 100<218.353 374.976> 500 100<200 300>
VStem: 0 200<117.85 500 600 700>
LayerCount: 2
Fore
SplineSet
0 200 m 2
 0 700 l 1
 200 700 l 1
 200 600 l 1
 300 600 l 1
 300 500 l 1
 200 500 l 1
 200 200 l 2
 200 125 225.036132812 101.907226562 275 100 c 0
 341.663085938 97.4560546875 375 125 375 125 c 1
 375 25 l 1
 375 25 349.556640625 0 250 0 c 0
 75 0 0 100 0 200 c 2
EndSplineSet
EndChar

StartChar: s
Encoding: 115 115 20
Width: 600
Flags: W
HStem: 0 100<174.983 313.956> 500 100<186.044 325.017>
VStem: 0 175<413.557 488.41> 325 175<111.59 186.279>
LayerCount: 2
Fore
SplineSet
250 0 m 0
 75 0 0 100 0 175 c 1
 150 175 l 1
 150 125 205.91796875 100 250 100 c 0
 300 100 325 125 325 150 c 0
 325 224.11328125 0 300 0 450 c 0
 0 525 75 600 250 600 c 0
 425 600 500 500 500 425 c 1
 350 425 l 1
 350 475 294.08203125 500 250 500 c 0
 200 500 175 475 175 450 c 0
 175 375 500 300 500 150 c 0
 500 75 425 0 250 0 c 0
EndSplineSet
EndChar

StartChar: u
Encoding: 117 117 21
Width: 600
Flags: W
HStem: 0 100<201.732 298.268> 580 20G<0 175 325 500>
VStem: 0 175<124.82 600> 325 175<124.939 600>
LayerCount: 2
Fore
SplineSet
325 600 m 1
 500 600 l 1
 500 225 l 2
 500 125 425 0 250 0 c 0
 75 0 0 125 0 225 c 2
 0 600 l 1
 175 600 l 1
 175 225 l 2
 175 150 200 100 250 100 c 0
 300 100 325 150.385742188 325 225 c 2
 325 600 l 1
EndSplineSet
EndChar

StartChar: v
Encoding: 118 118 22
Width: 600
Flags: W
HStem: 0 21G<215.526 284.474> 0 21G<215.526 284.474> 580 20G<0 135 365 500>
LayerCount: 2
Fore
SplineSet
500 475 m 1xa0
 275 0 l 1
 225 0 l 1
 0 475 l 1
 0 600 l 1
 125 600 l 1
 250 350 l 1
 375 600 l 1
 500 600 l 1
 500 475 l 1xa0
EndSplineSet
EndChar

StartChar: w
Encoding: 119 119 23
Width: 1000
Flags: W
HStem: 0 21G<240 360 540 660> 0 21G<240 360 540 660> 580 20G<0 135 300 435 765 900>
LayerCount: 2
Fore
SplineSet
0 600 m 1xa0
 125 600 l 1
 300 250 l 1
 375 400 l 1
 300 550 l 1
 300 600 l 1
 425 600 l 1
 600 250 l 1
 775 600 l 1
 900 600 l 1
 900 500 l 1
 650 0 l 1
 550 0 l 1
 450 200 l 1
 350 0 l 1
 250 0 l 1
 0 500 l 1
 0 600 l 1xa0
EndSplineSet
EndChar

StartChar: x
Encoding: 120 120 24
Width: 700
Flags: W
HStem: 0 21G<0 145 455 600> 0 21G<0 145 455 600> 580 20G<0 145 455 600>
LayerCount: 2
Fore
SplineSet
0 600 m 1xa0
 125 600 l 1
 300 425 l 1
 475 600 l 1
 600 600 l 1
 600 525 l 1
 375 300 l 1
 600 75 l 1
 600 0 l 1
 475 0 l 1
 300 175 l 1
 125 0 l 1
 0 0 l 1
 0 75 l 1
 225 300 l 1
 0 525 l 1
 0 600 l 1xa0
EndSplineSet
EndChar

StartChar: z
Encoding: 122 122 25
Width: 600
Flags: W
HStem: 0 125<175 500> 475 125<0 300>
LayerCount: 2
Fore
SplineSet
0 600 m 1
 500 600 l 1
 500 450 l 1
 175 125 l 1
 500 125 l 1
 500 0 l 1
 0 0 l 1
 0 175 l 1
 300 475 l 1
 0 475 l 1
 0 600 l 1
EndSplineSet
EndChar

StartChar: grave
Encoding: 96 96 30
Width: 200
Flags: W
HStem: 625 175
VStem: 0 200
LayerCount: 2
Fore
SplineSet
100 625 m 5
 0 725 l 5
 0 800 l 5
 75 800 l 5
 200 675 l 5
 200 625 l 5
 100 625 l 5
EndSplineSet
EndChar

StartChar: asciicircum
Encoding: 94 94 34
Width: 500
Flags: W
HStem: 500 300
LayerCount: 2
Fore
SplineSet
225 800 m 5
 275 800 l 5
 500 575 l 5
 500 500 l 5
 425 500 l 5
 250 675 l 5
 75 500 l 5
 0 500 l 5
 0 575 l 5
 225 800 l 5
EndSplineSet
EndChar

StartChar: dotlessi
Encoding: 305 305 40
Width: 300
Flags: W
HStem: 0 21G<0 200> 0 21G<0 200> 580 20G<0 200>
VStem: 0 200<0 600>
LayerCount: 2
Fore
SplineSet
0 600 m 1xb0
 200 600 l 1
 200 0 l 1
 0 0 l 1
 0 600 l 1xb0
EndSplineSet
EndChar

StartChar: A
Encoding: 65 65 44
Width: 800
Flags: W
HStem: 0 21G<1 201 501 701> 0 21G<1 201 501 701> 200 100<201 501> 780 20G<226 471.366>
VStem: 1 200<0 200 300 527.918> 501 200<0 200 300 534.1>
LayerCount: 2
Fore
SplineSet
201 300 m 1x3c
 501 300 l 1
 501 425 l 2
 501 550 401 650 351 700 c 1
 301 650 201 542.810546875 201 425 c 2
 201 300 l 1x3c
1 0 m 1xbc
 1 425 l 2
 1 600 201 750 251 800 c 1
 451 800 l 1
 491.732990021 759.267009979 632.016568606 646.322252532 682.617722995 516.000005861 c 4
 694.129802084 486.350879691 701 455.802310395 701 425 c 2
 701 0 l 1
 501 0 l 1
 501 200 l 1
 201 200 l 1
 201 0 l 1
 1 0 l 1xbc
EndSplineSet
EndChar

StartChar: B
Encoding: 66 66 45
Width: 700
Flags: W
HStem: 0 100<200 358.13> 400 100<200 346.69> 700 100<200 346.59>
VStem: 0 200<100 400 500 700> 375 200<527.099 670.423> 400 200<142.832 356.989>
LayerCount: 2
Fore
SplineSet
0 800 m 1xf4
 200 800 l 1
 350 800 l 2
 525 800 575 700 575 600 c 0xf8
 575 543.763671875 559.186523438 487.52734375 514.22265625 449.076171875 c 1
 573.16796875 403.47265625 600 334.780273438 600 275 c 2
 600 225 l 2
 600 125 525 0 350 0 c 2
 200 0 l 1
 0 0 l 1
 0 800 l 1xf4
200 700 m 1
 200 500 l 1
 275 500 l 2
 325 500 375 525 375 600 c 0
 375 675 323.28515625 700 275 700 c 2
 200 700 l 1
200 400 m 1
 200 100 l 1
 300 100 l 2
 350 100 400 150 400 225 c 2
 400 275 l 2xf4
 400 350 348.28515625 400 300 400 c 2
 200 400 l 1
EndSplineSet
EndChar

StartChar: P
Encoding: 80 80 46
Width: 700
Flags: W
HStem: 0 21G<0 200> 0 21G<0 200> 200 100<200 324.272> 700 100<200 324.272>
VStem: 0 200<0 200 300 700> 400 200<370.898 629.102>
LayerCount: 2
Fore
SplineSet
0 800 m 1xbc
 200 800 l 1
 300 800 l 2
 475 800 600 650 600 550 c 2
 600 450 l 2
 600 350 475 200 300 200 c 2
 200 200 l 1
 200 0 l 1
 0 0 l 1
 0 800 l 1xbc
250 700 m 2
 200 700 l 1
 200 300 l 1
 250 300 l 2
 300 300 400 350 400 450 c 2
 400 550 l 2
 400 650 300 700 250 700 c 2
EndSplineSet
EndChar

StartChar: O
Encoding: 79 79 47
Width: 900
Flags: W
HStem: 0 100<317.116 482.884> 700 100<317.114 482.886>
VStem: 0 200<248.909 551.091> 600 200<248.909 551.091>
LayerCount: 2
Fore
SplineSet
600 375 m 6
 600 425 l 6
 600 550 525 700 400 700 c 4
 275 700 200 550 200 425 c 6
 200 375 l 6
 200 250 275.006835938 101.276367188 400 100 c 4
 524.993164062 101.276367188 600 250 600 375 c 6
0 375 m 6
 0 425 l 6
 0 625 175 800 400 800 c 4
 625 800 800 625 800 425 c 6
 800 375 l 6
 800 175 625 0 400 0 c 4
 175 0 0 175 0 375 c 6
EndSplineSet
Validated: 1
EndChar

StartChar: T
Encoding: 84 84 48
Width: 700
Flags: W
HStem: 0 21G<200 400> 0 21G<200 400> 700 100<0 200 400 600>
VStem: 200 200<0 700>
LayerCount: 2
Fore
SplineSet
0 800 m 1xb0
 600 800 l 1
 600 700 l 1
 400 700 l 1
 400 0 l 1
 200 0 l 1
 200 700 l 1
 0 700 l 1
 0 800 l 1xb0
EndSplineSet
EndChar

StartChar: D
Encoding: 68 68 49
Width: 800
Flags: W
HStem: 0 100<200 377.753> 700 100<200 377.756>
VStem: 0 200<100 700> 500 200<222.482 577.756>
LayerCount: 2
Fore
SplineSet
0 800 m 5
 200 800 l 5
 275 800 l 6
 500 800 700 675 700 475 c 6
 700 325 l 6
 700 125 500 0 275 0 c 6
 200 0 l 5
 0 0 l 5
 0 800 l 5
200 700 m 5
 200 100 l 5
 275 100 l 6
 399.993164062 101.276367188 500 200 500 325 c 6
 500 475 l 6
 500 600 400 700 275 700 c 6
 200 700 l 5
EndSplineSet
Validated: 1
EndChar

StartChar: C
Encoding: 67 67 50
Width: 800
Flags: W
HStem: 0 100<318.213 492.854> 700 100<317.114 493.971>
VStem: 0 200<248.909 551.091> 600 100<204.678 275 525 595.026>
LayerCount: 2
Fore
SplineSet
700 275 m 1
 699.528320312 96.9580078125 l 1
 633.868164062 42.1806640625 535.01171875 0 400 0 c 0
 175 0 0 175 0 375 c 2
 0 425 l 2
 0 625 175 800 400 800 c 0
 535.65625 800 634.501953125 757.01171875 699.99609375 701.642578125 c 1
 700 525 l 1
 600 525 l 1
 600 575 525 700 400 700 c 0
 275 700 200 550 200 425 c 2
 200 375 l 2
 200 250 275.006835938 101.276367188 400 100 c 0
 524.556640625 98.7275390625 600 225 600 275 c 1
 700 275 l 1
EndSplineSet
EndChar

StartChar: E
Encoding: 69 69 51
Width: 700
Flags: W
HStem: 0 100<200 600> 400 100<200 500> 700 100<200 600>
VStem: 0 200<100 400 500 700>
LayerCount: 2
Fore
SplineSet
0 800 m 1
 600 800 l 1
 600 700 l 1
 200 700 l 1
 200 500 l 1
 500 500 l 1
 500 400 l 1
 200 400 l 1
 200 100 l 1
 600 100 l 1
 600 0 l 1
 0 0 l 1
 0 800 l 1
EndSplineSet
Validated: 1
EndChar

StartChar: F
Encoding: 70 70 52
Width: 700
Flags: W
HStem: 0 21G<0 200> 0 21G<0 200> 400 100<200 500> 700 100<200 600>
VStem: 0 200<0 400 500 700>
LayerCount: 2
Fore
SplineSet
0 800 m 1xb8
 600 800 l 1
 600 700 l 1
 200 700 l 1
 200 500 l 1
 500 500 l 1
 500 400 l 1
 200 400 l 1
 200 0 l 1
 0 0 l 1
 0 800 l 1xb8
EndSplineSet
Validated: 1
EndChar

StartChar: G
Encoding: 71 71 53
Width: 900
Flags: W
HStem: 0 100<318.213 484.884> 300 100<400 600> 700 100<317.114 488.945>
VStem: 0 200<248.909 551.091> 600 200<210.938 300 525 592.484>
LayerCount: 2
Fore
SplineSet
800 400 m 1
 800 300 l 2
 800 200 675 0 400 0 c 0
 175 0 0 175 0 375 c 2
 0 425 l 2
 0 625 175 800 400 800 c 0
 675 800 798.727539062 623.341796875 800 525 c 1
 600 525 l 1
 600 575 525 700 400 700 c 0
 275 700 200 550 200 425 c 2
 200 375 l 2
 200 250 275.006835938 101.276367188 400 100 c 0
 524.556640625 98.7275390625 600 225 600 275 c 2
 600 300 l 1
 400 300 l 1
 400 400 l 1
 800 400 l 1
EndSplineSet
EndChar

StartChar: H
Encoding: 72 72 54
Width: 800
Flags: W
HStem: 0 21G<0 200 500 700> 0 21G<0 200 500 700> 400 100<200 500> 780 20G<0 200 500 700>
VStem: 0 200<0 400 500 800> 500 200<0 400 500 800>
LayerCount: 2
Fore
SplineSet
0 800 m 1xbc
 200 800 l 1
 200 500 l 1
 500 500 l 1
 500 800 l 1
 700 800 l 1
 700 0 l 1
 500 0 l 1
 500 400 l 1
 200 400 l 1
 200 0 l 1
 0 0 l 1
 0 800 l 1xbc
EndSplineSet
Validated: 1
EndChar

StartChar: I
Encoding: 73 73 55
Width: 300
Flags: W
HStem: 0 21G<0 200> 0 21G<0 200> 780 20G<0 200>
VStem: 0 200<0 800>
LayerCount: 2
Fore
SplineSet
0 800 m 1xb0
 200 800 l 1
 200 0 l 1
 0 0 l 1
 0 800 l 1xb0
EndSplineSet
Validated: 1
EndChar

StartChar: J
Encoding: 74 74 56
Width: 600
Flags: W
HStem: 0 100<215.218 284.782> 700 100<200 300>
VStem: 300 200<113.081 700>
LayerCount: 2
Fore
SplineSet
200 800 m 1
 500 800 l 1
 500 200 l 2
 500 100 444.024414062 -2.5439453125 250 0 c 0
 55.9755859375 2.5439453125 0 100 0 200 c 1
 200 200 l 1
 200 125 225 100 250 100 c 0
 275 100 300 125 300 200 c 2
 300 700 l 1
 200 700 l 1
 200 800 l 1
EndSplineSet
EndChar

StartChar: K
Encoding: 75 75 57
Width: 700
Flags: W
HStem: 0 21G<0 200 492.5 600> 0 21G<0 200 492.5 600> 780 20G<0 200 442.5 600>
VStem: 0 200<0 312.5 537.5 800>
LayerCount: 2
Fore
SplineSet
600 137.5 m 1xb0
 600 0 l 1
 512.5 0 l 1
 200 312.5 l 1
 200 0 l 1
 0 0 l 1
 0 800 l 1
 200 800 l 1
 200 537.5 l 1
 462.5 800 l 1
 600 800 l 1
 600 712.5 l 1
 312.5 425 l 1
 600 137.5 l 1xb0
EndSplineSet
EndChar

StartChar: L
Encoding: 76 76 58
Width: 700
Flags: W
HStem: 0 100<200 600> 780 20G<0 200>
VStem: 0 200<100 800>
LayerCount: 2
Fore
SplineSet
0 800 m 1
 200 800 l 1
 200 100 l 1
 600 100 l 1
 600 0 l 1
 0 0 l 1
 0 800 l 1
EndSplineSet
Validated: 1
EndChar

StartChar: M
Encoding: 77 77 59
Width: 1000
Flags: W
HStem: 0 21G<0 200 700 900> 0 21G<0 200 700 900> 780 20G<0 170 730 900>
VStem: 0 200<0 550> 700 200<0 550>
LayerCount: 2
Fore
SplineSet
150 800 m 5xb8
 450 500 l 5
 750 800 l 5
 900 800 l 5
 900 0 l 5
 700 0 l 5
 700 550 l 5
 450 300 l 5
 200 550 l 5
 200 0 l 5
 0 0 l 5
 0 800 l 5
 150 800 l 5xb8
EndSplineSet
Validated: 1
EndChar

StartChar: N
Encoding: 78 78 60
Width: 800
Flags: W
HStem: 0 21G<0 200 500 700> 0 21G<0 200 500 700> 780 20G<0 170 500 700>
VStem: 0 200<0 550> 500 200<0 250 450 800>
LayerCount: 2
Fore
SplineSet
150 800 m 1xb8
 500 450 l 1
 500 800 l 1
 700 800 l 1
 700 0 l 1
 500 0 l 1
 500 250 l 1
 200 550 l 1
 200 0 l 1
 0 0 l 1
 0 800 l 1
 150 800 l 1xb8
EndSplineSet
Validated: 1
EndChar

StartChar: Q
Encoding: 81 81 61
Width: 900
Flags: W
HStem: 0 100<318.213 400> 700 100<317.114 482.886>
VStem: 0 200<248.909 551.091> 600 200<247.775 551.091>
LayerCount: 2
Fore
SplineSet
400 800 m 4
 625 800 800 625 800 425 c 6
 800 375 l 6
 800 252.046875 733.709960938 138.728515625 630.46875 69.53125 c 5
 700 0 l 5
 700 -25 l 5
 700 -100 l 5
 625 -100 l 5
 600 -100 l 5
 500 0 l 5
 490.09375 9.90625 l 5
 461.215820312 3.5732421875 431.13671875 0 400 0 c 4
 175 0 0 175 0 375 c 6
 0 425 l 6
 0 625 175 800 400 800 c 4
400 700 m 4
 275 700 200 550 200 425 c 6
 200 375 l 6
 200 250 275.006835938 101.276367188 400 100 c 5
 350 150 l 5
 350 175 l 5
 350 250 l 5
 425 250 l 5
 450 250 l 5
 530.84375 169.15625 l 5
 575.337890625 224.1484375 600 303.421875 600 375 c 6
 600 425 l 6
 600 550 525 700 400 700 c 4
EndSplineSet
Validated: 1
EndChar

StartChar: R
Encoding: 82 82 62
Width: 700
Flags: W
HStem: 0 21G<0 200 455 600> 0 21G<0 200 455 600> 200 100<200 275> 700 100<200 324.272>
VStem: 0 200<0 200 300 700> 400 200<371.548 629.102>
LayerCount: 2
Fore
SplineSet
0 800 m 1xbc
 200 800 l 1
 300 800 l 2
 475 800 600 650 600 550 c 2
 600 450 l 2
 600 379.668945312 538.1171875 284.670898438 440.546875 234.453125 c 1
 600 75 l 1
 600 0 l 1
 475 0 l 1
 275 200 l 1
 200 200 l 1
 200 0 l 1
 0 0 l 1
 0 800 l 1xbc
200 700 m 1
 200 300 l 1
 250 300 l 2
 300 300 400 350 400 450 c 2
 400 550 l 2
 400 650 300 700 250 700 c 2
 200 700 l 1
EndSplineSet
EndChar

StartChar: S
Encoding: 83 83 63
Width: 700
Flags: W
HStem: 0 100<200.544 367.742> 700 100<229.302 394.69>
VStem: 0 200<525.574 671.363> 0 75<205.113 275> 400 200<129.223 274.426> 525 75<525 594.531>
LayerCount: 2
Fore
SplineSet
300 800 m 0xe8
 405.255859375 800 517.275390625 743.352539062 600 675 c 1
 600 525 l 1
 525 525 l 1
 525 625 375 700 300 700 c 0
 224.571289062 700 200 650 200 600 c 0xe4
 200 400 600 500 600 200 c 0
 600 50 425 0 300 0 c 0
 194.655273438 0 82.68359375 55.6943359375 0 125 c 1
 0 275 l 1
 75 275 l 1xd8
 75 175 225.04296875 97.4697265625 300 100 c 0
 375.385742188 102.543945312 400 150 400 200 c 0
 400 400 0 300 0 600 c 0
 0 750.385742188 175 800 300 800 c 0xe8
EndSplineSet
EndChar

StartChar: U
Encoding: 85 85 64
Width: 800
Flags: W
HStem: 0 100<284.406 415.594> 780 20G<0 200 500 700>
VStem: 0 200<206.488 800> 500 200<206.488 800>
LayerCount: 2
Fore
SplineSet
0 800 m 5
 200 800 l 5
 200 300 l 6
 200 212.5 262.5 100 350 100 c 4
 437.5 100 500 212.5 500 300 c 6
 500 800 l 5
 700 800 l 5
 700 325 l 6
 700 225 624.999023438 0 350 0 c 4
 75.0009765625 0 0 225 0 325 c 6
 0 800 l 5
EndSplineSet
EndChar

StartChar: V
Encoding: 86 86 65
Width: 900
Flags: W
HStem: 0 21G<340 460> 0 21G<340 460> 780 20G<0 160 640 800>
LayerCount: 2
Fore
SplineSet
0 800 m 1xa0
 150 800 l 1
 400 300 l 1
 650 800 l 1
 800 800 l 1
 800 700 l 1
 450 0 l 1
 350 0 l 1
 0 700 l 1
 0 800 l 1xa0
EndSplineSet
Validated: 1
EndChar

StartChar: W
Encoding: 87 87 66
Width: 1200
HStem: 0 21G<340 460 640 760> 0 21G<340 460 640 760> 780 20G<0 160 300 460 940 1100>
LayerCount: 2
Fore
SplineSet
0 800 m 1xa0
 150 800 l 1
 400 300 l 1
 450 400 l 1
 300 700 l 1
 300 800 l 1
 450 800 l 1
 700 300 l 1
 950 800 l 1
 1100 800 l 1
 1100 700 l 1
 750 0 l 1
 650 0 l 1
 550 200 l 1
 450 0 l 1
 350 0 l 1
 0 700 l 1
 0 800 l 1xa0
EndSplineSet
Validated: 1
EndChar

StartChar: X
Encoding: 88 88 67
Width: 1000
Flags: W
HStem: 0 21G<0 170 730 900> 0 21G<0 170 730 900> 780 20G<0 170 730 900>
LayerCount: 2
Fore
SplineSet
0 75 m 1xa0
 325 400 l 1
 0 725 l 1
 0 800 l 1
 150 800 l 1
 450 500 l 1
 750 800 l 1
 900 800 l 1
 900 725 l 1
 575 400 l 1
 900 75 l 1
 900 0 l 1
 750 0 l 1
 450 300 l 1
 150 0 l 1
 0 0 l 1
 0 75 l 1xa0
EndSplineSet
EndChar

StartChar: Y
Encoding: 89 89 68
Width: 900
Flags: W
HStem: 0 21G<300 500> 0 21G<300 500> 780 20G<0 200 600 800>
VStem: 0 200<666.643 800> 300 200<0 325> 600 200<666.643 800>
CounterMasks: 1 1c
LayerCount: 2
Fore
SplineSet
300 325 m 1xbc
 300 325 0 608.579101562 0 750 c 2
 0 800 l 1
 200 800 l 1
 200 700 l 2
 200 605.71875 400 400 400 400 c 1
 400 400 600 605.71875 600 700 c 2
 600 800 l 1
 800 800 l 1
 800 750 l 2
 800 608.579101562 500 325 500 325 c 1
 500 0 l 1
 300 0 l 1
 300 325 l 1xbc
EndSplineSet
EndChar

StartChar: Z
Encoding: 90 90 69
Width: 800
InSpiro: 1
Flags: W
HStem: 0 125<175 700> 675 125<0 500>
LayerCount: 2
Fore
SplineSet
0 800 m 1
 700 800 l 1
 700 650 l 1
 175 125 l 1
 700 125 l 1
 700 0 l 1
 0 0 l 1
 0 175 l 1
 500 675 l 1
 0 675 l 1
 0 800 l 1
  Spiro
    0 800 v
    700 800 v
    700 650 v
    175 125 v
    700 125 v
    700 0 v
    0 0 v
    0 175 v
    500 675 v
    0 675 v
    0 0 z
  EndSpiro
EndSplineSet
EndChar

StartChar: exclam
Encoding: 33 33 70
Width: 300
Flags: W
HStem: 0 200<32.7622 167.238> 780 20G<75 125>
VStem: 0 200<32.7622 167.238 420.189 763.314>
LayerCount: 2
Fore
SplineSet
100 800 m 0
 150 800 200.908203125 749.9921875 200 700 c 0
 196.401367188 502.024414062 150 275 150 275 c 1
 50 275 l 1
 50 275 0 500 0 700 c 0
 0 750 50 800 100 800 c 0
EndSplineSet
Refer: 83 46 S 1 0 0 1 0 0 2
EndChar

StartChar: dollar
Encoding: 36 36 72
Width: 700
Flags: W
HStem: 13.2637 96.5098<130.323 200 400 456.264> 591.289 99.791<143.793 200 400 463.87> 780 20G<200 400>
VStem: 0 125<465.396 571.113> 0 75<159.423 225> 200 200<-100 13.8785 109.773 266.934 433.066 589.549 686.19 800> 475 125<131.193 234.604> 525 75<475 540.283>
LayerCount: 2
Fore
SplineSet
200 800 m 1xf4
 400 800 l 1
 400 686.5546875 l 1
 472.692382812 667.86328125 543.2421875 631.66015625 600 590.625 c 1
 600 475 l 1
 525 475 l 1xf5
 525 537.258789062 474.237304688 573.30859375 400 589.548828125 c 1
 400 371.8359375 l 1
 504.995117188 339.659179688 600 292.361328125 600 175 c 0
 600 76.689453125 501.8125 27.4814453125 400 8.96875 c 1
 400 -100 l 1
 200 -100 l 1
 200 13.263671875 l 1
 127.279296875 31.76171875 56.7412109375 67.7587890625 0 109.375 c 1
 0 225 l 1
 75 225 l 1xee
 75 162.739257812 125.758789062 125.907226562 200 109.7734375 c 1
 200 328.1640625 l 1
 95.0048828125 360.340820312 0 407.638671875 0 525 c 0
 0 623.563476562 98.1865234375 672.647460938 200 691.080078125 c 1
 200 800 l 1xf4
200 591.2890625 m 1
 147.03125 578.901367188 125 554.454101562 125 525 c 0
 125 481.00390625 155.05078125 453.612304688 200 433.06640625 c 1
 200 591.2890625 l 1
400 266.93359375 m 1
 400 109.59765625 l 1
 452.401367188 122.048828125 475 145.689453125 475 175 c 0xe6
 475 218.99609375 444.94921875 246.387695312 400 266.93359375 c 1
EndSplineSet
EndChar

StartChar: numbersign
Encoding: 35 35 73
Width: 900
Flags: W
HStem: 0 21G<100 255 400 555> 0 21G<100 255 400 555> 200 100<0 100 325 400 625 700> 500 100<100 175 400 475 700 800> 780 20G<245 400 545 700>
LayerCount: 2
Fore
SplineSet
250 800 m 1xb8
 400 800 l 1
 400 600 l 1
 500 600 l 1
 550 800 l 1
 700 800 l 1
 700 600 l 1
 800 600 l 1
 800 500 l 1
 675 500 l 1
 625 300 l 1
 700 300 l 1
 700 200 l 1
 600 200 l 1
 550 0 l 1
 400 0 l 1
 400 200 l 1
 300 200 l 1
 250 0 l 1
 100 0 l 1
 100 200 l 1
 0 200 l 1
 0 300 l 1
 125 300 l 1
 175 500 l 1
 100 500 l 1
 100 600 l 1
 200 600 l 1
 250 800 l 1xb8
375 500 m 1
 325 300 l 1
 425 300 l 1
 475 500 l 1
 375 500 l 1
EndSplineSet
Validated: 1
EndChar

StartChar: ampersand
Encoding: 38 38 75
Width: 800
Flags: W
HStem: 0 100<194.528 304.984> 700 100<296.134 403.866>
VStem: 0 175<117.858 270.774> 100 175<518.751 684.373> 425 175<519.166 683.477>
LayerCount: 2
Fore
SplineSet
350 800 m 4xd8
 525 800.091796875 600 700 600 600 c 4
 600 533.682617188 523.013671875 423.434570312 427.416015625 356.65625 c 5
 476.470703125 301.470703125 l 5
 625 450 l 5
 700 450 l 5
 700 325 l 5
 570.587890625 195.587890625 l 5
 700 50 l 5
 700 0 l 5
 550 0 l 5
 470.9453125 95.99609375 l 5
 399.163085938 24.33984375 370.454101562 0 250 0 c 4
 50 0 -1.919921875 100.018554688 0 200 c 4xe8
 1.798828125 293.6875 58.2353515625 400 200 400 c 4
 205.953125 400 212.506835938 400.641601562 219.29296875 401.57421875 c 5
 200 425 l 6
 142.698242188 494.581054688 100 525 100 625 c 4
 100 700 175 799.907226562 350 800 c 4xd8
350 700 m 4
 300 700 275 675 275 600 c 4xd8
 275 575 276.510742188 526.424804688 300 500 c 6
 341.22265625 453.625 l 5
 387.810546875 488.009765625 425 537.87109375 425 600.193359375 c 4
 425 675 400 700 350 700 c 4
301.27734375 302.021484375 m 5
 292.461914062 300.73828125 283.686523438 300 275 300 c 4xd8
 225 300 175 275 175 200 c 4xe8
 175 125 200 100 250 100 c 4
 293.698242188 100 337.395507812 157.282226562 381.09375 205.099609375 c 5
 301.27734375 302.021484375 l 5
EndSplineSet
EndChar

StartChar: quotesingle
Encoding: 39 39 76
Width: 300
Flags: W
HStem: 780 20G<75 125>
VStem: 50 150<534.991 626.376>
LayerCount: 2
Fore
SplineSet
75 400 m 1
 0 450 l 1
 25 475 50.8994140625 502.158203125 50 575 c 0
 49.3828125 624.99609375 -1.2724609375 620.33984375 0 700 c 0
 0.798828125 749.993164062 50 800 100 800 c 0
 150 800 201.306640625 749.983398438 200 700 c 0
 193.703125 459.182617188 100 425 75 400 c 1
EndSplineSet
EndChar

StartChar: parenleft
Encoding: 40 40 77
Width: 400
Flags: W
HStem: -100 75<237.491 300> 725 75<238.562 300>
VStem: 0 200<44.5068 655.493>
LayerCount: 2
Fore
SplineSet
0 525 m 2
 0 700 100 750 150 775 c 2
 200 800 l 1
 300 800 l 1
 300 725 l 1
 250 725 200 700 200 525 c 2
 200 175 l 2
 200 0 251.986328125 -30.3974609375 300 -25 c 1
 300 -100 l 1
 200 -100 l 1
 150 -75 l 2
 100 -50 0 0 0 175 c 2
 0 525 l 2
EndSplineSet
EndChar

StartChar: parenright
Encoding: 41 41 78
Width: 400
Flags: W
HStem: -100 75<0 62.5094> 725 75<0 61.438>
VStem: 100 200<44.5068 655.493>
LayerCount: 2
Fore
SplineSet
300 525 m 2
 300 175 l 2
 300 0 200 -50 150 -75 c 2
 100 -100 l 1
 0 -100 l 1
 0 -25 l 1
 48.013671875 -30.3974609375 100 0 100 175 c 2
 100 525 l 2
 100 700 50 725 0 725 c 1
 0 800 l 1
 100 800 l 1
 150 775 l 2
 200 750 300 700 300 525 c 2
EndSplineSet
EndChar

StartChar: asterisk
Encoding: 42 42 79
Width: 700
Flags: W
HStem: 780 20G<200 400>
VStem: 200 200<300 425 675 800>
LayerCount: 2
Fore
SplineSet
200 800 m 1
 400 800 l 1
 400 675 l 1
 475 750 l 1
 575 750 l 1
 575 675 l 1
 450 550 l 1
 575 425 l 1
 575 350 l 1
 475 350 l 1
 400 425 l 1
 400 300 l 1
 200 300 l 1
 200 425 l 1
 125 350 l 1
 25 350 l 1
 25 425 l 1
 150 550 l 1
 25 675 l 1
 25 750 l 1
 125 750 l 1
 200 675 l 1
 200 800 l 1
EndSplineSet
Validated: 1
EndChar

StartChar: plus
Encoding: 43 43 80
Width: 700
Flags: W
HStem: 300 100<0 200 400 600> 580 20G<200 400>
VStem: 200 200<100 300 400 600>
LayerCount: 2
Fore
SplineSet
200 600 m 1
 400 600 l 1
 400 400 l 1
 600 400 l 1
 600 300 l 1
 400 300 l 1
 400 100 l 1
 200 100 l 1
 200 300 l 1
 0 300 l 1
 0 400 l 1
 200 400 l 1
 200 600 l 1
EndSplineSet
Validated: 1
EndChar

StartChar: hyphen
Encoding: 45 45 82
Width: 600
Flags: W
HStem: 300 100<0 500>
LayerCount: 2
Fore
SplineSet
0 400 m 1
 500 400 l 1
 500 300 l 1
 0 300 l 1
 0 400 l 1
EndSplineSet
Validated: 1
EndChar

StartChar: period
Encoding: 46 46 83
Width: 300
Flags: W
HStem: 0 200<32.7622 167.238>
VStem: 0 200<32.7622 167.238>
LayerCount: 2
Fore
SplineSet
0 100 m 4
 0 155.228515625 44.771484375 200 100 200 c 4
 155.228515625 200 200 155.228515625 200 100 c 4
 200 44.771484375 155.228515625 0 100 0 c 4
 44.771484375 0 0 44.771484375 0 100 c 4
EndSplineSet
EndChar

StartChar: slash
Encoding: 47 47 84
Width: 600
Flags: W
HStem: 0 21G<0 160> 0 21G<0 160> 780 20G<340 500>
LayerCount: 2
Fore
SplineSet
0 0 m 1xa0
 0 100 l 1
 350 800 l 1
 500 800 l 1
 500 700 l 1
 150 0 l 1
 0 0 l 1xa0
EndSplineSet
Validated: 1
EndChar

StartChar: zero
Encoding: 48 48 85
Width: 700
Flags: W
HStem: 0 100<259.552 349.905> 700 100<256.143 343.857>
VStem: 0 200<199.402 600.598> 400 200<199.402 600.598>
LayerCount: 2
Fore
SplineSet
400 375 m 2
 400 425 l 2
 400 550 375 700 300 700 c 0
 225 700 200 550 200 425 c 2
 200 375 l 2
 200 250 218.743164062 102.326171875 300 100 c 0
 381.256835938 97.673828125 400 250 400 375 c 2
0 375 m 2
 0 425 l 2
 0 625 75 800 300 800 c 0
 525 800 600 625 600 425 c 2
 600 375 l 2
 600 175 525 0 300 0 c 0
 75 0 0 175 0 375 c 2
EndSplineSet
Substitution2: "Proportional Numbers" zero.proportional
Substitution2: "Tabular Numbers" zero
EndChar

StartChar: one
Encoding: 49 49 86
Width: 700
Flags: W
HStem: 0 100<0 200 400 600> 780 20G<230 400>
VStem: 200 200<100 500>
LayerCount: 2
Fore
SplineSet
250 800 m 1
 400 800 l 1
 400 100 l 1
 600 100 l 1
 600 0 l 1
 0 0 l 1
 0 100 l 1
 200 100 l 1
 200 500 l 1
 0 500 l 1
 0 550 l 1
 250 800 l 1
EndSplineSet
Substitution2: "Proportional Numbers" one.proportional
Substitution2: "Tabular Numbers" one
EndChar

StartChar: two
Encoding: 50 50 87
Width: 700
Flags: W
HStem: 0 125<200 600> 700 100<236.819 368.647>
VStem: 0 200<550 662.891> 400 200<507.476 667.666>
LayerCount: 2
Fore
SplineSet
600 575 m 0
 599.993164062 526.092773438 550 475 500 425 c 2
 200 125 l 1
 600 125 l 1
 600 0 l 1
 0 0 l 1
 0 125 l 1
 325 450 l 2
 357.813476562 482.813476562 400 523.309570312 400 575 c 0
 400 675 350 700 300 700 c 0
 250 700 200 675 200 550 c 1
 0 550 l 1
 0 725 75 800 300 800 c 0
 525 800 600.01953125 723.923828125 600 575 c 0
EndSplineSet
Substitution2: "Proportional Numbers" two.proportional
Substitution2: "Tabular Numbers" two
EndChar

StartChar: three
Encoding: 51 51 88
Width: 700
Flags: W
HStem: 0 100<236.819 370.367> 675 125<0 450>
VStem: 0 200<137.109 250> 400 200<128.373 277.976>
LayerCount: 2
Fore
SplineSet
0 800 m 1
 600 800 l 1
 600 625 l 1
 425 450 l 1
 500 375 l 2
 550 325 600 273.388671875 600 200 c 0
 600 75 525 0 300 0 c 0
 75 0 0 75 0 250 c 1
 200 250 l 1
 200 125 250 100 300 100 c 0
 350 100 400 125 400 200 c 0
 400 250 350 325 300 375 c 2
 250 425 l 1
 250 475 l 1
 450 675 l 1
 0 675 l 1
 0 800 l 1
EndSplineSet
Substitution2: "Proportional Numbers" three.proportional
Substitution2: "Tabular Numbers" three
EndChar

StartChar: four
Encoding: 52 52 89
Width: 700
Flags: W
HStem: 0 21G<300 500> 0 21G<300 500> 200 100<200 300 500 600> 780 20G<0 200>
VStem: 0 200<300 800> 300 200<0 200 300 500>
LayerCount: 2
Fore
SplineSet
0 800 m 5xbc
 200 800 l 5
 200 300 l 5
 300 300 l 5
 300 500 l 5
 500 500 l 5
 500 300 l 5
 600 300 l 5
 600 200 l 5
 500 200 l 5
 500 0 l 5
 300 0 l 5
 300 200 l 5
 0 200 l 5
 0 800 l 5xbc
EndSplineSet
Substitution2: "Proportional Numbers" four.proportional
Substitution2: "Tabular Numbers" four
EndChar

StartChar: five
Encoding: 53 53 90
Width: 700
Flags: W
HStem: 0 100<236.85 363.212> 400 100<200 359.388> 700 100<200 600>
VStem: 0 200<137.109 250 500 700> 400.031 200<137.109 362.891>
LayerCount: 2
Fore
SplineSet
600 700 m 5
 200 700 l 5
 200 500 l 5
 300 500 l 6
 525 500 600 425 600 250 c 5
 600.03125 250 l 5
 600.03125 75 525.03125 0 300.03125 0 c 4
 75.03125 0 0.03125 75 0.03125 250 c 5
 200.03125 250 l 5
 200.03125 125 250.03125 100 300.03125 100 c 4
 350.03125 100 400.03125 125 400.03125 250 c 5
 400 250 l 5
 400 375 350 400 300 400 c 6
 0 400 l 5
 0 800 l 5
 600 800 l 5
 600 700 l 5
EndSplineSet
Substitution2: "Proportional Numbers" five.proportional
Substitution2: "Tabular Numbers" five
EndChar

StartChar: six
Encoding: 54 54 91
Width: 700
Flags: W
HStem: 0 100<236.85 363.212> 400 100<200 359.388> 700 100<236.819 495.488>
VStem: 0.03125 199.969<137.109 400 500 662.891> 400.031 200<137.109 362.891>
LayerCount: 2
Fore
SplineSet
0.03125 250 m 2
 0 550 l 2
 0 725 75 800 300 800 c 0
 350 800 400 800 500 775 c 1
 500 675 l 1
 406.109375 700 350 700 300 700 c 0
 250 700 200 675 200 550 c 2
 200 500 l 1
 300 500 l 2
 525 500 600 425 600 250 c 1
 600.03125 250 l 1
 600.03125 75 525.03125 0 300.03125 0 c 0
 75.03125 0 0.03125 75 0.03125 250 c 2
200 400 m 1
 200 250 l 1
 200.03125 250 l 1
 200.03125 125 250.03125 100 300.03125 100 c 0
 350.03125 100 400.03125 125 400.03125 250 c 1
 400 250 l 1
 400 375 350 400 300 400 c 2
 200 400 l 1
EndSplineSet
Substitution2: "Proportional Numbers" six.proportional
Substitution2: "Tabular Numbers" six
EndChar

StartChar: seven
Encoding: 55 55 92
Width: 700
Flags: W
HStem: 0 21G<100 235.714> 0 21G<100 235.714> 700 100<0 425>
LayerCount: 2
Fore
SplineSet
0 800 m 1xa0
 600 800 l 1
 600 700 l 1
 225 0 l 1
 100 0 l 1
 100 100 l 1
 425 700 l 1
 0 700 l 1
 0 800 l 1xa0
EndSplineSet
Substitution2: "Proportional Numbers" seven.proportional
Substitution2: "Tabular Numbers" seven
EndChar

StartChar: eight
Encoding: 56 56 93
Width: 700
Flags: W
HStem: 0 100<230.677 368.435> 400 100<229.898 370.102> 700 100<227.839 372.161>
VStem: 0 200<132.088 369.616> 25 175<525.234 673.354> 400 200<132.458 369.616> 400 175<525.234 673.354>
LayerCount: 2
Fore
SplineSet
300 800 m 4xe8
 500 800 575 750 575 625 c 6
 575 575 l 6xea
 575 515.569335938 558.564453125 473.733398438 519.609375 445.873046875 c 5
 577.291015625 404.727539062 600 343.658203125 600 275 c 6
 600 225 l 6
 600 100 525 0 300 0 c 4
 75 0 0 100 0 225 c 6
 0 275 l 6xf4
 0 343.30078125 22.4775390625 404.088867188 79.49609375 445.2265625 c 5
 41.45703125 473.783203125 25 516.458007812 25 575 c 6
 25 625 l 6
 25 750 100 800 300 800 c 4xe8
300 700 m 4
 225 700 200 650 200 625 c 6
 200 575 l 6
 200 550 225 500 300 500 c 4
 375 500 400 550 400 575 c 6
 400 625 l 6
 400 650 375 700 300 700 c 4
300 400 m 4
 225 400 200 350 200 275 c 6
 200 225 l 6
 200 150 225 100 300 100 c 4
 375 100 400 155.921875 400 225 c 6
 400 275 l 6xf4
 400 350 375 400 300 400 c 4
EndSplineSet
Substitution2: "Proportional Numbers" eight.proportional
Substitution2: "Tabular Numbers" eight
EndChar

StartChar: nine
Encoding: 57 57 94
Width: 700
Flags: W
HStem: 0 21G<100 245> 0 21G<100 245> 300 100<231.457 322.848> 700 100<230.677 369.323>
VStem: 0 200<432.088 667.912> 400 200<432.808 667.912>
LayerCount: 2
Fore
SplineSet
300 800 m 0xbc
 525 800 600 700 600 575 c 2
 600 525 l 2
 600 520.864257812 599.905273438 516.76171875 599.73828125 512.68359375 c 0
 597.005859375 372.428710938 548.573242188 323.573242188 500 275 c 2
 225 0 l 1
 100 0 l 1
 100 75 l 1
 325.501953125 300.501953125 l 1
 317.19921875 300.204101562 308.752929688 300 300 300 c 0
 75 300 0 400 0 525 c 2
 0 575 l 2
 0 700 75 800 300 800 c 0xbc
300 700 m 0
 225 700 200 650 200 575 c 2
 200 525 l 2
 200 450 225 400 300 400 c 0
 375 400 400 455.921875 400 525 c 2
 400 575 l 2
 400 650 375 700 300 700 c 0
EndSplineSet
Substitution2: "Proportional Numbers" nine.proportional
Substitution2: "Tabular Numbers" nine
EndChar

StartChar: less
Encoding: 60 60 97
Width: 600
Flags: W
HStem: 580 20G<360 500>
LayerCount: 2
Fore
SplineSet
500 500 m 1
 200 350 l 1
 500 200 l 1
 500 100 l 1
 400 100 l 1
 0 300 l 1
 0 400 l 1
 400 600 l 1
 500 600 l 1
 500 500 l 1
EndSplineSet
EndChar

StartChar: equal
Encoding: 61 61 98
Width: 600
Flags: W
HStem: 200 100<0 500> 400 100<0 500>
LayerCount: 2
Fore
SplineSet
0 500 m 5
 500 500 l 5
 500 400 l 5
 0 400 l 5
 0 500 l 5
0 300 m 5
 500 300 l 5
 500 200 l 5
 0 200 l 5
 0 300 l 5
EndSplineSet
Validated: 1
EndChar

StartChar: greater
Encoding: 62 62 99
Width: 600
Flags: W
HStem: 580 20G<0 140>
LayerCount: 2
Fore
SplineSet
0 500 m 1
 0 600 l 1
 100 600 l 1
 500 400 l 1
 500 300 l 1
 100 100 l 1
 0 100 l 1
 0 200 l 1
 300 350 l 1
 0 500 l 1
EndSplineSet
EndChar

StartChar: question
Encoding: 63 63 100
Width: 700
Flags: W
HStem: 0 200<232.762 367.238> 700 100<229.74 367.836>
VStem: 0 200<550 672.738> 200 200<32.7622 167.238> 400 200<508.885 668.87>
LayerCount: 2
Fore
SplineSet
400 300 m 5xe8
 200 300 l 5xd0
 200 525 400 400 400 600 c 4
 400 650 375.385742188 697.456054688 300 700 c 4
 225.04296875 702.530273438 200 650 200 600 c 6
 200 550 l 5
 0 550 l 5
 0 600 l 6
 1.2724609375 698.341796875 100 800 300 800 c 4
 425 800 601.280273438 750.380859375 600 600 c 4
 598.201171875 388.680664062 400 475.524414062 400 300 c 5xe8
EndSplineSet
Refer: 83 46 S 1 0 0 1 200 0 2
EndChar

StartChar: at
Encoding: 64 64 101
Width: 900
Flags: W
HStem: 0 100<342.139 753.265> 200 100<406.555 494.114 602.031 695.414> 500 100<420.671 500> 700 100<342.139 625.377>
VStem: 0 200<261.641 538.248> 300 100<304.911 480.137> 500 100<303.488 500> 700 100<304.586 659.458>
LayerCount: 2
Fore
SplineSet
600 0 m 2
 425 0 l 2
 200 0 0 175 0 375 c 2
 0 425 l 2
 0 625 200 800 425 800 c 0
 700 800 798.727539062 698.341796875 800 600 c 2
 800 325 l 2
 800 250 750 200 675 200 c 2
 500 200 l 2
 327.930664062 197.456054688 300 275 300 400 c 0
 300 525 375 600 500 600 c 2
 600 600 l 1
 600 350 l 2
 600 326.4296875 600 300 650 300 c 0
 700 300 700 325 700 350 c 2
 700 600 l 2
 700 650 689.30078125 701.272460938 425 700 c 0
 300.000976562 699.3984375 200 550 200 425 c 2
 200 375 l 2
 200 250 300 100 425 100 c 2
 600 100 l 1
 728.892578125 95.962890625 800 150 800 150 c 1
 800 50 l 1
 800 50 750 0 600 0 c 2
500 500 m 1
 425 500 400 475 400 400 c 0
 400 325 400 300 450 300 c 0
 497.8984375 300 500 325 500 400 c 2
 500 500 l 1
EndSplineSet
Validated: 33
EndChar

StartChar: bracketleft
Encoding: 91 91 102
Width: 400
Flags: W
HStem: -100 100<200 300> 700 100<200 300>
VStem: 0 300<-100 0 700 800> 0 200<0 700>
LayerCount: 2
Fore
SplineSet
0 800 m 1xe0
 300 800 l 1
 300 700 l 1xe0
 200 700 l 1
 200 0 l 1xd0
 300 0 l 1
 300 -100 l 1
 0 -100 l 1
 0 800 l 1xe0
EndSplineSet
EndChar

StartChar: backslash
Encoding: 92 92 103
Width: 600
Flags: W
HStem: 0 21G<340 500> 0 21G<340 500> 780 20G<0 160>
LayerCount: 2
Fore
SplineSet
500 0 m 5xa0
 350 0 l 5
 0 700 l 5
 0 800 l 5
 150 800 l 5
 500 100 l 5
 500 0 l 5xa0
EndSplineSet
EndChar

StartChar: bracketright
Encoding: 93 93 104
Width: 400
Flags: W
HStem: -100 100<0 100> 700 100<0 100>
VStem: 0 300<-100 0 700 800> 100 200<0 700>
LayerCount: 2
Fore
SplineSet
300 800 m 1xe0
 300 -100 l 1
 0 -100 l 1
 0 0 l 1xe0
 100 0 l 1
 100 700 l 1xd0
 0 700 l 1
 0 800 l 1
 300 800 l 1xe0
EndSplineSet
Validated: 1
EndChar

StartChar: underscore
Encoding: 95 95 105
Width: 700
Flags: W
HStem: -100 100<0 600>
LayerCount: 2
Fore
SplineSet
0 -100 m 5
 0 0 l 5
 600 0 l 5
 600 -100 l 5
 0 -100 l 5
EndSplineSet
Validated: 1
EndChar

StartChar: braceleft
Encoding: 123 123 106
Width: 600
Flags: W
HStem: -100.5 0.5<300 500> -25 0.5<489.157 500> 724.5 0.5<492.593 500> 800 0.5<499.5 500>
VStem: 99.5 0.5<166.888 249.792 449.309 533.112> 300 0.5<166.924 250 450 533.075> 500 0.5<-100 -25 725 800>
LayerCount: 2
Fore
SplineSet
100.5 525 m 2
 100.5 699.750976562 200.2578125 749.569335938 250.22265625 774.552734375 c 2
 300.118164062 799.5 l 1
 499.5 799.5 l 1
 499.5 725.48828125 l 1
 421.518554688 723.6015625 299.5 700.0078125 299.5 525 c 2
 299.5 450.20703125 l 1
 199.646484375 350.353515625 l 1
 199.29296875 350 l 1
 199.646484375 349.646484375 l 1
 299.5 249.79296875 l 1
 299.5 175 l 2
 299.5 0.013671875 424.352539062 -25.3876953125 499.5 -25.5 c 1
 499.5 -99.5 l 1
 300.118164062 -99.5 l 1
 250.22265625 -74.552734375 l 2
 200.2578125 -49.5693359375 100.5 0.2490234375 100.5 175 c 2
 100.5 250 l 1
 100.5 250.208007812 l 1
 100.352539062 250.354492188 l 1
 0.708984375 349.549804688 l 1
 100.352539062 448.74609375 l 1
 100.5 448.892578125 l 1
 100.5 449.100585938 l 1
 100.5 525 l 2
200.70703125 350 m 1
 300.353515625 449.646484375 l 1
 300.5 449.79296875 l 1
 300.5 450 l 1
 300.5 525 l 2
 300.5 699.626953125 422.200195312 722.703125 500.01171875 724.5 c 2
 500.5 724.51171875 l 1
 500.5 725 l 1
 500.5 800 l 1
 500.5 800.5 l 1
 500 800.5 l 1
 300 800.5 l 1
 299.881835938 800.5 l 1
 299.77734375 800.447265625 l 1
 249.77734375 775.447265625 l 2
 199.7421875 750.430664062 99.5 700.249023438 99.5 525 c 2
 99.5 449.30859375 l 1
 -0.3525390625 349.904296875 l 1
 -0.708984375 349.549804688 l 1
 -0.3525390625 349.1953125 l 1
 99.5 249.791992188 l 1
 99.5 175 l 2
 99.5 -0.2490234375 199.7421875 -50.4306640625 249.77734375 -75.447265625 c 2
 299.77734375 -100.447265625 l 1
 299.881835938 -100.5 l 1
 300 -100.5 l 1
 500 -100.5 l 1
 500.5 -100.5 l 1
 500.5 -100 l 1
 500.5 -25 l 1
 500.5 -24.5 l 1
 500 -24.5 l 2
 425.092773438 -24.5 300.5 0.375 300.5 175 c 2
 300.5 250 l 1
 300.5 250.20703125 l 1
 300.353515625 250.353515625 l 1
 200.70703125 350 l 1
100 525 m 2
 100 700 200 750 250 775 c 2
 300 800 l 1
 500 800 l 1
 500 725 l 1
 422.114257812 723.201171875 300 700 300 525 c 2
 300 450 l 1
 200 350 l 1
 300 250 l 1
 300 175 l 2
 300 0 425 -25 500 -25 c 1
 500 -100 l 1
 300 -100 l 1
 250 -75 l 2
 200 -50 100 0 100 175 c 2
 100 250 l 1
 0 349.549804688 l 1
 100 449.100585938 l 1
 100 525 l 2
EndSplineSet
Validated: 9
EndChar

StartChar: bar
Encoding: 124 124 107
Width: 300
Flags: W
HStem: 780 20G<0 200>
VStem: 0 200<-100 800>
LayerCount: 2
Fore
SplineSet
0 -100 m 5
 0 800 l 5
 200 800 l 5
 200 -100 l 5
 0 -100 l 5
EndSplineSet
Validated: 1
EndChar

StartChar: braceright
Encoding: 125 125 108
Width: 600
Flags: W
HStem: -100.5 0.5<-0.208984 199.791> -25 0.5<-0.208984 10.6344> 724.5 0.5<-0.208984 7.19774> 800 0.5<-0.208984 0.291016>
VStem: -0.708984 0.5<-100 -25 725 800> 199.291 0.5<166.924 250 450 533.075> 399.791 0.5<166.888 249.792 449.309 533.112>
LayerCount: 2
Fore
SplineSet
399.291015625 525 m 6
 399.291015625 449.100585938 l 5
 399.291015625 448.892578125 l 5
 399.438476562 448.74609375 l 5
 499.08203125 349.549804688 l 5
 399.438476562 250.354492188 l 5
 399.291015625 250.208007812 l 5
 399.291015625 250 l 5
 399.291015625 175 l 6
 399.291015625 0.2490234375 299.533203125 -49.5693359375 249.568359375 -74.552734375 c 6
 199.672851562 -99.5 l 5
 0.291015625 -99.5 l 5
 0.291015625 -25.5 l 5
 75.4384765625 -25.3876953125 200.291015625 0.013671875 200.291015625 175 c 6
 200.291015625 249.79296875 l 5
 300.14453125 349.646484375 l 5
 300.498046875 350 l 5
 300.14453125 350.353515625 l 5
 200.291015625 450.20703125 l 5
 200.291015625 525 l 6
 200.291015625 700.0078125 78.2734375 723.6015625 0.291015625 725.48828125 c 5
 0.291015625 799.5 l 5
 199.672851562 799.5 l 5
 249.568359375 774.552734375 l 6
 299.533203125 749.569335938 399.291015625 699.750976562 399.291015625 525 c 6
400.291015625 525 m 6
 400.291015625 700.249023438 300.048828125 750.430664062 250.013671875 775.447265625 c 6
 200.013671875 800.447265625 l 5
 199.909179688 800.5 l 5
 199.791015625 800.5 l 5
 -0.208984375 800.5 l 5
 -0.708984375 800.5 l 5
 -0.708984375 800 l 5
 -0.708984375 725 l 5
 -0.708984375 724.51171875 l 5
 -0.220703125 724.5 l 6
 77.591796875 722.703125 199.291015625 699.626953125 199.291015625 525 c 6
 199.291015625 450 l 5
 199.291015625 449.79296875 l 5
 199.4375 449.646484375 l 5
 299.083984375 350 l 5
 199.4375 250.353515625 l 5
 199.291015625 250.20703125 l 5
 199.291015625 250 l 5
 199.291015625 175 l 6
 199.291015625 0.375 74.6982421875 -24.5 -0.208984375 -24.5 c 6
 -0.708984375 -24.5 l 5
 -0.708984375 -25 l 5
 -0.708984375 -100 l 5
 -0.708984375 -100.5 l 5
 -0.208984375 -100.5 l 5
 199.791015625 -100.5 l 5
 199.909179688 -100.5 l 5
 200.013671875 -100.447265625 l 5
 250.013671875 -75.447265625 l 6
 300.048828125 -50.4306640625 400.291015625 -0.2490234375 400.291015625 175 c 6
 400.291015625 249.791992188 l 5
 500.143554688 349.1953125 l 5
 500.5 349.549804688 l 5
 500.143554688 349.904296875 l 5
 400.291015625 449.30859375 l 5
 400.291015625 525 l 6
399.791015625 525 m 6
 399.791015625 449.100585938 l 5
 499.791015625 349.549804688 l 5
 399.791015625 250 l 5
 399.791015625 175 l 6
 399.791015625 0 299.791015625 -50 249.791015625 -75 c 6
 199.791015625 -100 l 5
 -0.208984375 -100 l 5
 -0.208984375 -25 l 5
 74.791015625 -25 199.791015625 0 199.791015625 175 c 6
 199.791015625 250 l 5
 299.791015625 350 l 5
 199.791015625 450 l 5
 199.791015625 525 l 6
 199.791015625 700 77.677734375 723.201171875 -0.208984375 725 c 5
 -0.208984375 800 l 5
 199.791015625 800 l 5
 249.791015625 775 l 6
 299.791015625 750 399.791015625 700 399.791015625 525 c 6
EndSplineSet
Validated: 9
EndChar

StartChar: asciitilde
Encoding: 126 126 109
Width: 800
Flags: W
HStem: 400 100<476.816 550> 500 100<150 221.264>
LayerCount: 2
Fore
SplineSet
350 600 m 2x40
 500 600 425.624023438 500 550 500 c 1x80
 600 575 l 1
 700 575 l 1
 650 500 l 2x40
 622.264648438 458.397460938 600 400 500 400 c 2
 350 400 l 2x80
 200 400 265.978515625 502.758789062 150 500 c 1
 100 425 l 1
 0 425 l 1
 50 500 l 2
 77.7353515625 541.602539062 97.826171875 599.100585938 200 600 c 2
 350 600 l 2x40
EndSplineSet
Validated: 33
EndChar

StartChar: exclamdown
Encoding: 161 161 110
Width: 300
Flags: W
HStem: 400 200<32.7622 167.238>
VStem: 0 200<-163.314 179.811 432.762 567.238>
LayerCount: 2
Fore
SplineSet
100 -200 m 0
 50 -200 -0.908203125 -149.9921875 0 -100 c 0
 3.5986328125 97.9755859375 50 325 50 325 c 1
 150 325 l 1
 150 325 200 100 200 -100 c 0
 200 -150 150 -200 100 -200 c 0
EndSplineSet
Refer: 83 46 N 1 0 0 1 0 400 2
EndChar

StartChar: cent
Encoding: 162 162 111
Width: 700
Flags: W
HStem: 7.98633 104.215<400 448.231> 487.9 102.486<400 445.114>
VStem: 0 125<195.513 407.507> 200 200<-100 12.4736 136.176 463.824 585.653 700> 475 125<140.11 200 400 461.405>
CounterMasks: 1 38
LayerCount: 2
Fore
SplineSet
200 700 m 1
 400 700 l 1
 400 590.38671875 l 1
 547.767578125 559.775390625 600 462.536132812 600 400 c 1
 475 400 l 1
 475 446.635742188 445.975585938 473.918945312 400 487.900390625 c 1
 400 112.201171875 l 1
 445.9765625 126.260742188 475 153.604492188 475 200 c 1
 600 200 l 1
 600 136.323242188 563.884765625 36.6455078125 400 7.986328125 c 1
 400 -100 l 1
 200 -100 l 1
 200 13.43359375 l 1
 52.232421875 56.173828125 0 191.618164062 0 275 c 2
 0 325 l 2
 0 408.5234375 50.8974609375 541.501953125 200 585.412109375 c 1
 200 700 l 1
200 463.82421875 m 1
 154.024414062 427.909179688 125 371.635742188 125 325 c 2
 125 275 l 2
 125 228.364257812 154.024414062 172.090820312 200 136.17578125 c 1
 200 463.82421875 l 1
EndSplineSet
EndChar

StartChar: sterling
Encoding: 163 163 112
Width: 800
Flags: W
HStem: 0 100<0 100 300 700> 300 100<0 100 300 500> 700 100<330.899 463.212>
VStem: 100 200<100 300 400 668.109> 500.031 200<550 662.891>
LayerCount: 2
Fore
SplineSet
300 575 m 6
 300 400 l 5
 500 400 l 5
 500 300 l 5
 300 300 l 5
 300 100 l 5
 700 100 l 5
 700 0 l 5
 0 0 l 5
 0 100 l 5
 100 100 l 5
 100 300 l 5
 0 300 l 5
 0 400 l 5
 100 400 l 5
 100.03125 575 l 6
 100 725 175.03125 800 400.03125 800 c 5
 625.03125 800 700.03125 725 700.03125 550 c 5
 500.03125 550 l 5
 500.03125 675 450.03125 700 400.03125 700 c 4
 350.03125 700 297.456054688 675 300 575 c 6
EndSplineSet
EndChar

StartChar: currency
Encoding: 164 164 113
Width: 800
Flags: W
HStem: 100 100<306.917 389.354> 500 100<299.658 400.349>
VStem: 100 175<301.785 398.213> 425 175<301.476 398.215>
LayerCount: 2
Fore
SplineSet
0 600 m 1
 100 600 l 1
 167.13671875 532.86328125 l 1
 207.799804688 572.387695312 267.890625 599.913085938 350 600 c 0
 432.134765625 600 492.237304688 572.462890625 532.900390625 532.900390625 c 1
 600 600 l 1
 700 600 l 1
 700 500 l 1
 598.587890625 398.587890625 l 1
 599.49609375 390.625 600 382.733398438 600 375 c 2
 600 325 l 2
 600 317.169921875 599.563476562 309.162109375 598.90234375 301.09765625 c 1
 700 200 l 1
 700 100 l 1
 600 100 l 1
 537.80078125 162.19921875 l 1
 499.434570312 125.302734375 439.911132812 100 350 100 c 0
 267.865234375 100 207.762695312 127.537109375 167.099609375 167.099609375 c 1
 100 100 l 1
 0 100 l 1
 0 200 l 1
 101.412109375 301.412109375 l 1
 100.50390625 309.375 100 317.266601562 100 325 c 2
 100 375 l 2
 100 382.733398438 100.505859375 390.625 101.4140625 398.5859375 c 1
 0 500 l 1
 0 600 l 1
350 500 m 0
 300 500 275 450 275 375 c 2
 275 325 l 2
 275 250 316.192382812 200.899414062 350 200 c 0
 374.991210938 199.334960938 425 250.385742188 425 325 c 2
 425 375 l 2
 425 450 400 500 350 500 c 0
EndSplineSet
EndChar

StartChar: yen
Encoding: 165 165 114
Width: 700
Flags: W
HStem: 0 21G<200 400> 0 21G<200 400> 200 100<0 200 400 600> 400 100<0 200 400 600> 780 20G<0 75.7588 505 600>
VStem: 200 200<0 200 300 400>
LayerCount: 2
Fore
SplineSet
0 800 m 1xbc
 75 800 l 1
 75.7587890625 799.325195312 l 1
 300 575 l 1
 525 800 l 1
 600 800 l 1
 600 700 l 1
 400 500 l 1
 600 500 l 1
 600 400 l 1
 400 400 l 1
 400 300 l 1
 600 300 l 1
 600 200 l 1
 400 200 l 1
 400 0 l 1
 200 0 l 1
 200 200 l 1
 0 200 l 1
 0 300 l 1
 200 300 l 1
 200 400 l 1
 0 400 l 1
 0 500 l 1
 200 500 l 1
 0 700 l 1
 0 800 l 1xbc
EndSplineSet
EndChar

StartChar: brokenbar
Encoding: 166 166 115
Width: 300
Flags: W
HStem: 780 20G<0 200>
VStem: 0 200<-100 300 400 800>
LayerCount: 2
Fore
SplineSet
0 400 m 1
 0 800 l 1
 200 800 l 1
 200 400 l 1
 0 400 l 1
0 -100 m 1
 0 300 l 1
 200 300 l 1
 200 -100 l 1
 0 -100 l 1
EndSplineSet
EndChar

StartChar: section
Encoding: 167 167 116
Width: 600
Flags: W
HStem: 0 100<50.0404 268.123> 200 100<203.397 270.723> 500 100<229.268 296.603> 700 100<231.877 449.96>
VStem: 0 175<326.692 475.606> 50 175<600.705 693.59> 275 175<106.41 199.338> 325 175<324.253 474.276>
LayerCount: 2
Fore
SplineSet
300 800 m 0xf4
 400 800 450 775 450 775 c 1
 450 675 l 1xf6
 450 675 389.509765625 700 300 700 c 0
 250 700 225 692.616210938 225 650 c 0
 225 628.61328125 232.568359375 612.00390625 243.83984375 599.8828125 c 0
 245.90234375 599.913085938 247.909179688 599.998046875 250 600 c 0
 425 600 500 500 500 400 c 0xf5
 500 338.376953125 480.947265625 276.791015625 419.572265625 238.568359375 c 1
 440.206054688 215.521484375 450 186.0234375 450 150 c 0
 450 50 366.66015625 0 200 0 c 0
 100 0 50 25 50 25 c 1
 50 125 l 1xf6
 50 125 110.490234375 100 200 100 c 0
 250 100 275 107.383789062 275 150 c 0
 275 171.375976562 267.4375 187.978515625 256.17578125 200.09765625 c 0
 254.1015625 200.075195312 252.107421875 200 250 200 c 0
 75 200 0 300 0 400 c 0xfa
 0 459.358398438 26.427734375 518.650390625 84.5078125 557.080078125 c 1
 61.0654296875 580.717773438 50 611.672851562 50 650 c 0
 50 750 133.33984375 800 300 800 c 0xf4
250 500 m 0
 225 500 175 475 175 400 c 0
 175 325 228.7734375 300.899414062 250 300 c 0
 274.977539062 298.94140625 325 325.38671875 325 400.193359375 c 0xf9
 325 475 275 500 250 500 c 0
EndSplineSet
EndChar

StartChar: dieresis
Encoding: 168 168 117
Width: 500
Flags: W
HStem: 675 125<17.1282 132.868 267.128 382.868>
VStem: 0 150<691.844 796.232> 250 150<691.844 796.232>
LayerCount: 2
Fore
SplineSet
50 800 m 2
 100 800 l 2
 118.450195312 800 150 795.7109375 150 750 c 0
 150 704.2890625 116.420898438 675 75 675 c 0
 33.5791015625 675 0 704.2890625 0 750 c 0
 0 795.7109375 31.5380859375 800 50 800 c 2
300 800 m 2
 350 800 l 2
 368.450195312 800 400 795.7109375 400 750 c 0
 400 704.2890625 366.420898438 675 325 675 c 0
 283.579101562 675 250 704.2890625 250 750 c 0
 250 795.7109375 281.538085938 800 300 800 c 2
EndSplineSet
EndChar

StartChar: copyright
Encoding: 169 169 118
Width: 1200
HStem: -200 125<413.916 686.084> 0 100<525.557 627.933> 500 100<525.557 631.474> 675 125<413.916 686.084>
VStem: 0 200<165.657 434.343> 300 200<124.82 475.18> 650 150<120.38 200 400 479.62> 900 200<165.657 434.343>
LayerCount: 2
Fore
SplineSet
600 -75 m 6
 725 -75 900 112.5 900 268.75 c 6
 900 331.25 l 6
 900 487.5 724.993164062 673.404296875 600 675 c 6
 500 675 l 6
 375 675 200 487.5 200 331.25 c 6
 200 268.75 l 6
 200 112.5 375.006835938 -73.404296875 500 -75 c 6
 600 -75 l 6
500 -200 m 6
 275 -200 0 18.75 0 268.75 c 6
 0 331.25 l 6
 0 581.25 275 800 500 800 c 6
 600 800 l 6
 825 800 1100 581.25 1100 331.25 c 6
 1100 268.75 l 6
 1100 18.75 825 -200 600 -200 c 6
 500 -200 l 6
800 400 m 5
 650 400 l 5
 650 475 619.08203125 500 575 500 c 4
 525 500 500 450 500 375 c 6
 500 225 l 6
 500 150 525 100 575 100 c 4
 615.265625 100 650 125.385742188 650 200 c 5
 800 200 l 5
 800 125 750 0 550 0 c 4
 375 0 300 125 300 225 c 6
 300 375 l 6
 300 475 375 599.815429688 550 600 c 4
 725 600 800 475 800 400 c 5
EndSplineSet
EndChar

StartChar: ordfeminine
Encoding: 170 170 119
Width: 600
Flags: W
HStem: 400 100<205.231 294.114> 700 100<222.51 300>
VStem: 0 200<504.805 680.196> 300 200<503.304 700>
LayerCount: 2
Fore
SplineSet
500 800 m 5
 500 400 l 5
 300 400 l 6
 75 400 0 451.986328125 0 600 c 4
 0 750 75 800 300 800 c 6
 500 800 l 5
300 700 m 5
 225 700 200 675 200 600 c 4
 200 525 200 500 250 500 c 4
 297.8984375 500 300 525 300 600 c 6
 300 700 l 5
EndSplineSet
EndChar

StartChar: guillemotleft
Encoding: 171 171 120
Width: 700
Flags: W
HStem: 580 20G<180 300 480 600>
LayerCount: 2
Fore
SplineSet
300 550 m 5
 100 350 l 5
 300 150 l 5
 300 100 l 5
 200 100 l 5
 -50 350 l 5
 200 600 l 5
 300 600 l 5
 300 550 l 5
600 550 m 5
 400 350 l 5
 600 150 l 5
 600 100 l 5
 500 100 l 5
 250 350 l 5
 500 600 l 5
 600 600 l 5
 600 550 l 5
EndSplineSet
EndChar

StartChar: logicalnot
Encoding: 172 172 121
Width: 700
Flags: W
HStem: 100 300<400 600> 300 100<0 400>
VStem: 400 200<100 300>
LayerCount: 2
Fore
SplineSet
0 400 m 1x60
 600 400 l 1
 600 100 l 1
 400 100 l 1xa0
 400 300 l 1
 0 300 l 1
 0 400 l 1x60
EndSplineSet
EndChar

StartChar: registered
Encoding: 174 174 123
Width: 1200
HStem: -200 125<413.916 686.084> 0 21G<350 500> 0 21G<350 500> 500 100<500 620.43> 675 125<413.916 686.084>
VStem: 0 200<165.657 434.343> 350 150<0 150 300 500> 650 150<324.147 477.057> 900 200<165.657 434.343>
LayerCount: 2
Fore
SplineSet
600 -75 m 6x9f80
 725 -75 900 112.5 900 268.75 c 6
 900 331.25 l 6
 900 487.5 724.993164062 673.404296875 600 675 c 6
 500 675 l 6
 375 675 200 487.5 200 331.25 c 6
 200 268.75 l 6
 200 112.5 375.006835938 -73.404296875 500 -75 c 6
 600 -75 l 6x9f80
500 -200 m 6
 275 -200 0 18.75 0 268.75 c 6
 0 331.25 l 6
 0 581.25 275 800 500 800 c 6
 600 800 l 6
 825 800 1100 581.25 1100 331.25 c 6
 1100 268.75 l 6
 1100 18.75 825 -200 600 -200 c 6
 500 -200 l 6
775 75 m 5
 675 -25 l 5
 500 150 l 5
 500 0 l 5
 350 0 l 5xdf80
 350 600 l 5
 500 600 l 6
 729.16796875 601.798828125 796.416992188 526.78125 799.936523438 404.458007812 c 4
 799.978515625 402.979492188 800 401.493164062 800 400 c 4
 800 275 675 225 625 225 c 5
 775 75 l 5
500 300 m 5
 575 300 l 6
 625 300 650 350 650 400 c 4
 650 450 623.28515625 500 575 500 c 6
 500 500 l 5
 500 300 l 5
EndSplineSet
EndChar

StartChar: macron
Encoding: 175 175 124
Width: 400
Flags: W
HStem: 700 100<0 400>
LayerCount: 2
Fore
SplineSet
0 700 m 5
 0 800 l 5
 400 800 l 5
 400 700 l 5
 0 700 l 5
0 700 m 5
 0 800 l 1029
EndSplineSet
EndChar

StartChar: degree
Encoding: 176 176 125
Width: 600
Flags: W
HStem: 399.807 100<203.397 294.176> 699.807 100<193.807 306.193>
VStem: 0 175<521.293 683.253> 325 175<525.521 683.276>
LayerCount: 2
Fore
SplineSet
250 399.806640625 m 4
 75 399.806640625 0 499.807617188 0 599.806640625 c 4
 0 699.806640625 75 799.622070312 250 799.806640625 c 4
 425 799.806640625 500 699.806640625 500 599.806640625 c 4
 500 499.806640625 450 399.806640625 250 399.806640625 c 4
175 599.806640625 m 4
 175 524.807617188 216.192382812 500.70703125 250 499.806640625 c 4
 274.991210938 499.142578125 325 525.193359375 325 600 c 4
 325 674.806640625 300 699.806640625 250 699.806640625 c 4
 200 699.806640625 175 674.806640625 175 599.806640625 c 4
EndSplineSet
EndChar

StartChar: plusminus
Encoding: 177 177 126
Width: 700
Flags: W
HStem: 100 100<0 600> 500 100<0 200 400 600> 780 20G<200 400>
VStem: 200 200<300 500 600 800>
LayerCount: 2
Fore
SplineSet
200 800 m 5
 400 800 l 5
 400 600 l 5
 600 600 l 5
 600 500 l 5
 400 500 l 5
 400 300 l 5
 200 300 l 5
 200 500 l 5
 0 500 l 5
 0 600 l 5
 200 600 l 5
 200 800 l 5
0 100 m 5
 0 200 l 5
 600 200 l 5
 600 100 l 5
 0 100 l 5
EndSplineSet
EndChar

StartChar: uni00B2
Encoding: 178 178 127
Width: 500
Flags: W
HStem: 300 100<150 400> 780 20G<162.5 237.5>
VStem: 0 100<625 672.591> 275 125<594.012 690.08>
LayerCount: 2
Fore
SplineSet
0 625 m 5
 0 750 125 800 200 800 c 4
 275 800 400 750 400 650 c 4
 400 571.626953125 294.721679688 508.541015625 250 475 c 6
 150 400 l 5
 400 400 l 5
 400 300 l 5
 0 300 l 5
 0 400 l 5
 200 550 l 6
 266.666992188 600 275 625 275 650 c 4
 275 675 252.1015625 703.81640625 200 700 c 4
 125.200195312 694.520507812 100 650 100 625 c 5
 0 625 l 5
EndSplineSet
EndChar

StartChar: uni00B3
Encoding: 179 179 128
Width: 500
Flags: W
HStem: 300 100<124.62 266.708> 500 100<200 266.925> 700 100<124.739 264.908>
VStem: 0 100<427.955 475 625 673.354> 275 125<414.589 487.933 611.448 688.875>
CounterMasks: 1 e0
LayerCount: 2
Fore
SplineSet
200 500 m 5
 200 600 l 5
 250 600 275 625 275 650 c 4
 275 675 250 700 200 700 c 4
 125 700 100 650 100 625 c 5
 0 625 l 5
 0 750 125 800 200 800 c 4
 275 800 400 750 400 650 c 4
 400 600 375 575 325 550 c 5
 374.8125 533.995117188 401.97265625 503.5234375 400 450 c 4
 396.282226562 349.114257812 275 300 200 300 c 4
 125 300 -1.2724609375 354.202148438 0 475 c 5
 100 475 l 5
 100 450 125 400 200 400 c 4
 250 400 275 425 275 450 c 4
 275 475 250 500 200 500 c 5
EndSplineSet
EndChar

StartChar: acute
Encoding: 180 180 129
Width: 200
Flags: W
HStem: 625 175
VStem: 0 200
LayerCount: 2
Fore
SplineSet
125 800 m 1
 200 800 l 1
 200 725 l 1
 100 625 l 1
 0 625 l 1
 0 675 l 1
 125 800 l 1
EndSplineSet
EndChar

StartChar: mu
Encoding: 181 181 130
Width: 600
Flags: W
HStem: 0 100<206.917 285.767> 580 20G<0 175 325 500>
VStem: 0 175<-200 8.63867 132.699 600> 325 175<138.506 600>
LayerCount: 2
Fore
SplineSet
0 600 m 5
 175 600 l 5
 175 400 l 5
 175 225 l 6
 175 150 216.192382812 100.899414062 250 100 c 4
 274.991210938 99.3349609375 325 150.385742188 325 225 c 6
 325 600 l 5
 500 600 l 5
 500 225 l 6
 500 125 450 0 250 0 c 4
 222.575195312 0 197.609375 3.076171875 175 8.638671875 c 5
 175 -200 l 5
 0 -200 l 5
 0 225 l 5
 0 400 l 5
 0 600 l 5
EndSplineSet
EndChar

StartChar: paragraph
Encoding: 182 182 131
Width: 800
Flags: W
HStem: 700 100<400 500>
VStem: 0 400<436.415 663.585> 300 100<-200 300> 500 200<-200 700>
LayerCount: 2
Fore
SplineSet
300 800 m 2xb0
 700 800 l 1
 700 -200 l 1
 500 -200 l 1
 500 700 l 1
 400 700 l 1
 400 -200 l 1
 300 -200 l 1
 300 300 l 1xb0
 100 300 0 400 0 550 c 0xd0
 0 700 100 800 300 800 c 2xb0
EndSplineSet
EndChar

StartChar: cedilla
Encoding: 184 184 133
Width: 400
Flags: W
HStem: -200 200<200 300> -200 75<0 100>
VStem: 200 200<-109.46 -33.5107>
LayerCount: 2
Fore
SplineSet
150 -25 m 1x60
 150 0 l 1
 300 0 l 1
 300 0 400 -7.908203125 400 -100 c 0
 400 -200 300 -200 300 -200 c 1xa0
 0 -200 l 1
 0 -125 l 1
 100 -125 l 1
 100 -125 200 -125 200 -75 c 0
 200 -25 150 -25 150 -25 c 1x60
EndSplineSet
EndChar

StartChar: uni00B9
Encoding: 185 185 134
Width: 500
Flags: W
HStem: 300 100<0 125 275 400> 780 20G<151.667 275>
VStem: 125 150<400 600>
LayerCount: 2
Fore
SplineSet
0 300 m 5
 0 400 l 5
 125 400 l 5
 125 600 l 5
 0 600 l 5
 0 650 l 5
 175 800 l 5
 275 800 l 5
 275 400 l 5
 400 400 l 5
 400 300 l 5
 0 300 l 5
EndSplineSet
EndChar

StartChar: guillemotright
Encoding: 187 187 136
Width: 700
Flags: W
HStem: 580 20G<0 120 300 420>
LayerCount: 2
Fore
SplineSet
300 550 m 5
 300 600 l 5
 400 600 l 5
 650 350 l 5
 400 100 l 5
 300 100 l 5
 300 150 l 5
 500 350 l 5
 300 550 l 5
0 550 m 5
 0 600 l 5
 100 600 l 5
 350 350 l 5
 100 100 l 5
 0 100 l 5
 0 150 l 5
 200 350 l 5
 0 550 l 5
EndSplineSet
EndChar

StartChar: questiondown
Encoding: 191 191 140
Width: 700
Flags: W
HStem: -200 100<232.164 370.26> 400 200<232.762 367.238>
VStem: 0 200<-68.87 91.1601> 200 200<432.762 567.238> 400 200<-72.7379 50>
LayerCount: 2
Fore
SplineSet
200 300 m 5xd0
 400 300 l 5
 401.798828125 83.8076171875 200 200 200 0 c 4
 200 -50 224.614257812 -97.4560546875 300 -100 c 4
 374.95703125 -102.530273438 400 -50 400 0 c 6
 400 50 l 5
 600 50 l 5
 600 0 l 6
 598.727539062 -98.341796875 500 -200 300 -200 c 4
 175 -200 -1.2802734375 -150.380859375 0 0 c 4xe8
 1.798828125 211.319335938 200 125 200 300 c 5xd0
EndSplineSet
Refer: 83 46 S 1 0 0 1 200 400 2
EndChar

StartChar: AE
Encoding: 198 198 147
Width: 1000
Flags: W
HStem: 0 100<600 900> 200 100<200 400> 400 100<600 800> 700 100<600 900>
VStem: 0 200<0 200 300 530.383> 400 200<100 200 300 400 500 700>
LayerCount: 2
Fore
SplineSet
300 800 m 1
 400 800 l 1
 500 800 l 1
 900 800 l 1
 900 700 l 1
 600 700 l 1
 600 500 l 1
 800 500 l 1
 800 400 l 1
 600 400 l 1
 600 100 l 1
 900 100 l 1
 900 0 l 1
 600 0 l 1
 400 0 l 1
 400 200 l 1
 200 200 l 1
 200 0 l 1
 0 0 l 1
 0 425 l 2
 0 600 200 775 300 800 c 1
400 700 m 1
 300 675 200 542.810546875 200 425 c 2
 200 300 l 1
 400 300 l 1
 400 700 l 1
EndSplineSet
EndChar

StartChar: Eth
Encoding: 208 208 157
Width: 800
Flags: W
HStem: 0 100<300 415.264> 400 100<0 100 300 400> 700 100<300 415.264>
VStem: 100 200<100 400 500 700> 500 200<197.378 602.622>
LayerCount: 2
Fore
SplineSet
100 800 m 1
 300 800 l 1
 325 800 l 2
 550 800 700 675 700 475 c 2
 700 325 l 2
 700 125 550 0 325 0 c 2
 300 0 l 1
 100 0 l 1
 100 400 l 1
 0 400 l 1
 0 500 l 1
 100 500 l 1
 100 800 l 1
300 700 m 1
 300 500 l 1
 400 500 l 1
 400 400 l 1
 300 400 l 1
 300 100 l 1
 325 100 l 2
 449.993164062 101.276367188 500 200 500 325 c 2
 500 475 l 2
 500 600 450 700 325 700 c 2
 300 700 l 1
EndSplineSet
EndChar

StartChar: multiply
Encoding: 215 215 164
Width: 700
Flags: W
LayerCount: 2
Fore
SplineSet
125 650 m 1
 300 475 l 1
 475 650 l 1
 600 650 l 1
 600 575 l 1
 375 350 l 1
 600 125 l 1
 600 50 l 1
 475 50 l 1
 300 225 l 1
 125 50 l 1
 0 50 l 1
 0 125 l 1
 225 350 l 1
 0 575 l 1
 0 650 l 1
 125 650 l 1
EndSplineSet
EndChar

StartChar: Oslash
Encoding: 216 216 165
Width: 900
Flags: W
HStem: 0 100<317.12 482.884> 700 100<317.114 483.956>
VStem: 0 200<309.088 551.091> 600 200<248.909 490.912>
LayerCount: 2
Fore
SplineSet
400 800 m 4
 486.684570312 800 565.884765625 773.950195312 630.578125 730.578125 c 5
 700 800 l 5
 800 800 l 5
 800 700 l 5
 732.2421875 632.2421875 l 5
 775.1796875 572.037109375 800 500.295898438 800 425 c 6
 800 375 l 6
 800 175 625 0 400 0 c 4
 313.315429688 0 234.115234375 26.0498046875 169.421875 69.421875 c 5
 100 0 l 5
 0 0 l 5
 0 100 l 5
 67.7578125 167.7578125 l 5
 24.8203125 227.962890625 -0 299.704101562 0 375 c 6
 0 425 l 6
 0 625 175 800 400 800 c 4
400 700 m 4
 275 700 200 550 200 425 c 6
 200 375 l 6
 200 352.78515625 202.478515625 329.828125 207.076171875 307.076171875 c 5
 531.12109375 631.12109375 l 5
 497.888671875 672.421875 453.551757812 700 400 700 c 4
592.939453125 492.939453125 m 5
 269.12109375 169.12109375 l 5
 302.327148438 128.072265625 346.579101562 100.545898438 400 100 c 4
 524.993164062 101.276367188 600 250 600 375 c 6
 600 425 l 6
 600 447.1875 597.525390625 470.155273438 592.939453125 492.939453125 c 5
EndSplineSet
EndChar

StartChar: Thorn
Encoding: 222 222 171
Width: 800
Flags: W
HStem: 0 21G<0 200> 0 21G<0 200> 200 100<200 466.114> 500 100<200 466.114> 780 20G<0 200>
VStem: 0 200<0 200 300 500 600 800> 500 200<326.541 470.423>
LayerCount: 2
Fore
SplineSet
0 0 m 1xbe
 0 800 l 1
 200 800 l 1
 200 600 l 1
 450 600 l 2
 625 600 700 500 700 400 c 0
 700 300 625 200 450 200 c 2
 200 200 l 1
 200 0 l 1
 0 0 l 1xbe
200 500 m 1
 200 300 l 1
 400 300 l 2
 450 300 500 325 500 400 c 0
 500 475 448.28515625 500 400 500 c 2
 200 500 l 1
EndSplineSet
EndChar

StartChar: germandbls
Encoding: 223 223 172
Width: 700
Flags: W
HStem: 0 100<300 368.327> 400 100<300 370.102> 700 100<227.301 372.161>
VStem: 0 200<-100 673.354> 400 200<132.458 369.616> 400 175<525.234 673.354>
LayerCount: 2
Fore
SplineSet
200 625 m 2xf4
 200 -100 l 1
 0 -100 l 1
 0 625 l 2
 0 750 100 800 300 800 c 0
 500 800 575 750 575 625 c 2
 575 575 l 2xf4
 575 515.569335938 558.564453125 473.733398438 519.609375 445.873046875 c 1
 577.291015625 404.727539062 600 343.658203125 600 275 c 2
 600 225 l 2
 600 100 525 0 300 0 c 1
 300 100 l 1
 375 100 400 155.921875 400 225 c 2
 400 275 l 2xf8
 400 350 375 400 300 400 c 1
 300 500 l 1
 375 500 400 550 400 575 c 2
 400 625 l 2
 400 650 375 700 300 700 c 0
 225 700 200 650 200 625 c 2xf4
EndSplineSet
EndChar

StartChar: ae
Encoding: 230 230 176
Width: 900
Flags: W
HStem: 0 100<203.562 297.632 533.608 624.763> 300 100<226.593 300 500 650> 500 100<50.0366 303.397 516.694 632.51>
VStem: 0 200<105.469 274.097> 300 200<132.744 300> 650 150<124.836 200 400 483.796>
LayerCount: 2
Fore
SplineSet
200 600 m 0
 254.010742188 600 337.155273438 599.918945312 402.2421875 560.529296875 c 1
 440.029296875 584.625976562 488.888671875 599.935546875 550 600 c 0
 725 600 800 475 800 400 c 2
 800 300 l 1
 500 300 l 1
 500 225 l 2
 500 150 541.192382812 100.899414062 575 100 c 0
 599.991210938 99.3349609375 650 125.385742188 650 200 c 1
 800 200 l 1
 800 125 750 0 550 0 c 0
 478.767578125 0 424.109375 20.71484375 384.328125 52.01953125 c 1
 363.170898438 22.3271484375 319.862304688 0 250 0 c 0
 125 0 0 75 0 175 c 2
 0 225 l 2
 0 325 125 400.052734375 250 400 c 2
 350 400 l 1
 350 450 295.715820312 500.899414062 200 500 c 0
 100.004882812 499.060546875 50 475 50 475 c 1
 50 575 l 1
 50 575 100 600 200 600 c 0
575 500 m 0
 525 500 500 475 500 400 c 1
 650 400 l 1
 650 475 625 500 575 500 c 0
300 300 m 1
 250 300 200 275 200 225 c 2
 200 175 l 2
 200 125 200 100 250 100 c 0
 297.8984375 100 300 125 300 150 c 2
 300 225 l 1
 300 300 l 1
EndSplineSet
EndChar

StartChar: eth
Encoding: 240 240 183
Width: 600
Flags: W
HStem: 0 100<210.804 285.767> 400 100<203.397 253.998> 780 20G<80 100 410 500>
VStem: 0 175<133.252 375.18> 325 175<138.506 372.177>
LayerCount: 2
Fore
SplineSet
100 800 m 1
 100 800 168.938476562 764.630859375 249.55078125 699.775390625 c 1
 450 800 l 1
 500 800 l 1
 500 725 l 1
 321.478515625 635.740234375 l 1
 407.434570312 550.791992188 488.005859375 435.633789062 498.830078125 296.470703125 c 0
 499.583984375 289.2265625 500 282.047851562 500 275 c 2
 500 225 l 2
 500 125 450 0 250 0 c 0
 75 0 0 125 0 225 c 2
 0 275 l 2
 0 375 75 499.815429688 250 500 c 0
 251.602539062 500 253.13671875 499.915039062 254.72265625 499.89453125 c 1
 239.090820312 527.073242188 221.970703125 553.014648438 204.42578125 577.212890625 c 1
 50 500 l 1
 0 500 l 1
 0 575 l 1
 147.615234375 648.80859375 l 1
 94.5205078125 710.596679688 50 750 50 750 c 1
 100 800 l 1
250 400 m 0
 200 400 175 350 175 275 c 2
 175 225 l 2
 175 150 216.192382812 100.899414062 250 100 c 0
 274.991210938 99.3349609375 325 150.385742188 325 225 c 2
 325 275 l 2
 325 279.077148438 324.893554688 283.045898438 324.74609375 286.970703125 c 0
 324.663085938 289.065429688 324.53125 291.161132812 324.40625 293.255859375 c 0
 324.290039062 295.216796875 324.170898438 297.173828125 324.015625 299.091796875 c 0
 323.888671875 300.719726562 323.736328125 302.348632812 323.583984375 303.9765625 c 0
 317.731445312 362.57421875 293.231445312 400 250 400 c 0
EndSplineSet
EndChar

StartChar: divide
Encoding: 247 247 187
Width: 700
Flags: W
HStem: 0 200<232.762 367.238> 300 100<0 600> 500 200<232.762 367.238>
VStem: 200 200<32.7622 167.238 532.762 667.238>
CounterMasks: 1 e0
LayerCount: 2
Fore
SplineSet
0 400 m 1
 600 400 l 1
 600 300 l 1
 0 300 l 1
 0 400 l 1
200 100 m 0
 200 155.228515625 244.771484375 200 300 200 c 0
 355.228515625 200 400 155.228515625 400 100 c 0
 400 44.771484375 355.228515625 0 300 0 c 0
 244.771484375 0 200 44.771484375 200 100 c 0
200 600 m 0
 200 655.228515625 244.771484375 700 300 700 c 0
 355.228515625 700 400 655.228515625 400 600 c 0
 400 544.771484375 355.228515625 500 300 500 c 0
 244.771484375 500 200 544.771484375 200 600 c 0
EndSplineSet
EndChar

StartChar: oslash
Encoding: 248 248 188
Width: 600
Flags: W
HStem: 0 100<208.302 285.767> 500 100<201.732 299.86>
VStem: 0 175<320.588 475.18> 325 175<138.506 279.412>
LayerCount: 2
Fore
SplineSet
250 600 m 4
 308.372070312 600 355.559570312 586.044921875 392.607421875 563.796875 c 5
 425 600 l 5
 500 600 l 5
 500 475 l 5
 483.734375 456.8203125 l 5
 494.693359375 429.645507812 500 401.453125 500 375 c 6
 500 225 l 6
 500 125 450 0 250 0 c 4
 191.627929688 0 144.440429688 13.955078125 107.392578125 36.203125 c 5
 75 0 l 5
 0 0 l 5
 0 125 l 5
 16.265625 143.1796875 l 5
 5.306640625 170.354492188 0 198.546875 0 225 c 6
 0 375 l 6
 0 475 75 599.815429688 250 600 c 4
250 500 m 4
 200 500 175 450 175 375 c 6
 175 320.587890625 l 5
 305.630859375 466.587890625 l 5
 293.133789062 487.8359375 274.612304688 500 250 500 c 4
325 279.412109375 m 5
 198.083984375 137.564453125 l 5
 212.834960938 114.103515625 232.39453125 100.46875 250 100 c 4
 274.991210938 99.3349609375 325 150.385742188 325 225 c 6
 325 279.412109375 l 5
EndSplineSet
EndChar

StartChar: thorn
Encoding: 254 254 190
Width: 600
Flags: W
HStem: -0.0527344 100.053<200 258.13> 500 100<200 258.13> 780 20G<0 200>
VStem: 0 200<-200 -0.0527344 100 500 600 800> 300 200<143.011 457.168>
LayerCount: 2
Fore
SplineSet
0 -200 m 1
 0 800 l 1
 200 800 l 1
 200 600 l 1
 250 600 l 2
 425 600 500 475 500 375 c 2
 500 225 l 2
 500 125 425 0.1845703125 250 0 c 2
 200 -0.052734375 l 1
 200 -200 l 1
 0 -200 l 1
200 500 m 1
 200 100 l 1
 248.28515625 100 300 150 300 225 c 2
 300 375 l 2
 300 450 250 500 200 500 c 1
EndSplineSet
EndChar

StartChar: uni1D00
Encoding: 7424 7424 192
Width: 800
Flags: W
HStem: 0 21G<0 200 500 700> 0 21G<0 200 500 700> 200 100<200 500> 580 20G<225 475>
VStem: 0 200<0 200 300 356.837> 500 200<0 200 300 356.195>
LayerCount: 2
Fore
SplineSet
200 300 m 1x3c
 500 300 l 1
 500 350 400 450 350 500 c 1
 300 450 200 350 200 300 c 1x3c
0 0 m 1xbc
 0 300 l 2
 0 376.658203125 200 550 250 600 c 1
 450 600 l 1
 500 550 700 375 700 300 c 2
 700 0 l 1
 500 0 l 1
 500 200 l 1
 200 200 l 1
 200 0 l 1
 0 0 l 1xbc
EndSplineSet
EndChar

StartChar: uni0000
Encoding: 0 0 193
Width: 1200
HStem: -200 100<100 900> 0 200<432.762 567.238> 700 100<429.74 567.836> 900 100<100 900>
VStem: 0 100<-100 900> 200 200<550 672.738> 400 200<32.7622 167.238> 600 200<508.885 668.87> 900 100<-100 900>
LayerCount: 2
Fore
SplineSet
0 1000 m 1xf880
 1000 1000 l 1
 1000 -200 l 1
 0 -200 l 1
 0 1000 l 1xf880
100 900 m 1
 100 -100 l 1
 900 -100 l 1
 900 900 l 1
 100 900 l 1
EndSplineSet
Refer: 100 63 N 1 0 0 1 200 0 2
EndChar

StartChar: uni1D04
Encoding: 7428 7428 196
Width: 800
Flags: W
HStem: 0 100<300.745 500.128> 500 100<295.938 497.714>
VStem: 0 200<201.222 398.932> 600 100<169.659 200 400 430.178>
LayerCount: 2
Fore
SplineSet
700 200 m 5
 700 100 l 5
 634.33984375 58.9169921875 550 0 400 0 c 4
 208.072265625 0 0 131.25 0 300 c 4
 0 468.75 200 600 400 600 c 4
 545.833007812 600 634.501953125 541.52734375 700 500 c 5
 700 400 l 5
 600 400 l 5
 600 425 475 500 400 500 c 4
 275 500 200 412.5 200 300 c 4
 200 187.5 275.010742188 101.421875 400 100 c 4
 483.84765625 99.0458984375 600 175 600 200 c 5
 700 200 l 5
EndSplineSet
EndChar

StartChar: uni1D05
Encoding: 7429 7429 197
Width: 800
Flags: W
HStem: 0 100<200 387.912> 500 100<200 387.912>
VStem: 0 200<100 500> 500 200<204.26 395.858>
LayerCount: 2
Fore
SplineSet
275 600 m 2
 500 600 700 500 700 300 c 0
 700 100 500 0 275 0 c 2
 200 0 l 1
 0 0 l 1
 0 600 l 1
 200 600 l 1
 275 600 l 2
275 100 m 2
 399.993164062 101.276367188 500 175 500 300 c 0
 500 425 400 500 275 500 c 2
 200 500 l 1
 200 100 l 1
 275 100 l 2
EndSplineSet
EndChar

StartChar: uni1D07
Encoding: 7431 7431 198
Width: 700
Flags: W
HStem: 0 100<200 600> 300 100<200 500> 500 100<200 600>
VStem: 0 200<100 300 400 500>
LayerCount: 2
Fore
SplineSet
0 600 m 1
 600 600 l 1
 600 500 l 1
 200 500 l 1
 200 400 l 1
 500 400 l 1
 500 300 l 1
 200 300 l 1
 200 100 l 1
 600 100 l 1
 600 0 l 1
 0 0 l 1
 0 600 l 1
EndSplineSet
EndChar

StartChar: uni026A
Encoding: 618 618 226
Width: 300
Flags: W
HStem: 0 21G<0 200> 0 21G<0 200> 580 20G<0 200>
VStem: 0 200<0 600>
LayerCount: 2
Fore
SplineSet
0 600 m 1xb0
 200 600 l 1
 200 0 l 1
 0 0 l 1
 0 600 l 1xb0
EndSplineSet
EndChar

StartChar: uni1D1C
Encoding: 7452 7452 231
Width: 800
Flags: W
HStem: 0 100<284.406 415.594> 580 20G<0 200 500 700>
VStem: 0 200<206.488 600> 500 200<206.488 600>
LayerCount: 2
Fore
SplineSet
0 600 m 1
 200 600 l 1
 200 300 l 2
 200 212.5 262.5 100 350 100 c 0
 437.5 100 500 212.5 500 300 c 2
 500 600 l 1
 700 600 l 1
 700 325 l 2
 700 225 624.999023438 0 350 0 c 0
 75.0009765625 0 0 225 0 325 c 2
 0 600 l 1
EndSplineSet
EndChar

StartChar: uni0274
Encoding: 628 628 237
Width: 800
Flags: W
HStem: -0 21G<0 200 500 700> -0 21G<0 200 500 700> 580 20G<0 170 500 700>
VStem: 0 200<0 350> 500 200<0 50 250 600>
LayerCount: 2
Fore
SplineSet
150 600 m 1xb8
 500 250 l 1
 500 600 l 1
 700 600 l 1
 700 -0 l 1
 500 -0 l 1
 500 50 l 1
 200 350 l 1
 200 -0 l 1
 0 -0 l 1
 0 600 l 1
 150 600 l 1xb8
EndSplineSet
EndChar

StartChar: uni028F
Encoding: 655 655 238
Width: 900
Flags: W
HStem: 0 21G<300 500> 0 21G<300 500> 580 20G<0 200 600 800>
VStem: 300 200<0 225>
LayerCount: 2
Fore
SplineSet
200 600 m 1xb0
 200 505.71875 400 300 400 300 c 1
 400 300 600 505.71875 600 600 c 1
 800 600 l 1
 800 500 500 225 500 225 c 1
 500 0 l 1
 300 0 l 1
 300 225 l 1
 300 225 0 506.920898438 0 600 c 1
 200 600 l 1xb0
EndSplineSet
EndChar

StartChar: uni1D0F
Encoding: 7439 7439 241
Width: 900
Flags: W
HStem: 0 100<294.254 505.746> 500 100<289.442 510.558>
VStem: 0 200<190.317 409.832> 600 200<190.317 409.832>
LayerCount: 2
Fore
SplineSet
400 600 m 0
 625 600 800 500 800 300 c 0
 800 100 625 0 400 0 c 0
 175 0 0 100 0 300 c 0
 0 500 175 600 400 600 c 0
400 500 m 0
 275 500 200 425 200 300 c 0
 200 175 275.006835938 101.276367188 400 100 c 0
 524.993164062 101.276367188 600 175 600 300 c 0
 600 425 525 500 400 500 c 0
EndSplineSet
EndChar

StartChar: dcroat
Encoding: 273 273 249
Width: 700
Flags: W
HStem: 0 100<241.87 300> 400 100<241.87 300> 600 100<100 300 500 600> 780 20G<300 500>
VStem: 0 200<142.832 356.989> 300 200<100 400 500.053 600 700 800>
LayerCount: 2
Fore
SplineSet
300 800 m 5
 500 800 l 5
 500 700 l 5
 600 700 l 5
 600 600 l 5
 500 600 l 5
 500 0 l 5
 250 0 l 6
 75 0 0 125 0 225 c 6
 0 275 l 6
 0 375 75 499.815429688 250 500 c 6
 300 500.052734375 l 5
 300 600 l 5
 100 600 l 5
 100 700 l 5
 300 700 l 5
 300 800 l 5
300 400 m 5
 251.71484375 400 200 350 200 275 c 6
 200 225 l 6
 200 150 250 100 300 100 c 5
 300 400 l 5
EndSplineSet
EndChar

StartChar: fraction
Encoding: 8260 8260 250
Width: 1000
Flags: W
LayerCount: 2
Fore
SplineSet
275 100 m 5
 200 100 l 5
 200 175 l 5
 725 700 l 5
 800 700 l 5
 800 625 l 5
 275 100 l 5
EndSplineSet
EndChar

StartChar: uni2070
Encoding: 8304 8304 251
Width: 600
Flags: W
HStem: 700 100<201.816 298.184>
VStem: 0 175<525.347 674.248> 325 175<526.216 674.276>
LayerCount: 2
Fore
SplineSet
250 400 m 0
 75 400 0 500 0 600 c 0
 0 700 75 799.815429688 250 800 c 0
 425 800 500 700 500 600 c 0
 500 500 450 400 250 400 c 0
175 600 m 0
 175 525 226.092773438 497.760742188 250 500 c 0
 273.530273438 502.203125 325 525.385742188 325 600.193359375 c 0
 325 675 275 700 250 700 c 0
 225 700 175 675 175 600 c 0
EndSplineSet
EndChar

StartChar: uni2074
Encoding: 8308 8308 256
Width: 500
Flags: W
HStem: 400 100<100 175 325 400> 780 20G<230 325>
VStem: 175 150<300 400> 200 125<500 625>
LayerCount: 2
Fore
SplineSet
200 500 m 5xd0
 200 625 l 5
 101.66796875 526.66796875 l 5
 100 500 l 5
 200 500 l 5xd0
175 300 m 5xe0
 175 400 l 5xe0
 0 400 l 5
 0 550 l 5
 250 800 l 5
 325 800 l 5
 325 500 l 5xd0
 400 500 l 5
 400 400 l 5
 325 400 l 5
 325 300 l 5
 175 300 l 5xe0
EndSplineSet
EndChar

StartChar: OE
Encoding: 338 338 265
Width: 1100
Flags: W
HStem: 0 100<318.213 499.945 700 1000> 400 100<700 900> 700 100<318.213 500 700 1000>
VStem: 0 200<248.909 551.091> 500 200<100 400 500 700>
LayerCount: 2
Fore
SplineSet
400 800 m 6
 500 800 l 5
 1000 800 l 5
 1000 700 l 5
 700 700 l 5
 700 500 l 5
 900 500 l 5
 900 400 l 5
 700 400 l 5
 700 100 l 5
 1000 100 l 5
 1000 0 l 5
 500 0 l 5
 400 0 l 6
 175 0 0 175 0 375 c 6
 0 425 l 6
 0 625 175 800 400 800 c 6
400 700 m 6
 275 700 200 550 200 425 c 6
 200 375 l 6
 200 250 275.006835938 101.276367188 400 100 c 4
 424.859375 100.25390625 500 100 500 100 c 5
 500 700 l 5
 400 700 l 6
EndSplineSet
EndChar

StartChar: oe
Encoding: 339 339 266
Width: 900
Flags: W
HStem: 0 100<210.804 289.354 533.183 624.763> 300 100<500 650> 500 100<201.732 299.224 516.01 632.51>
VStem: 0 175<133.252 475.18> 325 175<138.506 300 400 475.18> 650 150<124.836 200 400 483.796>
LayerCount: 2
Fore
SplineSet
250 600 m 4
 314.467773438 600 365.3203125 583.002929688 403.896484375 556.57421875 c 5
 438.177734375 582.950195312 485.600585938 599.931640625 550 600 c 4
 725 600 800 475 800 400 c 6
 800 300 l 5
 500 300 l 5
 500 225 l 6
 500 150 541.192382812 100.899414062 575 100 c 4
 599.991210938 99.3349609375 650 125.385742188 650 200 c 5
 800 200 l 5
 800 125 750 0 550 0 c 4
 488.77734375 0 442.8984375 15.33203125 409.0625 39.5078125 c 5
 371.529296875 15.33203125 319.969726562 0 250 0 c 4
 75 0 0 125 0 225 c 6
 0 375 l 6
 0 475 75 599.815429688 250 600 c 4
250 500 m 4
 200 500 175 450 175 375 c 6
 175 225 l 6
 175 150 216.192382812 100.899414062 250 100 c 4
 274.991210938 99.3349609375 325 150.385742188 325 225 c 6
 325 375 l 6
 325 450 300 500 250 500 c 4
575 500 m 4
 525 500 500 475 500 400 c 5
 650 400 l 5
 650 475 625 500 575 500 c 4
EndSplineSet
EndChar

StartChar: Eng
Encoding: 330 330 267
Width: 800
Flags: W
HStem: 0 21G<0 200> 0 21G<0 200> 700 100<200 396.143>
VStem: 0 200<0 700> 500 200<-66.0156 581.229>
LayerCount: 2
Fore
SplineSet
300 800.02734375 m 2xb8
 575 800.099609375 700 725 700 425 c 2
 700 400 l 1
 700 199.974609375 l 1
 700 0 l 2
 700 -200 400 -200 400 -200 c 1
 400 -100 l 1
 400 -100 500 -100 500 0 c 2x78
 500 199.974609375 l 1
 500 400 l 1
 500 425 l 2
 500 625 425 700 300 700 c 2
 200 700 l 1
 200 0 l 1
 0 0 l 1
 0 800 l 1
 200 800 l 1
 300 800.02734375 l 2xb8
EndSplineSet
EndChar

StartChar: eng
Encoding: 331 331 268
Width: 600
Flags: W
HStem: 0 21G<0 200> 0 21G<0 200> 500 100.053<200 258.13>
VStem: 0 200<0 500> 300 200<-66.0156 456.989>
LayerCount: 2
Fore
SplineSet
200 600.052734375 m 5xb8
 250 600 l 6
 425 599.815429688 500 475 500 375 c 6
 500 0 l 6
 500 -200 200 -200 200 -200 c 5
 200 -100 l 5
 200 -100 300 -100 300 0 c 6x78
 300 375 l 6
 300 450 248.28515625 500 200 500 c 5
 200 0 l 5
 0 0 l 5
 0 600 l 5
 200 600.052734375 l 5xb8
EndSplineSet
EndChar

StartChar: kgreenlandic
Encoding: 312 312 269
Width: 600
Flags: W
HStem: 0 21G<0 200 405 500> 0 21G<0 200 405 500> 580 20G<0 200 330 500>
VStem: 0 200<0 225 450 600>
LayerCount: 2
Fore
SplineSet
0 600 m 1xb0
 200 600 l 1
 200 450 l 1
 350 600 l 1
 500 600 l 1
 500 525 l 1
 312.5 337.5 l 1
 500 150 l 1
 500 0 l 1
 425 0 l 1
 200 225 l 1
 200 0 l 1
 0 0 l 1
 0 600 l 1xb0
EndSplineSet
EndChar

StartChar: Lslash
Encoding: 321 321 270
Width: 900
Flags: W
HStem: 0 100<400 800> 780 20G<200 400>
VStem: 200 200<100 300 500 800>
LayerCount: 2
Fore
SplineSet
800 0 m 1
 200 0 l 1
 200 300 l 1
 50 225 l 1
 0 225 l 1
 0 300 l 1
 200 400 l 1
 200 800 l 1
 400 800 l 1
 400 500 l 1
 550 575 l 1
 600 575 l 1
 600 500 l 1
 400 400 l 1
 400 100 l 1
 800 100 l 1
 800 0 l 1
EndSplineSet
EndChar

StartChar: lslash
Encoding: 322 322 271
Width: 700
Flags: W
HStem: 0 21G<200 400> 0 21G<200 400> 780 20G<200 400>
VStem: 200 200<0 300 500 800>
LayerCount: 2
Fore
SplineSet
200 800 m 1xb0
 400 800 l 1
 400 500 l 1
 550 575 l 1
 600 575 l 1
 600 500 l 1
 400 400 l 1
 400 0 l 1
 200 0 l 1
 200 300 l 1
 50 225 l 1
 0 225 l 1
 0 300 l 1
 200 400 l 1
 200 800 l 1xb0
EndSplineSet
EndChar

StartChar: IJ
Encoding: 306 306 274
Width: 700
Flags: W
HStem: 0 100<232.368 367.632> 780 20G<0 200 400 600>
VStem: 0 200<133.252 225 300 800> 400 200<133.252 800>
LayerCount: 2
Fore
SplineSet
400 225 m 6
 400 800 l 5
 600 800 l 5
 600 225 l 6
 600 125 550 0 300 0 c 4
 50 0 0 125 0 225 c 5
 200 225 l 5
 200 150 225 100 300 100 c 4
 375 100 400 150 400 225 c 6
0 300 m 5
 0 800 l 5
 200 800 l 5
 200 300 l 5
 0 300 l 5
EndSplineSet
EndChar

StartChar: longs
Encoding: 383 383 275
Width: 500
Flags: W
HStem: 0 21G<0 200> 0 21G<0 200> 700 100<218.353 399.957>
VStem: 0 200<0 682.15>
LayerCount: 2
Fore
SplineSet
0 0 m 5xb0
 0 600 l 6
 0 700 75 800 250 800 c 4
 349.556640625 800 400 775 400 775 c 5
 400 675 l 5
 400 675 341.663085938 702.543945312 275 700 c 4
 225.036132812 698.092773438 200 675 200 600 c 6
 200 0 l 5
 0 0 l 5xb0
EndSplineSet
EndChar

StartChar: lacute
Encoding: 314 314 276
Width: 300
Flags: W
HStem: 0 21G<0 200> 0 21G<0 200> 580 20G<0 200> 625 175
VStem: 0 200<0 600>
LayerCount: 2
Fore
SplineSet
0 600 m 1xb8
 200 600 l 1
 200 0 l 1
 0 0 l 1
 0 600 l 1xb8
EndSplineSet
Refer: 129 180 S 1 0 0 1 0 0 2
EndChar

StartChar: jcircumflex
Encoding: 309 309 277
Width: 500
Flags: W
HStem: -200 100<0.0425365 181.647> 580 20G<200 400> 625 175
VStem: 100 300 200 200<-82.1503 600>
LayerCount: 2
Fore
SplineSet
200 600 m 1xe8
 400 600 l 1
 400 0 l 2
 400 -100 325 -200 150 -200 c 0
 50.443359375 -200 0 -175 0 -175 c 1
 0 -75 l 1
 0 -75 58.3369140625 -102.543945312 125 -100 c 0
 174.963867188 -98.0927734375 200 -75 200 0 c 2
 200 600 l 1xe8
EndSplineSet
Refer: 404 710 N 1 0 0 1 100 0 2
EndChar

StartChar: Hbar
Encoding: 294 294 278
Width: 1000
Flags: W
HStem: 0 21G<100 300 600 800> 0 21G<100 300 600 800> 400 100<300 600> 600 100<0 100 300 600 800 900> 780 20G<100 300 600 800>
VStem: 100 200<0 400 500 600 700 800> 600 200<0 400 500 600 700 800>
LayerCount: 2
Fore
SplineSet
100 800 m 1xbe
 300 800 l 1
 300 700 l 1
 600 700 l 1
 600 800 l 1
 800 800 l 1
 800 700 l 1
 900 700 l 1
 900 600 l 1
 800 600 l 1
 800 0 l 1
 600 0 l 1
 600 400 l 1
 300 400 l 1
 300 0 l 1
 100 0 l 1
 100 600 l 1
 0 600 l 1
 0 700 l 1
 100 700 l 1
 100 800 l 1xbe
300 600 m 1
 300 500 l 1
 600 500 l 1
 600 600 l 1
 300 600 l 1
EndSplineSet
EndChar

StartChar: hbar
Encoding: 295 295 279
Width: 700
Flags: W
HStem: 0 21G<100 300 400 600> 0 21G<100 300 400 600> 399.947 100.053<300 358.13> 600 100<0 100 300 500> 780 20G<100 300>
VStem: 100 200<0 399.947 500 600 700 800> 400 200<0 356.936>
LayerCount: 2
Fore
SplineSet
100 800 m 1xbe
 300 800 l 1
 300 700 l 1
 500 700 l 1
 500 600 l 1
 300 600 l 1
 300 500 l 1
 350 499.947265625 l 2
 525 499.762695312 600 374.947265625 600 274.947265625 c 2
 600 0 l 1
 400 0 l 1
 400 274.947265625 l 2
 400 349.947265625 348.28515625 399.947265625 300 399.947265625 c 1
 300 0 l 1
 100 0 l 1
 100 600 l 1
 0 600 l 1
 0 700 l 1
 100 700 l 1
 100 800 l 1xbe
EndSplineSet
EndChar

StartChar: Tbar
Encoding: 358 358 280
Width: 700
Flags: W
HStem: 0 21G<200 400> 0 21G<200 400> 300 100<50 200 400 550> 700 100<0 200 400 600>
VStem: 200 200<0 300 400 700>
LayerCount: 2
Fore
SplineSet
0 800 m 1xb8
 600 800 l 1
 600 700 l 1
 400 700 l 1
 400 400 l 1
 550 400 l 1
 550 300 l 1
 400 300 l 1
 400 0 l 1
 200 0 l 1
 200 300 l 1
 50 300 l 1
 50 400 l 1
 200 400 l 1
 200 700 l 1
 0 700 l 1
 0 800 l 1xb8
EndSplineSet
EndChar

StartChar: tbar
Encoding: 359 359 281
Width: 600
Flags: W
HStem: 0 100<318.353 474.976> 300 100<0 100 300 400> 500 100<300 400>
VStem: 100 200<117.85 300 400 500 600 700>
LayerCount: 2
Fore
SplineSet
100 700 m 5
 300 700 l 5
 300 600 l 5
 400 600 l 5
 400 500 l 5
 300 500 l 5
 300 400 l 5
 400 400 l 5
 400 300 l 5
 300 300 l 5
 300 200 l 6
 300 125 325.036132812 101.907226562 375 100 c 4
 441.663085938 97.4560546875 475 125 475 125 c 5
 475 25 l 5
 475 25 449.556640625 0 350 0 c 4
 175 0 100 100 100 200 c 6
 100 300 l 5
 0 300 l 5
 0 400 l 5
 100 400 l 5
 100 700 l 5
EndSplineSet
EndChar

StartChar: uni0326
Encoding: 806 806 285
Width: 200
Flags: W
HStem: -200 50<25 47.9559>
VStem: 0 200<-117.399 -43.3415>
LayerCount: 2
Fore
SplineSet
25 -200 m 1
 -0 -150 l 1
 50 -150 50 -125 50 -125 c 1
 50 -125 0 -125 0 -75 c 0
 0 -50 50 -25 100 -25 c 0
 150 -25 200 -50 200 -75 c 0
 200 -150 125 -200 25 -200 c 1
EndSplineSet
EndChar

StartChar: uni1D21
Encoding: 7457 7457 317
Width: 1200
Flags: W
HStem: 0 21G<240 360 690 810> 0 21G<240 360 690 810> 580 20G<0 160 440 610 890 1050>
LayerCount: 2
Fore
SplineSet
0 600 m 1xa0
 150 600 l 1
 300 300 l 1
 450 600 l 1
 600 600 l 1
 750 300 l 1
 900 600 l 1
 1050 600 l 1
 1050 500 l 1
 800 0 l 1
 700 0 l 1
 525 350 l 1
 350 0 l 1
 250 0 l 1
 0 500 l 1
 0 600 l 1xa0
EndSplineSet
EndChar

StartChar: uni1D22
Encoding: 7458 7458 318
Width: 800
Flags: W
HStem: 0 125<300 700> 475 125<0 425>
LayerCount: 2
Fore
SplineSet
-0 600 m 1
 700 600 l 1
 700 525 l 1
 300 125 l 1
 700 125 l 1
 700 0 l 1
 -0 0 l 1
 0 50 l 1
 425 475 l 1
 -0 475 l 1
 -0 600 l 1
EndSplineSet
EndChar

StartChar: uni1D1B
Encoding: 7451 7451 323
Width: 700
Flags: W
HStem: 0 21G<200 400> 0 21G<200 400> 500 100<0 200 400 600>
VStem: 200 200<0 500>
LayerCount: 2
Fore
SplineSet
-0 600 m 1xb0
 600 600 l 1
 600 500 l 1
 400 500 l 1
 400 0 l 1
 200 0 l 1
 200 500 l 1
 -0 500 l 1
 -0 600 l 1xb0
EndSplineSet
EndChar

StartChar: uniA731
Encoding: 42801 42801 327
Width: 700
Flags: W
HStem: 0 100<213.574 367.742> 500 100<232.258 386.426>
VStem: 0 200<113.615 150 368.121 470.845> 400 200<129.223 235.376 450 485.401>
LayerCount: 2
Fore
SplineSet
0 400 m 0
 0 550.385742188 175 600 300 600 c 0
 500 600 600 500 600 450 c 1
 400 450 l 1
 400 475 374.95703125 502.530273438 300 500 c 0
 224.614257812 497.456054688 200 450 200 400 c 0
 200 300 597.456054688 405.860351562 600 200 c 0
 600 50 425 0 300 0 c 0
 100 0 0 97.4560546875 0 150 c 1
 200 150 l 1
 200 125 225.04296875 97.4697265625 300 100 c 0
 375.385742188 102.543945312 400 150 400 200 c 0
 400 300 0 225 0 400 c 0
EndSplineSet
EndChar

StartChar: uniA731
Encoding: 42801 42801 328
Width: 700
Flags: W
HStem: 0 100<129.783 388.992> 500 100<213.146 469.966>
VStem: -0 200<394.18 485.429> 0 75<138.745 175> 400 200<114.401 205.82> 525 75<425 459.75>
LayerCount: 2
Fore
SplineSet
300 600 m 0xe8
 458.686523438 600 517.275390625 557.514648438 600 506.25 c 1
 600 425 l 1
 525 425 l 1
 525 475 394.08203125 501.272460938 300 500 c 0
 224.578125 498.98046875 200 475 200 450 c 0xe4
 200 300 600 375 600 150 c 0
 600 37.5 425 0 300 0 c 0
 150 0 82.68359375 41.7705078125 -0 93.75 c 1
 0 175 l 1
 75 175 l 1xd8
 75 125 200 100 300 100 c 0
 375.41015625 100 400 125 400 150 c 0
 400 300 -0 225 -0 450 c 0
 -0 562.7890625 175 600 300 600 c 0xe8
EndSplineSet
EndChar

StartChar: uni0280
Encoding: 640 640 332
Width: 700
Flags: W
HStem: 0 21G<0 200 455 600> 0 21G<0 200 455 600> 200 100<200 275> 500 100<200 363.135>
VStem: 0 200<0 200 300 500> 400 200<332.881 463.933>
LayerCount: 2
Fore
SplineSet
0 600 m 1xbc
 200 600 l 1
 300 600 l 2
 475 600 600 550 600 400 c 0
 600 300.270507812 544.701171875 244.783203125 456.232421875 218.767578125 c 1
 600 75 l 1
 600 0 l 1
 475 0 l 1
 275 200 l 1
 200 200 l 1
 200 0 l 1
 0 0 l 1
 0 600 l 1xbc
200 500 m 1
 200 300 l 1
 250 300 l 2
 300 300 400 300 400 400 c 0
 400 493.638671875 300 500 250 500 c 2
 200 500 l 1
EndSplineSet
EndChar

StartChar: uni0262
Encoding: 610 610 336
Width: 900
Flags: W
HStem: 0 75<307.013 509.969> 200 100<400 600> 525 75<307.077 505.999>
VStem: 0 200<200.376 399.634> 600 200<148.967 200 400 450.177>
LayerCount: 2
Fore
SplineSet
600 200 m 1
 400 200 l 1
 400 300 l 1
 800 300 l 1
 800 225 l 2
 800 150 725 0 400 0 c 0
 200 0 0 131.25 0 300 c 0
 0 468.75 200.193359375 598.262695312 400 600 c 0
 671.3984375 602.360351562 798.727539062 473.756835938 800 400 c 1
 600 400 l 1
 600 437.5 525 525 400 525 c 0
 275 525 200 412.5 200 300 c 0
 200 187.5 275.006835938 75.95703125 400 75 c 0
 524.556640625 74.0458984375 600 162.5 600 200 c 1
EndSplineSet
EndChar

StartChar: uni029C
Encoding: 668 668 341
Width: 800
Flags: W
HStem: 0 21G<0 200 500 700> 0 21G<0 200 500 700> 300 100<200 500> 580 20G<0 200 500 700>
VStem: 0 200<0 300 400 600> 500 200<0 300 400 600>
LayerCount: 2
Fore
SplineSet
0 600 m 1xbc
 200 600 l 1
 200 400 l 1
 500 400 l 1
 500 600 l 1
 700 600 l 1
 700 0 l 1
 500 0 l 1
 500 300 l 1
 200 300 l 1
 200 0 l 1
 0 0 l 1
 0 600 l 1xbc
EndSplineSet
EndChar

StartChar: uni1D0A
Encoding: 7434 7434 343
Width: 600
Flags: W
HStem: 0 100<215.218 284.782> 500 100<200 300>
VStem: 300 200<113.081 500>
LayerCount: 2
Fore
SplineSet
200 600 m 1
 500 600 l 1
 500 200 l 2
 500 100 444.024414062 -2.5439453125 250 0 c 0
 55.9755859375 2.5439453125 0 100 0 200 c 1
 200 200 l 1
 200 125 225 100 250 100 c 0
 275 100 300 125 300 200 c 2
 300 500 l 1
 200 500 l 1
 200 600 l 1
EndSplineSet
EndChar

StartChar: uni029F
Encoding: 671 671 344
Width: 700
Flags: W
HStem: 0 100<200 600> 580 20G<0 200>
VStem: 0 200<100 600>
LayerCount: 2
Fore
SplineSet
0 600 m 1
 200 600 l 1
 200 100 l 1
 600 100 l 1
 600 0 l 1
 0 0 l 1
 0 600 l 1
EndSplineSet
EndChar

StartChar: uni1D18
Encoding: 7448 7448 346
Width: 700
VWidth: 1100
Flags: W
HStem: 0 21G<0 200> 0 21G<0 200> 200 100<200 363.135> 500 100<200 363.135>
VStem: 0 200<0 200 300 500> 400 200<331.88 463.933>
LayerCount: 2
Fore
SplineSet
0 600 m 1xbc
 200 600 l 1
 300 600 l 2
 475 600 600 550 600 400 c 0
 600 250 475 200 300 200 c 2
 200 200 l 1
 200 0 l 1
 0 0 l 1
 0 600 l 1xbc
250 500 m 2
 200 500 l 1
 200 300 l 1
 250 300 l 2
 300 300 400 300 400 400 c 0
 400 493.639648438 300 500 250 500 c 2
EndSplineSet
EndChar

StartChar: colonmonetary
Encoding: 8353 8353 347
Width: 900
Flags: W
HStem: 0 100<400 507.121> 780 20G<439.412 500 639.412 700>
VStem: 0 200<327.803 481.734>
LayerCount: 2
Fore
SplineSet
450 800 m 1
 500 800 l 1
 500 700 l 1
 496.87109375 693.7421875 l 1
 528.5234375 689.474609375 557.475585938 683.123046875 583.943359375 675.2265625 c 1
 650 800 l 1
 700 800 l 1
 700 700 l 1
 669.92578125 639.8515625 l 1
 757.68359375 591.833984375 799.266601562 524.63671875 800 475 c 1
 600 475 l 1
 600 480.489257812 598.813476562 486.569335938 596.501953125 493.00390625 c 1
 400 100 l 1
 524.999023438 100 600 181.25 600 225 c 1
 800 225 l 1
 798.727539062 138.951171875 674.999023438 0 400 0 c 0
 383.454101562 0 367.21875 0.923828125 351.263671875 2.52734375 c 1
 300 -100 l 1
 200 -100 l 1
 200 -50 l 1
 240.91796875 27.291015625 l 1
 218.759765625 35.2734375 197.716796875 44.87890625 177.931640625 55.86328125 c 1
 100 -100 l 1
 0 -100 l 1
 0 -50 l 1
 90.705078125 121.33203125 l 1
 33.7783203125 178.633789062 0 251.262695312 0 328.125 c 2
 0 371.875 l 2
 0 546.09765625 173.469726562 698.586914062 397.025390625 699.9375 c 1
 450 800 l 1
447.86328125 595.7265625 m 1
 243.32421875 186.650390625 l 1
 257.750976562 165.397460938 275.500976562 146.670898438 296.4375 132.16015625 c 1
 526.69140625 567.083984375 l 1
 504.765625 579.9140625 478.374023438 590.278320312 447.86328125 595.7265625 c 1
338.564453125 589.509765625 m 1
 250.860351562 558.241210938 200 461.913085938 200 371.875 c 2
 200 328.125 l 2
 200 328.017578125 200.013671875 327.91015625 200.013671875 327.802734375 c 1
 338.564453125 589.509765625 l 1
EndSplineSet
EndChar

StartChar: uni20A2
Encoding: 8354 8354 348
Width: 800
Flags: W
HStem: 0 21G<287.5 467.506> 0 21G<287.5 467.506> 425 100<518.353 699.957> 600 21G<558.982 700> 700 100<317.114 496.251>
VStem: 0 200<248.909 551.091> 300 200<137.766 407.15> 600 100<204.027 275>
LayerCount: 2
Fore
SplineSet
400 800 m 0xbf
 535.65625 800 634.501953125 757.01171875 699.99609375 701.642578125 c 1
 700 600 l 1
 575 600 l 1
 542.96484375 650.889648438 481.583984375 700 400 700 c 0
 275 700 200 550 200 425 c 2
 200 375 l 2
 200 288.268554688 236.13671875 190.161132812 300 137.765625 c 1
 300 325 l 2
 300 425 375 525 550 525 c 0
 649.556640625 525 700 500 700 500 c 1
 700 400 l 1
 700 400 641.663085938 427.543945312 575 425 c 0
 525.036132812 423.092773438 500 400 500 325 c 2
 500 128.994140625 l 1
 563.727539062 169.065429688 600 240.341796875 600 275 c 1
 700 275 l 1
 699.52734375 96.958984375 l 1
 633.8671875 42.181640625 535.01171875 0 400 0 c 0
 175 0 0 175 0 375 c 2
 0 425 l 2
 0 625 175 800 400 800 c 0xbf
EndSplineSet
EndChar

StartChar: franc
Encoding: 8355 8355 349
Width: 800
Flags: W
HStem: 0 21G<100 300> 0 21G<100 300> 200 100<0 100 300 500> 400 100<300 600> 700 100<300 700>
VStem: 100 200<0 200 300 400 500 700>
LayerCount: 2
Fore
SplineSet
100 800 m 1xbc
 700 800 l 1
 700 700 l 1
 300 700 l 1
 300 500 l 1
 600 500 l 1
 600 400 l 1
 300 400 l 1
 300 300 l 1
 500 300 l 1
 500 200 l 1
 300 200 l 1
 300 0 l 1
 100 0 l 1
 100 200 l 1
 0 200 l 1
 0 300 l 1
 100 300 l 1
 100 800 l 1xbc
EndSplineSet
EndChar

StartChar: lira
Encoding: 8356 8356 350
Width: 800
Flags: W
HStem: 0 100<0 100 300 700> 200 100<0 100 300 500> 400 100<0 100.012 300 500> 700 100<330.899 463.212>
VStem: 100 200<100 200 300 400 500 668.109> 500.031 200<550 662.891>
LayerCount: 2
Fore
SplineSet
400.03125 800 m 0
 625.03125 800 700.03125 725 700.03125 550 c 1
 500.03125 550 l 1
 500.03125 675 450.03125 700 400.03125 700 c 0
 350.03125 700 297.456054688 675 300 575 c 2
 300 500 l 1
 500 500 l 1
 500 400 l 1
 300 400 l 1
 300 300 l 1
 500 300 l 1
 500 200 l 1
 300 200 l 1
 300 100 l 1
 700 100 l 1
 700 0 l 1
 0 0 l 1
 0 100 l 1
 100 100 l 1
 100 200 l 1
 0 200 l 1
 0 300 l 1
 100 300 l 1
 100.01171875 400 l 1
 0 400 l 1
 0 500 l 1
 100.0234375 500 l 1
 100.03125 575 l 2
 100 725 175.03125 800 400.03125 800 c 0
EndSplineSet
EndChar

StartChar: uni20A6
Encoding: 8358 8358 351
Width: 1000
Flags: W
HStem: 0 21G<100 300 600 800> 0 21G<100 300 600 800> 300 100<0 100 300 450 800 900> 500 100<0 100 550 600 800 900> 780 20G<100 270 600 800>
VStem: 100 200<0 300 400 500> 600 200<0 250 450 500 600 800>
LayerCount: 2
Fore
SplineSet
100 800 m 1xbe
 250 800 l 1
 450 600 l 1
 600 600 l 1
 600 800 l 1
 800 800 l 1
 800 600 l 1
 900 600 l 1
 900 500 l 1
 800 500 l 1
 800 400 l 1
 900 400 l 1
 900 300 l 1
 800 300 l 1
 800 0 l 1
 600 0 l 1
 600 250 l 1
 550 300 l 1
 300 300 l 1
 300 0 l 1
 100 0 l 1
 100 300 l 1
 0 300 l 1
 0 400 l 1
 100 400 l 1
 100 500 l 1
 0 500 l 1
 0 600 l 1
 100 600 l 1
 100 800 l 1xbe
300 500 m 1
 300 400 l 1
 450 400 l 1
 350 500 l 1
 300 500 l 1
550 500 m 1
 600 450 l 1
 600 500 l 1
 550 500 l 1
EndSplineSet
EndChar

StartChar: uni20A5
Encoding: 8357 8357 352
Width: 900
Flags: W
HStem: -0.0273438 20.9746G<0 200 600 800> -0.0273438 20.9746G<0 200 600 800> 499.973 100<200 258.801>
VStem: 0 200<-0.0273438 499.973> 300 200<150 350> 600 200<-0.0527344 457.285>
CounterMasks: 1 1c
LayerCount: 2
Fore
SplineSet
575 700 m 1xbc
 650 700 l 1
 650 650 l 1
 621.060546875 592.12109375 l 1
 745.473632812 563.3515625 800 460.16796875 800 374.947265625 c 2
 800 -0.052734375 l 1
 600 -0.052734375 l 1
 600 374.947265625 l 2
 600 417.041992188 584.243164062 451.245117188 561.58203125 473.166015625 c 1
 500 350 l 1
 500 -0.02734375 l 1
 324.986328125 -0.02734375 l 1x7c
 275 -100 l 1
 200 -100 l 1
 200 -50 l 1
 300 150 l 1
 300 374.97265625 l 2
 300 449.97265625 248.284179688 499.97265625 200 499.97265625 c 1
 200 -0.02734375 l 1
 0 -0.02734375 l 1
 0 599.974609375 l 1
 200 600.025390625 l 1
 250 599.97265625 l 2
 314.638671875 599.904296875 365.594726562 582.801757812 404.20703125 556.2578125 c 1
 439.4609375 577.962890625 476.403320312 593.427734375 524.1484375 598.298828125 c 1
 575 700 l 1xbc
470.392578125 490.787109375 m 1
 469.42578125 490.264648438 468.46875 489.829101562 467.498046875 489.271484375 c 1
 467.900390625 488.607421875 468.232421875 487.919921875 468.626953125 487.25390625 c 1
 470.392578125 490.787109375 l 1
EndSplineSet
EndChar

StartChar: peseta
Encoding: 8359 8359 353
Width: 900
Flags: W
HStem: 0 21G<100 300> 0 21G<100 300> 200 100<300 424.272> 500 100<0 100 300 490.795 700 800> 700 100<300 426.013>
VStem: 100 200<0 200 300 500 600 700> 500 200<370.898 500>
LayerCount: 2
Fore
SplineSet
100 800 m 1xbe
 300 800 l 1
 400 800 l 2
 547.537109375 800 659.530273438 693.384765625 691.048828125 600 c 1
 800 600 l 1
 800 500 l 1
 700 500 l 1
 700 450 l 2
 700 350 575 200 400 200 c 2
 300 200 l 1
 300 0 l 1
 100 0 l 1
 100 500 l 1
 0 500 l 1
 0 600 l 1
 100 600 l 1
 100 800 l 1xbe
300 700 m 1
 300 600 l 1
 490.794921875 600 l 1
 464.947265625 666.65625 390.821289062 700 350 700 c 2
 300 700 l 1
300 500 m 1
 300 300 l 1
 350 300 l 2
 400 300 500 350 500 450 c 2
 500 500 l 1
 300 500 l 1
EndSplineSet
EndChar

StartChar: uni20A9
Encoding: 8361 8361 355
Width: 1200
Flags: W
HStem: 0 21G<340 460 640 760> 0 21G<340 460 640 760> 400 100<0 100 350 400 650 750 1000 1100> 780 20G<0 160 300 460 940 1100>
LayerCount: 2
Fore
SplineSet
0 800 m 1xb0
 150 800 l 1
 300 500 l 1
 400 500 l 1
 300 700 l 1
 300 800 l 1
 450 800 l 1
 600 500 l 1
 800 500 l 1
 950 800 l 1
 1100 800 l 1
 1100 700 l 1
 1000 500 l 1
 1100 500 l 1
 1100 400 l 1
 950 400 l 1
 750 0 l 1
 650 0 l 1
 550 200 l 1
 450 0 l 1
 350 0 l 1
 150 400 l 1
 0 400 l 1
 0 500 l 1
 100 500 l 1
 0 700 l 1
 0 800 l 1xb0
350 400 m 1
 400 300 l 1
 450 400 l 1
 350 400 l 1
650 400 m 1
 700 300 l 1
 750 400 l 1
 650 400 l 1
EndSplineSet
EndChar

StartChar: uni20AA
Encoding: 8362 8362 356
Width: 1200
HStem: 0 100<500 796.143> 580 20G<900 1100> 700 100<200 496.143>
VStem: 0 200<0 700> 300 200<100 550> 600 200<250 581.204> 900 200<218.745 600>
LayerCount: 2
Fore
SplineSet
800 250 m 1
 600 250 l 1
 600 399.974609375 l 1
 600 424.974609375 l 2
 600 624.974609375 525 699.958984375 400 699.974609375 c 2
 200 700 l 1
 200 0 l 1
 0 0 l 1
 0 800 l 1
 200 800 l 1
 400 800.001953125 l 2
 675 800.07421875 800 724.974609375 800 424.974609375 c 2
 800 399.974609375 l 1
 800 250 l 1
1100 600 m 1
 1100 399.974609375 l 1
 1100 374.974609375 l 2
 1100 74.974609375 975 -0.125 700 -0.052734375 c 2
 500 0 l 1
 300 0 l 1
 300 550 l 1
 500 550 l 1
 500 100 l 1
 700 99.974609375 l 2
 825 99.958984375 900 174.974609375 900 374.974609375 c 2
 900 399.974609375 l 1
 900 600 l 1
 1100 600 l 1
EndSplineSet
EndChar

StartChar: dong
Encoding: 8363 8363 357
Width: 700
Flags: W
HStem: -100 100<0 500> 100 100<233.886 300> 400 100<233.886 300> 600 100<100 300 500 600> 780 20G<300 500>
VStem: 0 200<226.541 370.411> 300 200<200 400 500.053 600 700 800>
LayerCount: 2
Fore
SplineSet
300 800 m 1
 500 800 l 1
 500 700 l 1
 600 700 l 1
 600 600 l 1
 500 600 l 1
 500 100 l 1
 250 100 l 2
 75 100 0 200 0 300 c 0
 -0 400 75 499.815429688 250 500 c 2
 300 500.052734375 l 1
 300 600 l 1
 100 600 l 1
 100 700 l 1
 300 700 l 1
 300 800 l 1
300 400 m 1
 251.71484375 400 200 375 200 300 c 0
 200 225 250 200 300 200 c 1
 300 400 l 1
0 0 m 1
 500 0 l 1
 500 -100 l 1
 0 -100 l 1
 0 0 l 1
EndSplineSet
EndChar

StartChar: Euro
Encoding: 8364 8364 358
Width: 1000
Flags: W
HStem: 0 100<443.641 681.535> 300 100<0 100 311.1 600> 500 100<0 109.439 359.037 700> 700 100<438.705 682.079>
VStem: 109.439 201.66<239.222 300 400.391 500>
LayerCount: 2
Fore
SplineSet
525 800 m 0
 800 800 900.52734375 712.359375 900 650 c 1
 700 650 l 1
 700 675 650 700 525 700 c 0
 458.946289062 700 400.0625 657.948242188 359.037109375 600 c 1
 700 600 l 1
 700 500 l 1
 311.0625 500 l 1
 303.952148438 474.912109375 300 449.485351562 300 425 c 2
 300 400 l 1
 600 400 l 1
 600 300 l 1
 311.099609375 300 l 1
 340.3203125 197.337890625 424.529296875 101.026367188 525 100 c 0
 649.556640625 98.7275390625 700 125 700 150 c 1
 900 150 l 1
 903.598632812 91.37890625 800 0 525 0 c 0
 328.703125 0 151.47265625 133.208984375 109.439453125 300 c 1
 0 300 l 1
 0 400 l 1
 100 400 l 1
 100 425 l 2
 100 450.513671875 103.29296875 475.611328125 109.439453125 500 c 1
 0 500 l 1
 0 600 l 1
 152.89453125 600 l 1
 226.975585938 716.998046875 370.051757812 800 525 800 c 0
EndSplineSet
EndChar

StartChar: uni20A0
Encoding: 8352 8352 359
Width: 900
Flags: W
HStem: 0 100<500 800> 200 100<226.047 350 500 700> 400 100<500 800> 600 21G<350 500> 700 100<225.557 331.474>
VStem: 0 200<324.82 675.18> 350 150<100 200 300 400 600 679.62>
LayerCount: 2
Fore
SplineSet
800 0 m 1
 350 0 l 1
 350 200 l 1
 250 200 l 2
 75 200 0 325 0 425 c 2
 0 575 l 2
 0 675 75 799.815429688 250 800 c 0
 425 800 500 675 500 600 c 1
 350 600 l 1
 350 675 319.08203125 700 275 700 c 0
 225 700 200 650 200 575 c 2
 200 425 l 2
 200 350 225 300 275 300 c 2
 350 300 l 1
 350 500 l 1
 800 500 l 1
 800 400 l 1
 500 400 l 1
 500 300 l 1
 700 300 l 1
 700 200 l 1
 500 200 l 1
 500 100 l 1
 800 100 l 1
 800 0 l 1
EndSplineSet
EndChar

StartChar: uni20AD
Encoding: 8365 8365 360
Width: 800
Flags: W
HStem: 0 21G<100 300 605 700> 0 21G<100 300 605 700> 400 100<0 100 475 650> 780 20G<100 300 531.818 700>
VStem: 100 200<0 325 525 800>
LayerCount: 2
Fore
SplineSet
100 800 m 1xb8
 300 800 l 1
 300 525 l 1
 550 800 l 1
 700 800 l 1
 700 725 l 1
 475 500 l 1
 650 500 l 1
 650 400 l 1
 425 400 l 1
 700 125 l 1
 700 0 l 1
 625 0 l 1
 300 325 l 1
 300 0 l 1
 100 0 l 1
 100 400 l 1
 0 400 l 1
 0 500 l 1
 100 500 l 1
 100 800 l 1xb8
EndSplineSet
EndChar

StartChar: uni20AE
Encoding: 8366 8366 361
Width: 900
Flags: W
HStem: 0 21G<300 500> 0 21G<300 500> 700 100<0 300 500 800>
VStem: 300 200<0 100 500 700>
LayerCount: 2
Fore
SplineSet
0 800 m 1xb0
 800 800 l 1
 800 700 l 1
 500 700 l 1
 500 500 l 1
 650 575 l 1
 700 575 l 1
 700 500 l 1
 500 400 l 1
 500 300 l 1
 650 375 l 1
 700 375 l 1
 700 300 l 1
 500 200 l 1
 500 0 l 1
 300 0 l 1
 300 100 l 1
 150 25 l 1
 100 25 l 1
 100 100 l 1
 300 200 l 1
 300 300 l 1
 150 225 l 1
 100 225 l 1
 100 300 l 1
 300 400 l 1
 300 700 l 1
 0 700 l 1
 0 800 l 1xb0
EndSplineSet
EndChar

StartChar: uni20B0
Encoding: 8368 8368 363
Width: 700
Flags: W
HStem: -200 100<350 390.873> 0 21G<0 110 190 300> 0 21G<0 110 190 300> 700 100<307.476 425.017>
VStem: 100 175<441.684 664.238> 425 175<-62.8861 146.107> 450 150<482.331 673.841>
LayerCount: 2
Fore
SplineSet
350 800 m 0xdc
 525 800 600 700 600 625 c 0xda
 600 515.745117188 542.701171875 382.62109375 478.1875 267.3515625 c 1
 543.10546875 214.227539062 598.885742188 153.674804688 600 50 c 0
 601.880859375 -124.989257812 500 -200 350 -200 c 1
 350 -100 l 1
 400 -100 425 -25 425 50 c 0
 425 87.583984375 417.55078125 119.439453125 405.068359375 147.421875 c 1
 347.775390625 59.9970703125 300 0 300 0 c 1
 200 0 l 1
 150 100 l 1
 100 0 l 1
 0 0 l 1
 100 200 l 1
 200 200 l 1
 250 100 l 1
 250 100 287.254882812 160.624023438 329.58203125 245.4609375 c 1
 233.686523438 332.075195312 100 389.620117188 100 550 c 0
 100 725 200 800 350 800 c 0xdc
350 700 m 0
 300 700 275 625 275 550 c 0
 275 456.291015625 320.28515625 397.856445312 377.046875 348.1953125 c 1
 416.5234375 440.930664062 450 543.30859375 450 625 c 0
 450 675 394.08203125 700 350 700 c 0
EndSplineSet
EndChar

StartChar: uni20B1
Encoding: 8369 8369 364
Width: 1000
Flags: W
HStem: 0 21G<100 300> 0 21G<100 300> 100 100<300 557.47> 300 100<0 100 300 597.996 800 900> 500 100<0 100 300 597.934 800 900> 700 100<300 557.47>
VStem: 100 200<0 100 200 300 400 500 600 700> 600 200<241.971 300 400 500 600 658.029>
LayerCount: 2
Fore
SplineSet
100 800 m 1xbf
 300 800 l 1
 550 800 l 2
 710.677734375 800 786.860351562 694.650390625 798.28515625 600 c 1
 900 600 l 1
 900 500 l 1
 800 500 l 1
 800 400 l 1
 900 400 l 1
 900 300 l 1
 798.28515625 300 l 1
 786.860351562 205.349609375 710.677734375 100 550 100 c 2
 300 100 l 1
 300 0 l 1
 100 0 l 1
 100 300 l 1
 0 300 l 1
 0 400 l 1
 100 400 l 1
 100 500 l 1
 0 500 l 1
 0 600 l 1
 100 600 l 1
 100 800 l 1xbf
300 700 m 1
 300 600 l 1
 597.93359375 600 l 1
 587.987304688 660.881835938 542.686523438 700 500 700 c 2
 300 700 l 1
300 500 m 1
 300 400 l 1
 600 400 l 1
 600 500 l 1
 300 500 l 1
300 300 m 1
 300 200 l 1
 500 200 l 2
 544.203125 200 588.33984375 239.118164062 597.99609375 300 c 1
 300 300 l 1
EndSplineSet
EndChar

StartChar: uni20B2
Encoding: 8370 8370 365
Width: 900
Flags: W
HStem: 5.48438 102.34<500 571.873> 200 100<550 600> 780 20G<300 500>
VStem: 0 200<221.284 478.716> 300 200<-100 7.89368 130.246 570.248 690.33 800> 600 200<137.074 200 475 528.51>
CounterMasks: 1 1c
LayerCount: 2
Fore
SplineSet
300 800 m 1
 500 800 l 1
 500 693.26953125 l 1
 705.163085938 664.561523438 798.893554688 549.811523438 800 475 c 1
 600 475 l 1
 600 505.350585938 563.84375 553.69921875 500 580.498046875 c 1
 500 107.82421875 l 1
 563.708984375 119.853515625 600 144.678710938 600 175 c 2
 600 200 l 1
 550 200 l 1
 550 300 l 1
 800 300 l 1
 800 200 l 2
 800 123.919921875 705.435546875 28.98046875 500 5.484375 c 1
 500 -100 l 1
 300 -100 l 1
 300 10.45703125 l 1
 125.2265625 47.7451171875 0 180.096679688 0 328.125 c 2
 0 371.875 l 2
 -0 519.903320312 125.2265625 652.254882812 300 689.54296875 c 1
 300 800 l 1
300 570.248046875 m 1
 236.135742188 528.130859375 200 447.765625 200 371.875 c 2
 200 328.125 l 2
 200 252.235351562 236.137695312 172.408203125 300 130.24609375 c 1
 300 570.248046875 l 1
EndSplineSet
EndChar

StartChar: uni20B3
Encoding: 8371 8371 366
Width: 1000
Flags: W
HStem: 0 21G<100 300 600 800> 0 21G<100 300 600 800> 200 100<0 100 300 600 800 900> 400 100<0 100 312.904 588.018 800 900> 780 20G<328.66 571.195>
VStem: 100 200<0 200 300 400> 600 200<0 200 300 400>
LayerCount: 2
Fore
SplineSet
350 800 m 1xbe
 550 800 l 1
 592.390625 757.609375 742.548828125 637.001953125 787.287109375 500 c 1
 900 500 l 1
 900 400 l 1
 800 400 l 1
 800 300 l 1
 900 300 l 1
 900 200 l 1
 800 200 l 1
 800 0 l 1
 600 0 l 1
 600 200 l 1
 300 200 l 1
 300 0 l 1
 100 0 l 1
 100 200 l 1
 0 200 l 1
 0 300 l 1
 100 300 l 1
 100 400 l 1
 0 400 l 1
 0 500 l 1
 111.857421875 500 l 1
 155.443359375 641.756835938 307.3203125 757.3203125 350 800 c 1xbe
450 700 m 1
 410.901367188 660.901367188 341.426757812 586.771484375 312.904296875 500 c 1
 588.017578125 500 l 1
 560.090820312 589.645507812 489.518554688 660.481445312 450 700 c 1
300 400 m 1
 300 300 l 1
 600 300 l 1
 600 400 l 1
 300 400 l 1
EndSplineSet
EndChar

StartChar: uni20B4
Encoding: 8372 8372 367
Width: 900
Flags: W
HStem: 0 100<332.258 499.963> 300 100<0 119.369 583.566 800> 500 100<0 444.371 700 800> 700 100<258.612 470.698>
VStem: 100 200<128.653 273.767 675 694.727>
LayerCount: 2
Fore
SplineSet
400 800 m 0
 525 800 700 750.385742188 700 600 c 1
 800 600 l 1
 800 500 l 1
 680.630859375 500 l 1
 660.002929688 453.893554688 624.641601562 423.208007812 583.56640625 400 c 1
 800 400 l 1
 800 300 l 1
 355.626953125 300 l 1
 322.064453125 277.083007812 300 246.806640625 300 200 c 0
 300 150 324.571289062 99.7392578125 400 100 c 0
 448.870117188 100.168945312 500 100 500 125 c 1
 700 125 l 1
 701.798828125 67.279296875 600 0 400 0 c 0
 275 0 100 50 100 200 c 0
 100 239.869140625 107.118164062 272.6171875 119.369140625 300 c 1
 0 300 l 1
 0 400 l 1
 216.43359375 400 l 1
 291.56640625 442.451171875 385.672851562 459.921875 444.37109375 500 c 1
 0 500 l 1
 0 600 l 1
 500 600 l 1
 500 650 475.428710938 700 400 700 c 0
 350 700 300 700 300 675 c 1
 100 675 l 1
 100 725 200 800 400 800 c 0
EndSplineSet
EndChar

StartChar: uni20B5
Encoding: 8373 8373 368
Width: 900
Flags: W
HStem: 780 20G<300 500>
VStem: 0 200<221.284 478.716> 300 200<-100 9.67008 129.752 570.248 690.33 800> 600 200<171.49 225 475 528.51>
CounterMasks: 1 70
LayerCount: 2
Fore
SplineSet
300 800 m 1
 500 800 l 1
 500 693.26953125 l 1
 705.163085938 664.561523438 798.893554688 549.811523438 800 475 c 1
 600 475 l 1
 600 505.350585938 563.84375 553.69921875 500 580.498046875 c 1
 500 119.501953125 l 1
 563.84375 146.30078125 600 194.649414062 600 225 c 1
 800 225 l 1
 798.893554688 150.188476562 705.163085938 35.4384765625 500 6.73046875 c 1
 500 -100 l 1
 300 -100 l 1
 300 10.45703125 l 1
 125.2265625 47.7451171875 0 180.096679688 0 328.125 c 2
 0 371.875 l 2
 0 519.90234375 125.2265625 652.254882812 300 689.54296875 c 1
 300 800 l 1
300 570.248046875 m 1
 236.135742188 528.130859375 200 447.765625 200 371.875 c 2
 200 328.125 l 2
 200 252.234375 236.135742188 171.869140625 300 129.751953125 c 1
 300 570.248046875 l 1
EndSplineSet
EndChar

StartChar: uni20B6
Encoding: 8374 8374 369
Width: 800
Flags: W
HStem: 0 100<618.353 749.994> 500 100<0 100 300 400 600 700> 780 20G<100 300 400 600>
VStem: 100 200<0 500 600 800> 400 200<117.85 500 600 800>
LayerCount: 2
Fore
SplineSet
100 800 m 1
 300 800 l 1
 300 600 l 1
 400 600 l 1
 400 800 l 1
 600 800 l 1
 600 600 l 1
 700 600 l 1
 700 500 l 1
 600 500 l 1
 600 200 l 2
 600 125 625.036132812 101.907226562 675 100 c 0
 741.663085938 97.4560546875 750 125 750 125 c 1
 750 25 l 1
 750 25 749.556640625 0 650 0 c 0
 475 0 400 100 400 200 c 2
 400 500 l 1
 300 500 l 1
 300 0 l 1
 100 0 l 1
 100 500 l 1
 0 500 l 1
 0 600 l 1
 100 600 l 1
 100 800 l 1
EndSplineSet
EndChar

StartChar: uni20B7
Encoding: 8375 8375 370
Width: 1100
Flags: W
HStem: 0 100<150 200 300 397.934 500 597.992 700 767.742> 200 100<150 200 300 359.554 468.028 556.294> 600 21G<800 1000> 700 100<632.258 770.26>
VStem: 0 100<105.825 194.175> 200 100<-100 0 100 200> 400 200<525.574 670.845> 400 100<-100 0 100 157.855> 600 100<-100 0 100 158.027> 800 200<129.328 274.426 600 672.738>
LayerCount: 2
Fore
SplineSet
700 800 m 0xfcc0
 900 800 998.727539062 698.341796875 1000 600 c 1
 800 600 l 1
 800 650 774.95703125 702.530273438 700 700 c 0xfcc0
 624.614257812 697.456054688 600 650 600 600 c 0xfe40
 600 400 1000 500 1000 200 c 0
 1000 50 825 0 700 0 c 1
 700 -100 l 1
 600 -100.025390625 l 1
 600 0 l 1
 500 0 l 1
 500 -100 l 1
 400 -100 l 1
 400 0 l 1
 300 0 l 1
 300 -100 l 1
 200 -100 l 1
 200 0 l 1
 150 0 l 1
 150 0 0 0 0 150 c 0
 0 300 150 300 150 300 c 1
 200 300 l 1
 250 300 l 2
 314.638671875 299.931640625 365.594726562 282.829101562 404.20703125 256.28515625 c 1
 424.100585938 283.807617188 450 300 475 300 c 0
 612.71484375 300 687.16015625 194.645507812 698.439453125 100 c 1
 700 100 l 2xfdc0
 773.586914062 98.9462890625 800 150 800 200 c 0
 800 400 400 300 400 600 c 0xfe40
 400 750.385742188 575 800 700 800 c 0xfcc0
150 200 m 1
 150 200 100 200 100 150 c 0
 100 100 150 100 150 100 c 1
 200 100 l 1
 200 200 l 1
 150 200 l 1
300 200 m 1
 300 100 l 1
 397.93359375 100 l 1
 387.987304688 160.881835938 342.686523438 200 300 200 c 1
500 199.974609375 m 0xfd40
 489.912109375 199.979492188 478.799804688 195.793945312 467.498046875 189.298828125 c 1
 484.725585938 160.905273438 494.760742188 129.930664062 498.3828125 100 c 1
 597.9921875 100 l 1
 588.328125 160.862304688 544.196289062 199.951171875 500 199.974609375 c 0xfd40
EndSplineSet
EndChar

StartChar: uni20B8
Encoding: 8376 8376 371
Width: 900
Flags: W
HStem: 0 21G<300 500> 0 21G<300 500> 500 100<0 300 500 800> 700 100<0 800>
VStem: 300 200<0 500>
LayerCount: 2
Fore
SplineSet
0 600 m 1xb8
 800 600 l 1
 800 500 l 1
 500 500 l 1
 500 0 l 1
 300 0 l 1
 300 500 l 1
 0 500 l 1
 0 600 l 1xb8
0 700 m 1
 0 800 l 1
 800 800 l 1
 800 700 l 1
 0 700 l 1
EndSplineSet
EndChar

StartChar: uni20B9
Encoding: 8377 8377 372
Width: 700
Flags: W
HStem: 0 21G<355 500> 0 21G<355 500> 300 100<0 75> 500 100<0 297.934 493.697 600> 700 100<0 259.554 460.611 600>
VStem: 297.996 199.529<440.555 500 600 660.349>
LayerCount: 2
Fore
SplineSet
0 800 m 1xbc
 250 800 l 1
 600 800 l 1
 600 700 l 1
 460.611328125 700 l 1
 482.0625 668.795898438 494.212890625 633.735351562 498.28515625 600 c 1
 600 600 l 1
 600 500 l 1
 497.525390625 500 l 1
 481.08984375 412.063476562 383.791015625 302.684570312 275 300 c 1
 500 75 l 1
 500 0 l 1
 375 0 l 1
 75 300 l 1
 0 300 l 1
 0 400 l 1
 200 400 l 2
 244.203125 400 288.33984375 439.118164062 297.99609375 500 c 1
 0 500 l 1
 0 600 l 1
 297.93359375 600 l 1
 287.987304688 660.881835938 242.686523438 700 200 700 c 2
 0 700 l 1
 0 800 l 1xbc
EndSplineSet
EndChar

StartChar: uni20BA
Encoding: 8378 8378 373
Width: 1000
Flags: W
HStem: 0 100<400 596.142> 780 20G<200 400>
VStem: 200 200<100 200 600 800> 700 200<218.771 400>
LayerCount: 2
Fore
SplineSet
200 800 m 1
 400 800 l 1
 400 600 l 1
 550 675 l 1
 600 675 l 1
 600 600 l 1
 400 500 l 1
 400 400 l 1
 550 475 l 1
 600 475 l 1
 600 400 l 1
 400 300 l 1
 400 100 l 1
 500 100 l 2
 625 100 700 175 700 375 c 2
 700 400 l 1
 900 400 l 1
 900 375 l 2
 900 75.0009765625 774.999023438 -0.099609375 500 -0.02734375 c 2
 400 0 l 1
 200 0 l 1
 200 200 l 1
 50 125 l 1
 0 125 l 1
 0 200 l 1
 200 300 l 1
 200 400 l 1
 50 325 l 1
 0 325 l 1
 0 400 l 1
 200 500 l 1
 200 800 l 1
EndSplineSet
EndChar

StartChar: uni20BF
Encoding: 8383 8383 374
Width: 700
Flags: W
HStem: 0 100<200 300> 300 100<200 346.69> 600 100<200 299.921> 780 20G<100 200 300 400>
VStem: 0 200<100 300 400 600> 100 100<-100 0 700 800> 300 100<-100 0 700 800> 375 200<427.099 570.978> 400 200<117.18 282.212>
LayerCount: 2
Fore
SplineSet
100 800 m 1xf4
 200 800 l 1
 200 700 l 1
 300 700 l 1
 300 800 l 1
 400 800 l 1xf6
 400 696.88671875 l 1xf080
 534.677734375 679.39453125 575 589.723632812 575 500 c 0xf1
 575 443.763671875 559.186523438 387.52734375 514.22265625 349.076171875 c 1
 573.16796875 303.47265625 600 284.780273438 600 179.890625 c 0
 600 85.6083984375 539.3515625 15.51171875 400 2.291015625 c 1xf080
 400 -100 l 1
 300 -100 l 1
 300 0 l 1
 200 0 l 1
 200 -100 l 1
 100 -100 l 1
 100 0 l 1xf6
 0 0 l 1
 0 700 l 1xf8
 100 700 l 1
 100 800 l 1xf4
200 600 m 1xf9
 200 400 l 1
 275 400 l 2
 325 400 375 425 375 500 c 0
 375 575 323.28515625 600 275 600 c 2
 200 600 l 1xf9
200 300 m 1
 200 100 l 1
 300 100 l 2xfa
 350 100 400 100 400 200 c 0xf080
 400 300 348.28515625 300 300 300 c 2xf2
 200 300 l 1
EndSplineSet
EndChar

StartChar: uni20BD
Encoding: 8381 8381 375
Width: 800
Flags: W
HStem: 0 21G<100 300> 0 21G<100 300> 100 100<0 100 300 600> 300 100<0 100 300 440.064> 700 100<300 440.064>
VStem: 100 200<0 100 200 300 400 700> 500 200<459.012 640.988>
LayerCount: 2
Fore
SplineSet
100 800 m 1xbe
 300 800 l 1
 400 800 l 2
 575 800 700 675 700 550 c 0
 700 425 575 300 400 300 c 2
 300 300 l 1
 300 200 l 1
 600 200 l 1
 600 100 l 1
 300 100 l 1
 300 0 l 1
 100 0 l 1
 100 100 l 1
 0 100 l 1
 0 200 l 1
 100 200 l 1
 100 300 l 1
 0 300 l 1
 0 400 l 1
 100 400 l 1
 100 800 l 1xbe
300 700 m 1
 300 400 l 1
 350 400 l 2
 400 400 500 425 500 550 c 0
 500 675 400 700 350 700 c 2
 300 700 l 1
EndSplineSet
EndChar

StartChar: uni20BE
Encoding: 8382 8382 376
Width: 1000
Flags: W
HStem: 0 100<0 117.031 306.956 700> 600 100<400 500> 780 20G<300 400 500 600>
VStem: 0 200<223.56 457.674> 300 100<400 551.008 698.252 800> 500 100<400 544.826 698.016 800>
LayerCount: 2
Fore
SplineSet
300 800 m 1
 400 800 l 1
 400 698.251953125 l 1
 416.271484375 699.404296875 432.94140625 700 450 700 c 0
 467.05859375 700 483.728515625 699.3203125 500 698.015625 c 1
 500 800 l 1
 600 800 l 1
 600 680.943359375 l 1
 786.9921875 631.0859375 900 490.584960938 900 350 c 1
 700 350 l 1
 700 416.217773438 662.379882812 493.83984375 600 544.826171875 c 1
 600 400 l 1
 500 400 l 1
 500 594.390625 l 1
 484.006835938 597.994140625 467.328125 600 450 600 c 0
 432.671875 600 415.993164062 598.302734375 400 595.197265625 c 1
 400 400 l 1
 300 400 l 1
 300 551.0078125 l 1
 237.620117188 504.287109375 200 429.4609375 200 350 c 0
 200 218.75 275.006835938 101.1171875 400 100 c 2
 700 100 l 1
 700 0 l 1
 400 0 l 1
 0 0 l 1
 0 100 l 1
 117.03125 100 l 1
 44.3388671875 162.975585938 0 250.935546875 0 350 c 0
 0 508.158203125 113.0078125 638.001953125 300 682.986328125 c 1
 300 800 l 1
EndSplineSet
EndChar

StartChar: uni20BC
Encoding: 8380 8380 377
Width: 900
Flags: W
HStem: 0 21G<0 200 300 500 600 800> 0 21G<0 200 300 500 600 800> 780 20G<300 500>
VStem: 0 200<0 354.319> 300 200<0 462.799 581.349 800> 600 200<0 354.319>
CounterMasks: 1 1c
LayerCount: 2
Fore
SplineSet
300 800 m 1xbc
 500 800 l 1
 500 588.048828125 l 1
 674.7734375 545.43359375 800 394.174804688 800 225 c 2
 800 0 l 1
 600 0 l 1
 600 225 l 2
 600 311.732421875 563.864257812 410.453125 500 462.798828125 c 1
 500 0 l 1
 300 0 l 1
 300 462.798828125 l 1
 236.135742188 410.453125 200 311.732421875 200 225 c 2
 200 0 l 1
 0 0 l 1
 0 225 l 2
 0 394.174804688 125.2265625 545.43359375 300 588.048828125 c 1
 300 800 l 1xbc
EndSplineSet
EndChar

StartChar: uni20BB
Encoding: 8379 8379 378
Width: 1000
Flags: W
HStem: 0 100<518.353 699.957> 200 100<200 300> 400 100<203.398 300 500 700> 700 100<201.816 283.871>
VStem: 0 175<525.347 674.248> 300 200<117.85 200 300 400 500 690.698> 750 150<305.825 394.175>
LayerCount: 2
Fore
SplineSet
250 800 m 0
 424.999023438 800 500 700 500 600 c 2
 500 500 l 1
 498.825195312 500.25390625 650 500 700 500 c 0
 800 500 900 500 900 350 c 0
 900 200 800 200 700 200 c 0
 675 200 650 225 650 225 c 1
 650 225 625 200 600 200 c 0
 576.4296875 200 550 225 550 225 c 1
 550 225 525 200 500 200 c 1
 500 125 525.036132812 101.907226562 575 100 c 0
 641.663085938 97.4560546875 700 125 700 125 c 1
 700 25 l 1
 700 25 649.556640625 0 550 0 c 0
 375.000976562 0 300 100.000976562 300 200 c 1
 200 200 l 1
 200 300 l 1
 300 300 l 1
 300 400 l 1
 250 400 l 2
 75.0009765625 400 0 500 0 600 c 0
 0 700 75.0009765625 799.815429688 250 800 c 0
250 700 m 0
 225 700 175 675 175 600 c 0
 175 525 226.092773438 497.760742188 250 500 c 2
 300 500 l 1
 300 600 l 2
 300 674.806640625 275 700 250 700 c 0
500 400 m 1
 500 300 l 1
 500 300 521.401367188 298.388671875 550 325 c 1
 575 300 600 300 600 300 c 1
 600 300 625 300 650 325 c 1
 675 300 700 300 700 300 c 1
 700 300 750 300 750 350 c 0
 750 400 700 400 700 400 c 1
 500 400 l 1
EndSplineSet
EndChar

StartChar: uni2116
Encoding: 8470 8470 379
Width: 1400
Flags: W
HStem: 0 21G<0 200 500 700> 0 21G<0 200 500 700> 100 100<800 1300> 600 100<1001.82 1098.18> 780 20G<0 170 500 700>
VStem: 0 200<0 550> 500 200<0 250 450 800> 800 175<425.347 574.248> 1125 175<426.216 574.276>
LayerCount: 2
Fore
SplineSet
150 800 m 1xbf80
 500 450 l 1
 500 800 l 1
 700 800 l 1
 700 0 l 1
 500 0 l 1
 500 250 l 1
 200 550 l 1
 200 0 l 1
 0 0 l 1
 0 800 l 1
 150 800 l 1xbf80
1050 300 m 0
 875 300 800 400 800 500 c 0
 800 600 875 699.815429688 1050 700 c 0
 1225 700 1300 600 1300 500 c 0
 1300 400 1250 300 1050 300 c 0
975 500 m 0
 975 425 1026.09277344 397.760742188 1050 400 c 0
 1073.53027344 402.203125 1125 425.385742188 1125 500.193359375 c 0
 1125 575 1075 600 1050 600 c 0
 1025 600 975 575 975 500 c 0
800 100 m 1
 800 200 l 1
 1300 200 l 1
 1300 100 l 1
 800 100 l 1
EndSplineSet
EndChar

StartChar: uni2117
Encoding: 8471 8471 380
Width: 1200
HStem: -200 125<413.916 686.084> 0 21G<350 500> 0 21G<350 500> 200 100<500 627.398> 500 100<500 626.599> 675 125<413.916 686.084>
VStem: 0 200<165.657 434.343> 350 150<0 200 300 500> 650 148.208<325.833 476.423> 900 200<165.657 434.343>
LayerCount: 2
Fore
SplineSet
600 -75 m 6x9fc0
 725 -75 900 112.5 900 268.75 c 6
 900 331.25 l 6
 900 487.5 724.993164062 673.404296875 600 675 c 6
 500 675 l 6
 375 675 200 487.5 200 331.25 c 6
 200 268.75 l 6
 200 112.5 375.006835938 -73.404296875 500 -75 c 6
 600 -75 l 6x9fc0
500 -200 m 6
 275 -200 0 18.75 0 268.75 c 6
 0 331.25 l 6
 0 581.25 275 800 500 800 c 6
 600 800 l 6
 825 800 1100 581.25 1100 331.25 c 6
 1100 268.75 l 6
 1100 18.75 825 -200 600 -200 c 6
 500 -200 l 6
625 200 m 6
 500 200 l 5
 500 0 l 5
 350 0 l 5xdfc0
 350 600 l 5
 500 600 l 6
 523.954101562 600 546.208007812 599.150390625 566.850585938 597.481445312 c 4
 740.098632812 583.473632812 799.809570312 511.787109375 798.208007812 400.890625 c 4
 800 275 675 200 625 200 c 6
500 300 m 5
 575 300 l 6
 625 300 650 350 650 400 c 4
 650 450 623.28515625 500 575 500 c 6
 500 500 l 5
 500 300 l 5
EndSplineSet
EndChar

StartChar: trademark
Encoding: 8482 8482 381
Width: 1300
Flags: W
HStem: 400 400<100 300 500 700 1000 1200> 700 100<0 100 300 400>
VStem: 100 200<400 700> 500 200<400 600> 1000 200<400 600>
LayerCount: 2
Fore
SplineSet
0 800 m 1x78
 100 800 l 1
 300 800 l 1xb8
 400 800 l 1
 400 700 l 1
 300 700 l 1x78
 300 400 l 1
 100 400 l 1xb8
 100 700 l 1
 0 700 l 1
 0 800 l 1x78
500 800 m 1
 700 800 l 1
 850 650 l 1
 1000 800 l 1
 1200 800 l 1
 1200 400 l 1
 1000 400 l 1
 1000 600 l 1
 850 450 l 1
 700 600 l 1
 700 400 l 1
 500 400 l 1
 500 800 l 1
EndSplineSet
EndChar

StartChar: endash
Encoding: 8211 8211 382
Width: 600
Flags: W
HStem: 300 100<0 600>
LayerCount: 2
Fore
SplineSet
0 400 m 1
 600 400 l 1
 600 300 l 1
 0 300 l 1
 0 400 l 1
EndSplineSet
EndChar

StartChar: emdash
Encoding: 8212 8212 383
Width: 1300
Flags: W
HStem: 300 100<0 1200>
LayerCount: 2
Fore
SplineSet
0 400 m 1
 1200 400 l 1
 1200 300 l 1
 0 300 l 1
 0 400 l 1
EndSplineSet
EndChar

StartChar: figuredash
Encoding: 8210 8210 387
Width: 800
Flags: W
HStem: 300 100<0 700>
LayerCount: 2
Fore
SplineSet
0 400 m 1
 700 400 l 1
 700 300 l 1
 0 300 l 1
 0 400 l 1
EndSplineSet
EndChar

StartChar: quoteleft
Encoding: 8216 8216 389
Width: 200
Flags: W
HStem: 780 20G<112.5 155>
VStem: -0 150<573.624 665.009>
LayerCount: 2
Fore
SplineSet
125 800 m 1
 200 750 l 1
 175 725 149.100585938 697.841796875 150 625 c 0
 150.6171875 575.00390625 201.272460938 579.66015625 200 500 c 0
 199.201171875 450.006835938 150 400 100 400 c 0
 50 400 -1.306640625 450.016601562 -0 500 c 0
 6.296875 740.817382812 100 775 125 800 c 1
EndSplineSet
EndChar

StartChar: quotereversed
Encoding: 8219 8219 391
Width: 200
Flags: W
HStem: 780 20G<75 125>
VStem: -0 150<534.991 626.376>
LayerCount: 2
Fore
SplineSet
125 400 m 1
 100 425 6.296875 459.182617188 -0 700 c 0
 -1.306640625 749.982421875 50 800 100 800 c 0
 150 800 199.201171875 749.993164062 200 700 c 0
 201.272460938 620.33984375 150.6171875 624.99609375 150 575 c 0
 149.100585938 502.158203125 175 475 200 450 c 1
 125 400 l 1
EndSplineSet
EndChar

StartChar: guilsinglleft
Encoding: 8249 8249 397
Width: 400
Flags: W
HStem: 580 20G<180 300>
VStem: -50 350
LayerCount: 2
Fore
SplineSet
300 550 m 1
 100 350 l 1
 300 150 l 1
 300 100 l 1
 200 100 l 1
 -50 350 l 1
 200 600 l 1
 300 600 l 1
 300 550 l 1
EndSplineSet
EndChar

StartChar: guilsinglright
Encoding: 8250 8250 398
Width: 400
Flags: W
HStem: 580 20G<0 120>
VStem: 0 350
LayerCount: 2
Fore
SplineSet
0 550 m 1
 0 600 l 1
 100 600 l 1
 350 350 l 1
 100 100 l 1
 0 100 l 1
 0 150 l 1
 200 350 l 1
 0 550 l 1
EndSplineSet
EndChar

StartChar: minus
Encoding: 8722 8722 399
Width: 700
Flags: W
HStem: 300 100<0 600>
LayerCount: 2
Fore
SplineSet
0 400 m 1
 600 400 l 1
 600 300 l 1
 0 300 l 1
 0 400 l 1
EndSplineSet
EndChar

StartChar: uni27E8
Encoding: 10216 10216 400
Width: 400
Flags: W
HStem: 780 20G<190 300>
VStem: 0 300
LayerCount: 2
Fore
SplineSet
300 750 m 1
 100 350 l 1
 300 -50 l 1
 300 -100 l 1
 200 -100 l 1
 0 300 l 1
 0 400 l 1
 200 800 l 1
 300 800 l 1
 300 750 l 1
EndSplineSet
EndChar

StartChar: uni27E9
Encoding: 10217 10217 401
Width: 400
Flags: W
HStem: 780 20G<0 110>
VStem: 0 300
LayerCount: 2
Fore
SplineSet
0 750 m 1
 0 800 l 1
 100 800 l 1
 300 400 l 1
 300 300 l 1
 100 -100 l 1
 0 -100 l 1
 0 -50 l 1
 200 350 l 1
 0 750 l 1
EndSplineSet
EndChar

StartChar: uni0E3F
Encoding: 3647 3647 402
Width: 800
Flags: W
HStem: 0 100<200 300 400 481.707> 300 100<200 300> 600 100<200 300> 780 20G<300 400>
VStem: 0 200<100 300 400 600> 300 100<-100 0 100 300 402.318 597.578 700 800> 475 200<427.033 570.519>
LayerCount: 2
Fore
SplineSet
300 800 m 1
 400 800 l 1
 400 700 l 1
 450 700 l 2
 625 700 675 600 675 500 c 0
 675 443.763671875 659.186523438 387.52734375 614.22265625 349.076171875 c 1
 673.16796875 303.47265625 696.401367188 268.908203125 700 200 c 0
 705.469726562 95.2529296875 625 0 450 0 c 2
 400 0 l 1
 400 -100 l 1
 300 -100 l 1
 300 0 l 1
 200 0 l 1
 0 0 l 1
 0 700 l 1
 200 700 l 1
 300 700 l 1
 300 800 l 1
200 600 m 1
 200 400 l 1
 300 400 l 1
 300 600 l 1
 200 600 l 1
400 597.578125 m 1
 400 402.318359375 l 1
 440.401367188 409.91015625 475 437.629882812 475 500 c 0
 475 562.061523438 439.576171875 589.825195312 400 597.578125 c 1
200 300 m 1
 200 100 l 1
 300 100 l 1
 300 300 l 1
 200 300 l 1
400 300 m 1
 400 100 l 1
 450 100 500 100 500 200 c 0
 500 300 448.28515625 300 400 300 c 1
EndSplineSet
EndChar

StartChar: uni058F
Encoding: 1423 1423 403
Width: 900
Flags: W
HStem: 0 21G<500 700> 0 21G<500 700> 100 100<300 500 700 800> 300 100<300 500 700 800> 700 100<253.07 446.93>
VStem: 0 200<500 652.344> 500 200<0 100 200 300 400 652.344>
LayerCount: 2
Fore
SplineSet
350 800 m 0xbe
 624.999023438 800 700 675 700 575 c 2
 700 400 l 1
 800 400 l 1
 800 300 l 1
 700 300 l 1
 700 200 l 1
 800 200 l 1
 800 100 l 1
 700 100 l 1
 700 0 l 1
 500 0 l 1
 500 100 l 1
 300 100 l 1
 300 200 l 1
 500 200 l 1
 500 300 l 1
 300 300 l 1
 300 400 l 1
 500 400 l 1
 500 575 l 2
 500 650 450 700 350 700 c 0
 250 700 200 650 200 575 c 2
 200 500 l 1
 0 500 l 1
 0 575 l 2
 0 675 75.0009765625 800 350 800 c 0xbe
EndSplineSet
EndChar

StartChar: circumflex
Encoding: 710 710 404
Width: 300
Flags: W
HStem: 625 175
VStem: 0 300
LayerCount: 2
Fore
SplineSet
125 800 m 1
 175 800 l 1
 300 675 l 1
 300 625 l 1
 225 625 l 1
 150 700 l 1
 75 625 l 1
 0 625 l 1
 0 675 l 1
 125 800 l 1
EndSplineSet
EndChar

StartChar: caron
Encoding: 711 711 405
Width: 300
Flags: W
HStem: 625 175
VStem: 0 300
LayerCount: 2
Fore
SplineSet
200 625 m 1
 100 625 l 1
 0 725 l 1
 0 800 l 1
 75 800 l 1
 150 725 l 1
 225 800 l 1
 300 800 l 1
 300 725 l 1
 200 625 l 1
EndSplineSet
EndChar

StartChar: dotaccent
Encoding: 729 729 408
Width: 200
Flags: W
HStem: 675 125<24.3852 175.616>
VStem: 0 200<699.572 797.02>
LayerCount: 2
Fore
SplineSet
50 800 m 2
 150 800 l 2
 175 800 199.99609375 795.439453125 200 750 c 0
 200.00390625 708.579101562 155.228515625 675 100 675 c 0
 44.771484375 675 0 708.579101562 0 750 c 0
 0 800 25 800 50 800 c 2
EndSplineSet
EndChar

StartChar: ring
Encoding: 730 730 409
Width: 300
Flags: W
HStem: 525 83.333<106.372 193.771> 700 100<106.372 193.484>
VStem: 0 100<614.985 692.36> 200 100<616.13 691.306>
LayerCount: 2
Fore
SplineSet
150 525 m 0
 50 525 0 593.75 0 662.5 c 0
 0 731.25 50 800 150 800 c 0
 250 800 301.870117188 731.228515625 300 662.5 c 0
 298.201171875 596.381835938 250 525 150 525 c 0
100 654.166992188 m 0
 100 631.25 125 608.333007812 150 608.333007812 c 0
 175 608.333007812 200.899414062 631.770507812 200 654.166992188 c 0
 199.080078125 677.067382812 175 700 150 700 c 0
 125 700 100 677.083007812 100 654.166992188 c 0
EndSplineSet
EndChar

StartChar: breve
Encoding: 728 728 410
Width: 400
Flags: W
HStem: 625 75<110.4 289.6> 780 20G<0 50 350 400>
VStem: 0 50<755.532 800> 350 50<755.147 800>
LayerCount: 2
Fore
SplineSet
50 800 m 1
 50 775 103.077148438 700.95703125 200 700 c 0
 296.922851562 699.04296875 350 775 350 800 c 1
 400 800 l 1
 400 700 317.091796875 625 200 625 c 0
 82.908203125 625 0 700 0 800 c 1
 50 800 l 1
EndSplineSet
EndChar

StartChar: uni02BB
Encoding: 699 699 412
Width: 200
Flags: W
HStem: 750 50<152.044 175>
VStem: 0 200<643.342 717.399>
LayerCount: 2
Fore
SplineSet
175 800 m 1
 200 750 l 1
 150 750 150 725 150 725 c 1
 150 725 200 725 200 675 c 0
 200 650 150 625 100 625 c 0
 50 625 0 650 0 675 c 0
 0 750 75 800 175 800 c 1
EndSplineSet
EndChar

StartChar: uni0259
Encoding: 601 601 413
Width: 600
Flags: W
HStem: 0 100<167.49 282.584> 200 100<150 300> 500 100<175.237 266.114>
VStem: 0 150<116.204 200 400 475.164> 300 200<123.827 200 300 466.748>
LayerCount: 2
Fore
SplineSet
250 0 m 0
 75 0 0 125 0 200 c 2
 0 300 l 1
 300 300 l 1
 300 375 l 2
 300 450 258.807617188 499.100585938 225 500 c 0
 200.008789062 500.665039062 150 474.614257812 150 400 c 1
 0 400 l 1
 0 475 50 600 250 600 c 0
 425 600 500 475 500 375 c 2
 500 225 l 2
 500 125 425 0.1845703125 250 0 c 0
225 100 m 0
 275 100 300 125 300 200 c 1
 150 200 l 1
 150 125 175 100 225 100 c 0
EndSplineSet
EndChar

StartChar: uni018F
Encoding: 399 399 418
Width: 900
Flags: W
HStem: 0 100<294.254 505.746> 300 100<200 600> 700 100<289.442 510.558>
VStem: 0 200<190.503 300 500 609.497> 600 200<190.503 300 400 609.497>
LayerCount: 2
Fore
SplineSet
400 800 m 0
 625 800 800 700 800 500 c 2
 800 300 l 2
 800 100 625 0 400 0 c 0
 175 0 0 100 0 300 c 2
 0 400 l 1
 600 400 l 1
 600 500 l 2
 600 625 525 700 400 700 c 0
 275 700 200 625 200 500 c 1
 0 500 l 1
 0 700 175 800 400 800 c 0
200 300 m 1
 200 175 275.006835938 101.276367188 400 100 c 0
 524.993164062 101.276367188 600 175 600 300 c 1
 200 300 l 1
EndSplineSet
EndChar

StartChar: uni01B5
Encoding: 437 437 419
Width: 800
Flags: W
HStem: 0 125<150 700> 400 100<50 250 525 650> 675 125<0 525>
LayerCount: 2
Fore
SplineSet
0 800 m 1
 700 800 l 1
 700 675 l 1
 525 500 l 1
 650 500 l 1
 650 400 l 1
 425 400 l 1
 150 125 l 1
 700 125 l 1
 700 0 l 1
 0 0 l 1
 0 150 l 1
 250 400 l 1
 50 400 l 1
 50 500 l 1
 350 500 l 1
 525 675 l 1
 0 675 l 1
 0 800 l 1
EndSplineSet
EndChar

StartChar: uni01B6
Encoding: 438 438 420
Width: 600
Flags: W
HStem: 0 125<175 500> 300 100<50 175 450 500> 475 125<0 350>
LayerCount: 2
Fore
SplineSet
0 600 m 1
 500 600 l 1
 500 450 l 1
 450 400 l 1
 500 400 l 1
 500 300 l 1
 350 300 l 1
 175 125 l 1
 500 125 l 1
 500 0 l 1
 0 0 l 1
 0 125 l 1
 175 300 l 1
 50 300 l 1
 50 400 l 1
 275 400 l 1
 350 475 l 1
 0 475 l 1
 0 600 l 1
EndSplineSet
EndChar

StartChar: uni0191
Encoding: 401 401 421
Width: 900
Flags: W
HStem: -200 100<0.0425365 181.647> 400 100<400 700> 700 100<400 800>
VStem: 200 200<-82.1503 400 500 700>
LayerCount: 2
Fore
SplineSet
400 700 m 1
 400 500 l 1
 700 500 l 1
 700 400 l 1
 400 400 l 1
 400 0 l 2
 400 -100 325 -200 150 -200 c 0
 50.443359375 -200 0 -175 0 -175 c 1
 0 -75 l 1
 0 -75 58.3369140625 -102.543945312 125 -100 c 0
 174.963867188 -98.0927734375 200 -75 200 0 c 2
 200 800 l 1
 800 800 l 1
 800 700 l 1
 400 700 l 1
EndSplineSet
EndChar

StartChar: florin
Encoding: 402 402 422
Width: 700
Flags: W
HStem: -200 100<0.0425365 181.647> 500 100<100 200 400 500> 700 100<418.353 599.957>
VStem: 200 200<-82.1503 500 600 682.15>
LayerCount: 2
Fore
SplineSet
450 800 m 0
 549.556640625 800 600 775 600 775 c 1
 600 675 l 1
 600 675 541.663085938 702.543945312 475 700 c 0
 425.036132812 698.092773438 400 675 400 600 c 1
 500 600 l 1
 500 500 l 1
 400 500 l 1
 400 0 l 2
 400 -100 325 -200 150 -200 c 0
 50.443359375 -200 0 -175 0 -175 c 1
 0 -75 l 1
 0 -75 58.3369140625 -102.543945312 125 -100 c 0
 174.963867188 -98.0927734375 200 -75 200 0 c 2
 200 500 l 1
 100 500 l 1
 100 600 l 1
 200 600 l 1
 200 700 275 800 450 800 c 0
EndSplineSet
EndChar

StartChar: Alpha
Encoding: 913 913 424
Width: 1000
Flags: W
HStem: 0 21G<0 160 740 900> 0 21G<0 160 740 900> 200 100<300 600> 780 20G<365 535>
LayerCount: 2
Fore
SplineSet
0 50 m 1xb0
 375 800 l 1
 525 800 l 1
 900 50 l 1
 900 0 l 1
 750 0 l 1
 650 200 l 1
 250 200 l 1
 150 0 l 1
 0 0 l 1
 0 50 l 1xb0
300 300 m 1
 600 300 l 1
 450 600 l 1
 300 300 l 1
EndSplineSet
EndChar

StartChar: Beta
Encoding: 914 914 425
Width: 700
Flags: W
HStem: 0 100<200 358.13> 400 100<200 346.69> 700 100<200 346.59>
VStem: 0 200<100 400 500 700> 375 200<527.099 670.423> 400 200<142.832 356.989>
LayerCount: 2
Fore
SplineSet
0 800 m 1xf4
 200 800 l 1
 350 800 l 2
 525 800 575 700 575 600 c 0xf8
 575 543.763671875 559.186523438 487.52734375 514.22265625 449.076171875 c 1
 573.16796875 403.47265625 600 334.780273438 600 275 c 2
 600 225 l 2
 600 125 525 0 350 0 c 2
 200 0 l 1
 0 0 l 1
 0 800 l 1xf4
200 700 m 1
 200 500 l 1
 275 500 l 2
 325 500 375 525 375 600 c 0
 375 675 323.28515625 700 275 700 c 2
 200 700 l 1
200 400 m 1
 200 100 l 1
 300 100 l 2
 350 100 400 150 400 225 c 2
 400 275 l 2xf4
 400 350 348.28515625 400 300 400 c 2
 200 400 l 1
EndSplineSet
EndChar

StartChar: Epsilon
Encoding: 917 917 426
Width: 700
Flags: W
HStem: 0 100<200 600> 400 100<200 500> 700 100<200 600>
VStem: 0 200<100 400 500 700>
LayerCount: 2
Fore
SplineSet
0 800 m 1
 600 800 l 1
 600 700 l 1
 200 700 l 1
 200 500 l 1
 500 500 l 1
 500 400 l 1
 200 400 l 1
 200 100 l 1
 600 100 l 1
 600 0 l 1
 0 0 l 1
 0 800 l 1
EndSplineSet
EndChar

StartChar: Zeta
Encoding: 918 918 427
Width: 800
Flags: W
HStem: 0 125<150 700> 675 125<0 525>
LayerCount: 2
Fore
SplineSet
0 800 m 1
 700 800 l 1
 700 675 l 1
 150 125 l 1
 700 125 l 1
 700 0 l 1
 0 0 l 1
 0 150 l 1
 525 675 l 1
 0 675 l 1
 0 800 l 1
EndSplineSet
EndChar

StartChar: Eta
Encoding: 919 919 428
Width: 800
Flags: W
HStem: 0 21G<0 200 500 700> 0 21G<0 200 500 700> 400 100<200 500> 780 20G<0 200 500 700>
VStem: 0 200<0 400 500 800> 500 200<0 400 500 800>
LayerCount: 2
Fore
SplineSet
0 800 m 1xbc
 200 800 l 1
 200 500 l 1
 500 500 l 1
 500 800 l 1
 700 800 l 1
 700 0 l 1
 500 0 l 1
 500 400 l 1
 200 400 l 1
 200 0 l 1
 0 0 l 1
 0 800 l 1xbc
EndSplineSet
EndChar

StartChar: Iota
Encoding: 921 921 429
Width: 300
Flags: W
HStem: 0 21G<0 200> 0 21G<0 200> 780 20G<0 200>
VStem: 0 200<0 800>
LayerCount: 2
Fore
SplineSet
0 800 m 1xb0
 200 800 l 1
 200 0 l 1
 0 0 l 1
 0 800 l 1xb0
EndSplineSet
EndChar

StartChar: Kappa
Encoding: 922 922 430
Width: 700
Flags: W
HStem: 0 21G<0 200 492.5 600> 0 21G<0 200 492.5 600> 780 20G<0 200 442.5 600>
VStem: 0 200<0 312.5 537.5 800>
LayerCount: 2
Fore
SplineSet
600 137.5 m 1xb0
 600 0 l 1
 512.5 0 l 1
 200 312.5 l 1
 200 0 l 1
 0 0 l 1
 0 800 l 1
 200 800 l 1
 200 537.5 l 1
 462.5 800 l 1
 600 800 l 1
 600 712.5 l 1
 312.5 425 l 1
 600 137.5 l 1xb0
EndSplineSet
EndChar

StartChar: Mu
Encoding: 924 924 431
Width: 1000
Flags: W
HStem: 0 21G<0 200 700 900> 0 21G<0 200 700 900> 780 20G<0 170 730 900>
VStem: 0 200<0 550> 700 200<0 550>
LayerCount: 2
Fore
SplineSet
150 800 m 1xb8
 450 500 l 1
 750 800 l 1
 900 800 l 1
 900 0 l 1
 700 0 l 1
 700 550 l 1
 450 300 l 1
 200 550 l 1
 200 0 l 1
 0 0 l 1
 0 800 l 1
 150 800 l 1xb8
EndSplineSet
EndChar

StartChar: Nu
Encoding: 925 925 432
Width: 800
Flags: W
HStem: 0 21G<0 200 500 700> 0 21G<0 200 500 700> 780 20G<0 170 500 700>
VStem: 0 200<0 550> 500 200<0 250 450 800>
LayerCount: 2
Fore
SplineSet
150 800 m 1xb8
 500 450 l 1
 500 800 l 1
 700 800 l 1
 700 0 l 1
 500 0 l 1
 500 250 l 1
 200 550 l 1
 200 0 l 1
 0 0 l 1
 0 800 l 1
 150 800 l 1xb8
EndSplineSet
EndChar

StartChar: Omicron
Encoding: 927 927 433
Width: 900
Flags: W
HStem: 0 100<317.116 482.884> 700 100<317.114 482.886>
VStem: 0 200<248.909 551.091> 600 200<248.909 551.091>
LayerCount: 2
Fore
SplineSet
600 375 m 2
 600 425 l 2
 600 550 525 700 400 700 c 0
 275 700 200 550 200 425 c 2
 200 375 l 2
 200 250 275.006835938 101.276367188 400 100 c 0
 524.993164062 101.276367188 600 250 600 375 c 2
0 375 m 2
 0 425 l 2
 0 625 175 800 400 800 c 0
 625 800 800 625 800 425 c 2
 800 375 l 2
 800 175 625 0 400 0 c 0
 175 0 0 175 0 375 c 2
EndSplineSet
EndChar

StartChar: Rho
Encoding: 929 929 434
Width: 700
Flags: W
HStem: 0 21G<0 200> 0 21G<0 200> 200 100<200 308.166> 700 100<200 308.166>
VStem: 0 200<0 200 300 700> 400 200<390.1 609.9>
LayerCount: 2
Fore
SplineSet
0 800 m 1xbc
 200 800 l 1
 300 800 l 2
 475 800 600 650 600 550 c 2
 600 475 l 2
 600 375 475 200 300 200 c 2
 200 200 l 1
 200 0 l 1
 0 0 l 1
 0 800 l 1xbc
250 700 m 2
 200 700 l 1
 200 300 l 1
 250 300 l 2
 300 300 400 375 400 475 c 2
 400 525 l 2
 400 625 300 700 250 700 c 2
EndSplineSet
EndChar

StartChar: Tau
Encoding: 932 932 435
Width: 900
Flags: W
HStem: 0 21G<300 500> 0 21G<300 500> 700 100<0 300 500 800>
VStem: 300 200<0 700>
LayerCount: 2
Fore
SplineSet
0 800 m 1xb0
 800 800 l 1
 800 700 l 1
 500 700 l 1
 500 0 l 1
 300 0 l 1
 300 700 l 1
 0 700 l 1
 0 800 l 1xb0
EndSplineSet
EndChar

StartChar: Upsilon
Encoding: 933 933 436
Width: 700
Flags: W
HStem: 0 21G<200 400> 0 21G<200 400> 780 20G<0 135 465 600>
VStem: 200 200<0 300>
LayerCount: 2
Fore
SplineSet
200 300 m 1xb0
 0 700 l 1
 0 800 l 1
 125 800 l 1
 300 450 l 1
 475 800 l 1
 600 800 l 1
 600 700 l 1
 400 300 l 1
 400 0 l 1
 200 0 l 1
 200 300 l 1xb0
EndSplineSet
EndChar

StartChar: Chi
Encoding: 935 935 437
Width: 1000
Flags: W
HStem: 0 21G<0 170 730 900> 0 21G<0 170 730 900> 780 20G<0 170 730 900>
LayerCount: 2
Fore
SplineSet
0 75 m 1xa0
 325 400 l 1
 0 725 l 1
 0 800 l 1
 150 800 l 1
 450 500 l 1
 750 800 l 1
 900 800 l 1
 900 725 l 1
 575 400 l 1
 900 75 l 1
 900 0 l 1
 750 0 l 1
 450 300 l 1
 150 0 l 1
 0 0 l 1
 0 75 l 1xa0
EndSplineSet
EndChar

StartChar: Theta
Encoding: 920 920 438
Width: 900
Flags: W
HStem: 0 100<317.116 482.884> 325 150<300 500> 700 100<317.114 482.886>
VStem: 0 200<248.909 551.091> 300 200<325 475> 600 200<248.909 551.091>
CounterMasks: 1 fc
LayerCount: 2
Fore
SplineSet
300 475 m 1
 500 475 l 1
 500 325 l 1
 300 325 l 1
 300 475 l 1
600 375 m 2
 600 425 l 2
 600 550 525 700 400 700 c 0
 275 700 200 550 200 425 c 2
 200 375 l 2
 200 250 275.006835938 101.276367188 400 100 c 0
 524.993164062 101.276367188 600 250 600 375 c 2
0 375 m 2
 0 425 l 2
 0 625 175 800 400 800 c 0
 625 800 800 625 800 425 c 2
 800 375 l 2
 800 175 625 0 400 0 c 0
 175 0 0 175 0 375 c 2
EndSplineSet
EndChar

StartChar: Lambda
Encoding: 923 923 439
Width: 1000
Flags: W
HStem: 0 21G<0 160 740 900> 0 21G<0 160 740 900> 780 20G<365 535>
LayerCount: 2
Fore
SplineSet
375 800 m 1xa0
 525 800 l 1
 900 50 l 1
 900 0 l 1
 750 0 l 1
 450 600 l 1
 150 0 l 1
 0 0 l 1
 0 50 l 1
 375 800 l 1xa0
EndSplineSet
EndChar

StartChar: Xi
Encoding: 926 926 440
Width: 800
Flags: W
HStem: 0 125<0 700> 325 150<100 600> 675 125<0 700>
CounterMasks: 1 e0
LayerCount: 2
Fore
SplineSet
700 675 m 1
 0 675 l 1
 0 800 l 1
 700 800 l 1
 700 675 l 1
100 325 m 1
 100 475 l 1
 600 475 l 1
 600 325 l 1
 100 325 l 1
0 0 m 1
 0 125 l 1
 700 125 l 1
 700 0 l 1
 0 0 l 1
EndSplineSet
EndChar

StartChar: Pi
Encoding: 928 928 441
Width: 800
Flags: W
HStem: 0 21G<0 200 500 700> 0 21G<0 200 500 700> 700 100<200 500>
VStem: 0 200<0 700> 500 200<0 700>
LayerCount: 2
Fore
SplineSet
0 800 m 1xb8
 700 800 l 1
 700 750 l 1
 700 700 l 1
 700 0 l 1
 500 0 l 1
 500 700 l 1
 200 700 l 1
 200 0 l 1
 0 0 l 1
 0 700 l 1
 0 775 l 1
 0 800 l 1xb8
EndSplineSet
EndChar

StartChar: Sigma
Encoding: 931 931 442
Width: 800
Flags: W
HStem: 0 100<225 700> 700 100<275 700>
LayerCount: 2
Fore
SplineSet
0 750 m 1
 0 800 l 1
 700 800 l 1
 700 700 l 1
 275 700 l 1
 550 425 l 1
 225 100 l 1
 700 100 l 1
 700 0 l 1
 0 0 l 1
 0 100 l 1
 325 425 l 1
 0 750 l 1
EndSplineSet
EndChar

StartChar: Phi
Encoding: 934 934 443
Width: 1100
Flags: W
HStem: 0 21G<400 600> 0 21G<400 600> 100 100<279.535 400 600 720.465> 600 100<279.535 400 600 718.213> 780 20G<400 600>
VStem: 0 200<281.198 518.802> 400 200<0 100 200 600 700 800> 800 200<281.198 518.802>
CounterMasks: 1 07
LayerCount: 2
Fore
SplineSet
400 800 m 1xbf
 600 800 l 1
 600 700 l 1
 825 700 1000 575 1000 425 c 2
 1000 375 l 2
 1000 225 825 100 600 100 c 1
 600 0 l 1
 400 0 l 1
 400 100 l 1
 175 100 0 225 0 375 c 2
 0 425 l 2
 0 575 175 700 400 700 c 1
 400 800 l 1xbf
400 600 m 1
 275 600 200 550 200 425 c 2
 200 375 l 2
 200 250 275.006835938 201.1171875 400 200 c 1
 400 600 l 1
600 600 m 1
 600 200 l 1
 724.993164062 201.1171875 800 250 800 375 c 2
 800 425 l 2
 800 542.0078125 725 600 600 600 c 1
EndSplineSet
EndChar

StartChar: iota
Encoding: 953 953 444
Width: 400
Flags: W
HStem: 0 100<218.353 349.994> 580 20G<0 200>
VStem: 0 200<117.85 600>
LayerCount: 2
Fore
SplineSet
0 600 m 5
 200 600 l 5
 200 200 l 6
 200 125 225.036132812 101.907226562 275 100 c 4
 341.663085938 97.4560546875 350 125 350 125 c 5
 350 25 l 5
 350 25 349.556640625 0 250 0 c 4
 75 0 0 100 0 200 c 6
 0 600 l 5
EndSplineSet
EndChar

StartChar: kappa
Encoding: 954 954 445
Width: 700
Flags: W
HStem: 0 21G<0 200 430 600> 0 21G<0 200 430 600> 500 100<488.776 600>
VStem: 0 200<0 250 375 600>
LayerCount: 2
Fore
SplineSet
600 600 m 1xb0
 600 500 l 1
 525 500 477.705078125 477.705078125 425 425 c 2
 325 325 l 1
 600 50 l 1
 600 0 l 1
 450 0 l 1
 200 250 l 1
 200 0 l 1
 0 0 l 1
 0 600 l 1
 200 600 l 1
 200 375 l 1
 325 500 l 2
 387.250976562 562.250976562 454.645507812 600 550 600 c 2
 600 600 l 1xb0
EndSplineSet
EndChar

StartChar: uni03BC
Encoding: 956 956 446
Width: 600
Flags: W
HStem: 0 100<206.917 285.767> 580 20G<0 175 325 500>
VStem: 0 175<-200 8.63867 132.699 600> 325 175<138.506 600>
LayerCount: 2
Fore
SplineSet
0 600 m 1
 175 600 l 1
 175 400 l 1
 175 225 l 2
 175 150 216.192382812 100.899414062 250 100 c 0
 274.991210938 99.3349609375 325 150.385742188 325 225 c 2
 325 600 l 1
 500 600 l 1
 500 225 l 2
 500 125 450 0 250 0 c 0
 222.575195312 0 197.609375 3.076171875 175 8.638671875 c 1
 175 -200 l 1
 0 -200 l 1
 0 225 l 1
 0 400 l 1
 0 600 l 1
EndSplineSet
EndChar

StartChar: omicron
Encoding: 959 959 447
Width: 600
Flags: W
HStem: 0 100<210.804 285.767> 500 100<201.732 298.268>
VStem: 0 175<133.252 475.18> 325 175<138.506 475.18>
LayerCount: 2
Fore
SplineSet
500 375 m 2
 500 225 l 2
 500 125 450 0 250 0 c 0
 75 0 0 125 0 225 c 2
 0 375 l 2
 0 475 75 599.815429688 250 600 c 0
 425 600 500 475 500 375 c 2
175 375 m 2
 175 225 l 2
 175 150 216.192382812 100.899414062 250 100 c 0
 274.991210938 99.3349609375 325 150.385742188 325 225 c 2
 325 375 l 2
 325 450 300 500 250 500 c 0
 200 500 175 450 175 375 c 2
EndSplineSet
EndChar

StartChar: lambda
Encoding: 955 955 448
Width: 600
Flags: W
HStem: 0 21G<0 135 365 500> 0 21G<0 135 365 500> 700 100<0 35.6565>
LayerCount: 2
Fore
SplineSet
0 700 m 1xa0
 0 800 l 1
 50 800 l 2
 129.310546875 800 175 750 225 650 c 2
 500 100 l 1
 500 0 l 1
 375 0 l 1
 250 250 l 1
 125 0 l 1
 0 0 l 1
 0 100 l 1
 162.5 425 l 1
 62.5 625 l 2
 37.5 675 25 700 0 700 c 1xa0
EndSplineSet
EndChar

StartChar: nu
Encoding: 957 957 449
Width: 600
Flags: W
HStem: 0 21G<215 300> 0 21G<215 300> 580 20G<0 135 350 500>
VStem: 350 150<414.625 600>
LayerCount: 2
Fore
SplineSet
350 600 m 1xb0
 500 600 l 1
 500 450 l 2
 497.301757812 266.004882812 300 0 300 0 c 1
 225 0 l 1
 0 450 l 1
 0 600 l 1
 125 600 l 1
 275 300 l 1
 275 300 350 400 350 600 c 1xb0
EndSplineSet
EndChar

StartChar: xi
Encoding: 958 958 450
Width: 600
Flags: W
HStem: 0 100<235.629 391.397> 400 100<334.199 500> 700 100<0 126.117 336.683 500>
VStem: 0 200<147.632 346.991> 100 200<534.648 662.93> 400 100<-93.7654 -11.4706>
LayerCount: 2
Fore
SplineSet
0 800 m 1xf4
 500 800 l 1
 500 700 l 1
 400 700 l 2
 350 700 300 650 300 600 c 0
 300 550 343.890625 500 400 500 c 2
 500 500 l 1
 500 475 l 1
 500 400 l 1
 300 400 l 2xec
 250 400 200 350 200 250 c 0xf4
 200 125 250 100 300 100 c 0xec
 373.388671875 100 500 75 500 -50 c 0
 500 -150 450 -200 350 -200 c 1
 350 -100 l 1
 350 -100 400 -100 400 -50 c 0
 400 0 350 0 250 0 c 0
 150 0 0 100 0 250 c 0xf4
 0 352.416015625 71.201171875 419.840820312 163.25 452.330078125 c 1
 122.4765625 490.662109375 100 545.311523438 100 600 c 0xec
 100 634.733398438 109.068359375 669.45703125 126.1171875 700 c 1
 0 700 l 1
 0 800 l 1xf4
EndSplineSet
EndChar

StartChar: uni0394
Encoding: 916 916 451
Width: 1000
Flags: W
HStem: 0 100<200 700> 780 20G<365 535>
LayerCount: 2
Fore
SplineSet
0 0 m 1
 0 50 l 1
 375 800 l 1
 525 800 l 1
 900 50 l 1
 900 0 l 1
 0 0 l 1
200 100 m 1
 700 100 l 1
 450 600 l 1
 200 100 l 1
EndSplineSet
EndChar

StartChar: Gamma
Encoding: 915 915 452
Width: 800
Flags: W
HStem: 0 21G<0 200> 0 21G<0 200> 700 100<200 700>
VStem: 0 200<0 700>
LayerCount: 2
Fore
SplineSet
0 800 m 1xb0
 700 800 l 1
 700 700 l 1
 200 700 l 1
 200 0 l 1
 0 0 l 1
 0 800 l 1xb0
EndSplineSet
EndChar

StartChar: Psi
Encoding: 936 936 453
Width: 1100
Flags: W
HStem: 0 21G<400 600> 0 21G<400 600> 200 100<279.535 400 600 720.465> 780 20G<0 200 400 600 800 1000>
VStem: 0 200<368.501 800> 400 200<0 200 300 800> 800 200<368.501 800>
CounterMasks: 1 0e
LayerCount: 2
Fore
SplineSet
0 800 m 1xbe
 200 800 l 1
 200 450 l 2
 200 350 275.006835938 301.1171875 400 300 c 1
 400 800 l 1
 600 800 l 1
 600 300 l 1
 724.993164062 301.1171875 800 350 800 450 c 2
 800 800 l 1
 1000 800 l 1
 1000 450 l 2
 1000 275 824.999023438 200 600 200 c 1
 600 0 l 1
 400 0 l 1
 400 200 l 1
 175.000976562 200 0 275 0 450 c 2
 0 800 l 1xbe
EndSplineSet
EndChar

StartChar: uni03A9
Encoding: 937 937 454
Width: 900
Flags: W
HStem: 0 100<25 225 575 775> 700 100<309.918 490.022>
VStem: 0 200<335.685 573.427> 600 200<333.019 573.02>
LayerCount: 2
Fore
SplineSet
400 800 m 0
 624.999023438 800 797.643554688 649.985351562 800 450 c 0
 801.798828125 297.313476562 675 200 575 100 c 1
 775 100 l 1
 775 0 l 1
 500 0 l 1
 500 100 l 1
 500 200 l 1
 550.369140625 250.423828125 600 363.26953125 600 450 c 0
 600 575 525 700 400 700 c 0
 275 700 200 575 200 450 c 0
 200 363.26953125 250 250 300 200 c 1
 300 100 l 1
 300 0 l 1
 25 0 l 1
 25 100 l 1
 225 100 l 1
 125 200 0 300 0 450 c 0
 0 649.999023438 175.000976562 800 400 800 c 0
EndSplineSet
EndChar

StartChar: eta
Encoding: 951 951 455
Width: 600
Flags: W
HStem: 0 21G<0 200> 0 21G<0 200> 500 100.053<200 258.13>
VStem: 0 200<0 500> 300 200<-200 456.989>
LayerCount: 2
Fore
SplineSet
0 0 m 1xb8
 0 600 l 1
 200 600.052734375 l 1
 250 600 l 2
 425 599.815429688 500 475 500 375 c 2
 500 -200 l 1
 300 -200 l 1
 300 375 l 2
 300 450 248.28515625 500 200 500 c 1
 200 0 l 1
 0 0 l 1xb8
EndSplineSet
EndChar

StartChar: theta
Encoding: 952 952 456
Width: 600
Flags: W
HStem: 0 100<200.958 299.042> 325 150<175 325> 700 100<200.958 299.042>
VStem: 0 175<153.685 325 475 646.315> 325 175<153.685 325 475 646.315>
CounterMasks: 1 e0
LayerCount: 2
Fore
SplineSet
250 800 m 0
 475 800 500 625 500 425 c 2
 500 375 l 2
 500 175 475 0 250 0 c 0
 25 0 0 175 0 375 c 2
 0 425 l 2
 0 625 25 800 250 800 c 0
250 700 m 0
 175 700 175 600 175 475 c 1
 325 475 l 1
 325 600 325 700 250 700 c 0
175 325 m 1
 175 200 175 100 250 100 c 0
 325 100 325 200 325 325 c 1
 175 325 l 1
EndSplineSet
EndChar

StartChar: gamma
Encoding: 947 947 457
Width: 600
Flags: W
HStem: 580 20G<0 135 350 500>
VStem: 125 175<-200 0> 350 150<414.625 600>
LayerCount: 2
Fore
SplineSet
0 600 m 1
 125 600 l 1
 275 300 l 1
 275 300 350 400 350 600 c 1
 500 600 l 1
 500 450 l 2
 497.301757812 266.004882812 300 0 300 0 c 1
 300 -200 l 1
 125 -200 l 1
 125 200 l 1
 0 450 l 1
 0 600 l 1
EndSplineSet
EndChar

StartChar: rho
Encoding: 961 961 458
Width: 600
Flags: W
HStem: 0 100<206.917 285.767> 500 100<201.732 298.268>
VStem: 0 175<-200 8.63867 132.699 475.18> 325 175<138.506 475.18>
LayerCount: 2
Fore
SplineSet
250 600 m 0
 425 600 500 475 500 375 c 2
 500 225 l 2
 500 125 450 0 250 0 c 0
 222.575195312 0 197.609375 3.076171875 175 8.638671875 c 1
 175 -200 l 1
 0 -200 l 1
 0 225 l 1
 0 300 l 1
 0 375 l 2
 0 475 75 599.815429688 250 600 c 0
250 500 m 0
 200 500 175 450 175 375 c 2
 175 300 l 1
 175 225 l 2
 175 150 216.192382812 100.899414062 250 100 c 0
 274.991210938 99.3349609375 325 150.385742188 325 225 c 2
 325 375 l 2
 325 450 300 500 250 500 c 0
EndSplineSet
EndChar

StartChar: sigma
Encoding: 963 963 459
Width: 700
Flags: W
HStem: 0 100<210.804 285.767> 500 100<203.397 299.933 460.611 600>
VStem: 0 175<133.252 475.18> 325 175<138.506 475.18>
LayerCount: 2
Fore
SplineSet
250 600 m 2
 600 600 l 1
 600 500 l 1
 460.611328125 500 l 1
 487.426757812 460.9921875 500 415.909179688 500 375 c 2
 500 225 l 2
 500 125 450 0 250 0 c 0
 75 0 0 125 0 225 c 2
 0 375 l 2
 0 475 75 599.815429688 250 600 c 2
250 500 m 0
 200 500 175 450 175 375 c 2
 175 225 l 2
 175 150 216.192382812 100.899414062 250 100 c 0
 274.991210938 99.3349609375 325 150.385742188 325 225 c 2
 325 375 l 2
 325 450 300 500 250 500 c 0
EndSplineSet
EndChar

StartChar: pi
Encoding: 960 960 460
Width: 800
Flags: W
HStem: 0 100<618.353 749.994> 500 100<0 100 300 400 600 700>
VStem: 100 200<0 500> 400 200<117.85 500>
LayerCount: 2
Fore
SplineSet
0 600 m 1
 400 600 l 1
 600 600 l 1
 700 600 l 1
 700 500 l 1
 600 500 l 1
 600 200 l 2
 600 125 625.036132812 101.907226562 675 100 c 0
 741.663085938 97.4560546875 750 125 750 125 c 1
 750 25 l 1
 750 25 749.556640625 0 650 0 c 0
 475 0 400 100 400 200 c 2
 400 500 l 1
 300 500 l 1
 300 0 l 1
 100 0 l 1
 100 500 l 1
 0 500 l 1
 0 600 l 1
EndSplineSet
EndChar

StartChar: tau
Encoding: 964 964 461
Width: 700
Flags: W
HStem: 0 100<418.353 549.994> 500 100<0 200 400 600>
VStem: 200 200<117.85 500>
LayerCount: 2
Fore
SplineSet
0 600 m 1
 200 600 l 1
 400 600 l 1
 600 600 l 1
 600 500 l 1
 400 500 l 1
 400 200 l 2
 400 125 425.036132812 101.907226562 475 100 c 0
 541.663085938 97.4560546875 550 125 550 125 c 1
 550 25 l 1
 550 25 549.556640625 0 450 0 c 0
 275 0 200 100 200 200 c 2
 200 500 l 1
 0 500 l 1
 0 600 l 1
EndSplineSet
EndChar

StartChar: psi
Encoding: 968 968 462
Width: 900
Flags: W
HStem: 0 100<241.87 300 500 558.13> 580 20G<0 200 600 800> 780 20G<300 500>
VStem: 0 200<143.011 600> 300 200<-200 -0.0527344 100 800> 600 200<143.011 600>
CounterMasks: 1 1c
LayerCount: 2
Fore
SplineSet
300 800 m 1
 500 800 l 1
 500 100 l 1
 548.28515625 100 600 150 600 225 c 2
 600 600 l 1
 800 600 l 1
 800 225 l 2
 800 125 725 0.1845703125 550 0 c 2
 500 -0.052734375 l 1
 500 -200 l 1
 300 -200 l 1
 300 -0.052734375 l 1
 250 0 l 2
 75 0.1845703125 0 125 0 225 c 2
 0 600 l 1
 200 600 l 1
 200 225 l 2
 200 150 251.71484375 100 300 100 c 1
 300 800 l 1
EndSplineSet
EndChar

StartChar: upsilon
Encoding: 965 965 463
Width: 600
Flags: W
HStem: 0 100<208.86 291.14> 580 20G<0 175 300 450>
VStem: 0 175<133.252 600> 325 175<133.445 540.979>
LayerCount: 2
Fore
SplineSet
500 225 m 2
 500 125 424.997070312 1.0400390625 250 0 c 0
 75 0 0 125 0 225 c 2
 0 600 l 1
 175 600 l 1
 175 225 l 2
 175 150 216.192382812 100.899414062 250 100 c 0
 283.807617188 100.899414062 325 150 325 225 c 2
 325 400 l 2
 325 500 300 600 300 600 c 1
 450 600 l 1
 450 600 500 500 500 400 c 2
 500 225 l 2
EndSplineSet
EndChar

StartChar: omega
Encoding: 969 969 464
Width: 900
Flags: W
HStem: 0 100<210.804 278.902 521.821 589.196> 580 20G<50 200 300 500 600 750>
VStem: 0 175<133.252 540.979> 300 200<142.957 600> 625 175<133.445 540.979>
CounterMasks: 1 38
LayerCount: 2
Fore
SplineSet
50 600 m 1
 200 600 l 1
 200 600 175 500 175 400 c 2
 175 225 l 2
 175 150 216.192382812 100.899414062 250 100 c 0
 274.991210938 99.3349609375 300 150.385742188 300 225 c 2
 300 600 l 1
 350 600 l 1
 450 600 l 1
 500 600 l 1
 500 225 l 2
 500 150.385742188 525.008789062 99.3349609375 550 100 c 0
 583.807617188 100.899414062 625 150 625 225 c 2
 625 400 l 2
 625 500 600 600 600 600 c 1
 750 600 l 1
 750 600 800 500 800 400 c 2
 800 225 l 2
 800 125 724.99609375 1.0400390625 550 0 c 0
 480.158203125 -0.4150390625 432.23828125 63.4130859375 400.830078125 142.080078125 c 1
 369.845703125 63.666015625 321.805664062 0 250 0 c 0
 75 0 0 125 0 225 c 2
 0 400 l 2
 0 500 50 600 50 600 c 1
EndSplineSet
EndChar

StartChar: tonos
Encoding: 900 900 465
Width: 200
Flags: W
HStem: 625 175
VStem: 0 200
LayerCount: 2
Fore
SplineSet
100 800 m 1
 200 800 l 1
 100 625 l 1
 0 625 l 1
 100 800 l 1
EndSplineSet
EndChar

StartChar: dieresistonos
Encoding: 901 901 466
Width: 600
Flags: W
HStem: 675 125<17.1282 132.868 367.128 482.868>
VStem: 0 150<691.844 796.232> 350 150<691.844 796.232>
LayerCount: 2
Fore
SplineSet
225 800 m 1
 325 800 l 1
 225 625 l 1
 125 625 l 1
 225 800 l 1
50 800 m 2
 100 800 l 2
 118.450195312 800 150 795.7109375 150 750 c 0
 150 704.2890625 116.420898438 675 75 675 c 0
 33.5791015625 675 0 704.2890625 0 750 c 0
 0 795.7109375 31.5380859375 800 50 800 c 2
400 800 m 2
 450 800 l 2
 468.450195312 800 500 795.7109375 500 750 c 0
 500 704.2890625 466.420898438 675 425 675 c 0
 383.579101562 675 350 704.2890625 350 750 c 0
 350 795.7109375 381.538085938 800 400 800 c 2
EndSplineSet
EndChar

StartChar: beta
Encoding: 946 946 474
Width: 600
Flags: W
HStem: 0 100<200 266.114> 400 100<200 268.395> 700 100<216.129 298.611>
VStem: 0 200<-200 0 100 400 500 690.698> 325 175<152.499 344.325> 325 150<530.245 677.223>
LayerCount: 2
Fore
SplineSet
250 800 m 0xf8
 424.999023438 800 475 700 475 600 c 0xf4
 475 543.763671875 459.186523438 487.52734375 414.22265625 449.076171875 c 1
 473.16796875 403.47265625 500 334.779296875 500 275 c 2
 500 225 l 2
 500 125 424.999023438 0 250 0 c 2
 200 0 l 1
 200 -200 l 1
 0 -200 l 1
 0 600 l 2
 0 700 75 800 250 800 c 0xf8
250 700 m 0
 225 700 200 675 200 600 c 2
 200 500 l 1
 225 500 325 500 325 600 c 0
 325 675 279.202148438 700 250 700 c 0
200 400 m 1
 200 100 l 1
 250 100 325 150 325 225 c 2
 325 275 l 2xf8
 325 350 248.284179688 400 200 400 c 1
EndSplineSet
EndChar

StartChar: uni03D0
Encoding: 976 976 475
Width: 600
Flags: W
HStem: 0 100<200 258.13> 400 100<200 258.801> 700 100<216.129 284.466>
VStem: 0 200<100 400 500 690.698> 300 200<142.832 356.989> 300 175<535.279 691.306>
LayerCount: 2
Fore
SplineSet
250 800 m 0xf8
 424.999023438 800 475 700 475 600 c 0xf4
 475 543.763671875 459.186523438 487.52734375 414.22265625 449.076171875 c 1
 473.16796875 403.47265625 500 334.779296875 500 275 c 2
 500 225 l 2
 500 125 424.999023438 0 250 0 c 2
 200 0 l 1
 0 0 l 1
 0 600 l 2
 0 700 75 800 250 800 c 0xf8
250 700 m 0
 225 700 200 675 200 600 c 2
 200 500 l 1
 225 500 300 525 300 600 c 0
 300 675 279.202148438 700 250 700 c 0
200 400 m 1
 200 100 l 1
 250 100 300 150 300 225 c 2
 300 275 l 2xf8
 300 350 248.284179688 400 200 400 c 1
EndSplineSet
EndChar

StartChar: alpha
Encoding: 945 945 484
Width: 700
Flags: W
HStem: 0 100<198.222 269.715 537.991 600> 500 100<198.222 269.715 537.991 600>
VStem: 0 175<119.106 480.852> 300 200<138.186 461.814>
LayerCount: 2
Fore
SplineSet
225 600 m 0
 282.737304688 600 345.780273438 557.287109375 396.939453125 496.583984375 c 1
 449.045898438 557.287109375 519.16796875 600 600 600 c 1
 600 500 l 1
 522.841796875 502.543945312 500 425 500 350 c 0
 500 333.81640625 498.159179688 317.033203125 494.88671875 300 c 1
 498.159179688 282.966796875 500 266.18359375 500 250 c 0
 500 175 522.841796875 97.4560546875 600 100 c 1
 600 0 l 1
 519.16796875 0 449.045898438 42.712890625 396.939453125 103.416015625 c 1
 345.780273438 42.712890625 282.737304688 0 225 0 c 0
 50.0009765625 0 0 125 0 225 c 2
 0 375 l 2
 0 475 50.0009765625 599.815429688 225 600 c 0
225 500 m 0
 200 500 175 450 175 375 c 2
 175 225 l 2
 175 150 200 100 225 100 c 0
 250 100 300 125 300 250 c 0
 300 266.18359375 301.540039062 282.966796875 304.35546875 300 c 1
 301.540039062 317.033203125 300 333.81640625 300 350 c 0
 300 475 250 500 225 500 c 0
EndSplineSet
EndChar

StartChar: delta
Encoding: 948 948 485
Width: 600
Flags: W
HStem: 0 100<210.804 285.767> 500 100<200.067 296.603> 700 100<185.241 416.847>
VStem: 0 175<133.252 475.18> 25 150<611.471 688.762> 325 175<138.506 475.18>
LayerCount: 2
Fore
SplineSet
250 800 m 0xec
 400 800 475 750 475 750 c 1
 475 650 l 1
 475 650 404.31640625 696.18359375 250 700 c 0
 200.015625 701.236328125 175 675 175 650 c 0xec
 175 625 200 600 250 600 c 0
 425 600 500 475 500 375 c 2
 500 225 l 2
 500 125 450 0 250 0 c 0
 75 0 0 125 0 225 c 2
 0 375 l 2xf4
 0 440.301757812 32.0068359375 516.166015625 102.93359375 561.015625 c 1
 59.5380859375 591.466796875 24.4296875 631.129882812 25 675 c 0
 25.974609375 749.993164062 100 800 250 800 c 0xec
250 500 m 0
 200 500 175 450 175 375 c 2
 175 225 l 2xf4
 175 150 216.192382812 100.899414062 250 100 c 0
 274.991210938 99.3349609375 325 150.385742188 325 225 c 2
 325 375 l 2
 325 450 300 500 250 500 c 0
EndSplineSet
EndChar

StartChar: epsilon
Encoding: 949 949 486
Width: 600
Flags: W
HStem: 0 100<228.514 499.963> 225 150<208.958 400> 500 100<228.514 499.963>
VStem: 0 200<127.479 207.7 392.3 472.521>
CounterMasks: 1 e0
LayerCount: 2
Fore
SplineSet
300 600 m 0
 450 600 500 575 500 575 c 1
 500 475 l 1
 500 475 450 500 350 500 c 0
 250 500 200 475 200 425 c 0
 200 400 225 375 300 375 c 2
 400 375 l 1
 400 225 l 1
 300 225 l 2
 225 225 200 200 200 175 c 0
 200 125 250 100 350 100 c 0
 450 100 500 125 500 125 c 1
 500 25 l 1
 500 25 450 0 300 0 c 0
 150 0 1.16015625 50.0068359375 0 150 c 0
 -0.4775390625 191.127929688 57.6904296875 251.955078125 126.369140625 300 c 1
 57.6904296875 348.044921875 -0.4775390625 408.872070312 0 450 c 0
 1.16015625 549.993164062 150 600 300 600 c 0
EndSplineSet
EndChar

StartChar: zeta
Encoding: 950 950 487
Width: 600
Flags: W
HStem: 0 100<235.629 391.397> 700 100<0 350>
VStem: 0 200<147.656 347.391> 400 100<-93.7654 -11.4706>
LayerCount: 2
Fore
SplineSet
350 -200 m 1
 350 -100 l 1
 350 -100 400 -100 400 -50 c 0
 400 0 350 0 250 0 c 0
 150 0 0 100 0 250 c 0
 0 400 200 550 250 600 c 2
 350 700 l 1
 0 700 l 1
 0 800 l 1
 500 800 l 1
 500 650 l 1
 350 500 l 2
 300 450 197.301757812 355.397460938 200 250 c 0
 203.19921875 125.041015625 250 100 300 100 c 0
 373.388671875 100 500 75 500 -50 c 0
 500 -150 450 -200 350 -200 c 1
EndSplineSet
EndChar

StartChar: sigma1
Encoding: 962 962 488
Width: 600
Flags: W
HStem: 0 100<250.468 391.397> 500 100<256.643 500>
VStem: 0 200<170.371 424.671> 400 100<-93.7654 -11.4706>
LayerCount: 2
Fore
SplineSet
300 600 m 2
 500 600 l 1
 500 500 l 1
 300 500 l 2
 250 500 200 400 200 300 c 0
 200 175 250 100 300 100 c 0
 373.388671875 100 500 75 500 -50 c 0
 500 -150 450 -200 350 -200 c 1
 350 -100 l 1
 350 -100 400 -100 400 -50 c 0
 400 0 350 0 250 0 c 0
 150 0 1.7880859375 100.0078125 0 300 c 0
 -1.798828125 501.274414062 108.62109375 600 300 600 c 2
EndSplineSet
EndChar

StartChar: phi
Encoding: 966 966 489
Width: 900
Flags: W
HStem: 0 100<252.204 300 500 540.095> 500 100<259.905 300 526.195 569.276>
VStem: 0 200<168.753 424.671> 300 200<-200 0 100 376.132> 600 200<175.329 464.572>
CounterMasks: 1 38
LayerCount: 2
Fore
SplineSet
300 600 m 1
 300 500 l 1
 250 500 200 400 200 300 c 0
 200 175 250 100 300 100 c 1
 300 225 l 2
 300 425 428.411132812 599.100585938 550 600 c 0
 725 600 798.211914062 499.9921875 800 300 c 0
 801.798828125 98.7255859375 675 0 500 0 c 1
 500 -200 l 1
 300 -200 l 1
 300 0 l 1
 125 0 1.7880859375 100.0078125 0 300 c 0
 -1.798828125 501.274414062 125 600 300 600 c 1
550 500 m 0
 525 500 500 425 500 300 c 2
 500 100 l 1
 550 100 600 200 600 300 c 0
 600 425 572.114257812 496.401367188 550 500 c 0
EndSplineSet
EndChar

StartChar: chi
Encoding: 967 967 490
Width: 600
Flags: W
HStem: 580 20G<0 135 365 500>
LayerCount: 2
Fore
SplineSet
125 -200 m 1
 0 -200 l 1
 0 -100 l 1
 150 200 l 1
 0 500 l 1
 0 600 l 1
 125 600 l 1
 250 350 l 1
 375 600 l 1
 500 600 l 1
 500 500 l 1
 350 200 l 1
 500 -100 l 1
 500 -200 l 1
 375 -200 l 1
 250 50 l 1
 125 -200 l 1
EndSplineSet
EndChar

StartChar: phi1
Encoding: 981 981 497
Width: 900
Flags: W
HStem: 0 100<252.204 300 500 540.095> 500 100<259.905 300 500 547.796> 780 20G<300 500>
VStem: 0 200<168.753 424.671> 300 200<-200 0 100 500 600 800> 600 200<175.329 431.247>
CounterMasks: 1 1c
LayerCount: 2
Fore
SplineSet
300 800 m 5
 500 800 l 5
 500 600 l 5
 675 600 798.211914062 499.9921875 800 300 c 4
 801.798828125 98.7255859375 675 0 500 0 c 5
 500 -200 l 5
 300 -200 l 5
 300 0 l 5
 125 0 1.7880859375 100.0078125 0 300 c 4
 -1.798828125 501.274414062 125 600 300 600 c 5
 300 800 l 5
300 500 m 5
 250 500 200 400 200 300 c 4
 200 175 250 100 300 100 c 5
 300 500 l 5
500 500 m 5
 500 100 l 5
 550 100 600 200 600 300 c 4
 600 425 550 500 500 500 c 5
EndSplineSet
EndChar

StartChar: uni03CF
Encoding: 975 975 498
Width: 700
Flags: W
HStem: 0 21G<0 200> 0 21G<0 200> 780 20G<0 200 455 600>
VStem: 0 200<0 325 525 800>
LayerCount: 2
Fore
SplineSet
0 800 m 1xb0
 200 800 l 1
 200 525 l 1
 475 800 l 1
 600 800 l 1
 600 725 l 1
 300 425 l 1
 600 125 l 1
 600 0 l 1x70
 400 -200 l 1
 300 -200 l 1
 300 -100 l 1
 462.5 62.5 l 1
 200 325 l 1
 200 0 l 1
 0 0 l 1
 0 800 l 1xb0
EndSplineSet
EndChar

StartChar: theta1
Encoding: 977 977 499
Width: 700
Flags: W
HStem: 0.0175781 100<200.844 298.929> 325 150<207.412 325 500 600> 700.018 100<203.397 298.929>
VStem: 0 175<137.987 300 505.011 669.64> 325 175<143.23 325 475 656.794>
LayerCount: 2
Fore
SplineSet
250 800.017578125 m 0
 475 800.0390625 500 625 500 475 c 1
 600 475 l 1
 600 325 l 1
 500 325 l 1
 500 175 475 0.0341796875 250 0.017578125 c 0
 25 0.0009765625 0 175 0 300 c 1
 175 300 l 1
 175 200 175 100.000976562 250 100.017578125 c 0
 325 100.034179688 325 200 325 325 c 1
 300 325 l 2
 100 325 0.8994140625 428.411132812 0 550 c 0
 0 675 75 800.000976562 250 800.017578125 c 0
250 700.017578125 m 0
 175 700.000976562 175 600 175 550 c 0
 175 525 200 475 325 475 c 1
 325 600 325 700.034179688 250 700.017578125 c 0
EndSplineSet
EndChar

StartChar: Upsilon1
Encoding: 978 978 500
Width: 900
Flags: W
HStem: 0 21G<200 400> 0 21G<200 400> 700 100<600 693.213>
VStem: 200 200<0 300>
LayerCount: 2
Fore
SplineSet
0 800 m 1xb0
 125 800 l 1
 300 450 l 1
 300 450 386.7890625 625 425 700 c 0
 463.2109375 775 500 800 600 800 c 2
 650 800 l 2
 750 800 800 750 800 650 c 1
 700 650 l 1
 700 650 700 700 650 700 c 2
 600 700 l 1
 400 300 l 1
 400 0 l 1
 200 0 l 1
 200 300 l 1
 0 700 l 1
 0 800 l 1xb0
EndSplineSet
EndChar

StartChar: omega1
Encoding: 982 982 501
Width: 900
Flags: W
HStem: 0 100<210.804 278.902 521.821 589.196> 500 100<0 13.9746 179.127 300 500 620.873 786.025 800>
VStem: 0 175<133.252 498.563> 300 200<142.957 500> 625 175<133.445 498.563>
CounterMasks: 1 38
LayerCount: 2
Fore
SplineSet
0 600 m 1
 50 600 l 1
 200 600 l 1
 300 600 l 1
 350 600 l 1
 450 600 l 1
 800 600 l 1
 800 500 l 1
 786.025390625 500 l 1
 793.91015625 469.435546875 800 434.767578125 800 400 c 2
 800 225 l 2
 800 125 724.99609375 1.0400390625 550 0 c 0
 480.158203125 -0.4150390625 432.23828125 63.4130859375 400.830078125 142.080078125 c 1
 369.845703125 63.666015625 321.805664062 0 250 0 c 0
 75 0 0 125 0 225 c 2
 0 400 l 2
 0 434.767578125 6.08984375 469.435546875 13.974609375 500 c 1
 0 500 l 1
 0 600 l 1
182.0546875 500 m 1
 178.102539062 469.397460938 175 434.826171875 175 400 c 2
 175 225 l 2
 175 150 216.192382812 100.899414062 250 100 c 0
 274.991210938 99.3349609375 300 150.385742188 300 225 c 2
 300 500 l 1
 182.0546875 500 l 1
500 500 m 1
 500 225 l 2
 500 150.385742188 525.008789062 99.3349609375 550 100 c 0
 583.807617188 100.899414062 625 150 625 225 c 2
 625 400 l 2
 625 434.826171875 621.897460938 469.397460938 617.9453125 500 c 1
 500 500 l 1
EndSplineSet
EndChar

StartChar: uni03D7
Encoding: 983 983 502
Width: 700
Flags: W
HStem: 0 100<0 48.6733> 500 100<0 44.7773 555.351 600>
VStem: 100 149.488<324.488 425.464> 350.467 149.533<165.655 283.391> 500 100<-93.2129 36.9417>
LayerCount: 2
Fore
SplineSet
0 600 m 1xf0
 119.806640625 600 241.1875 509.240234375 249.48828125 324.48828125 c 1
 380.58203125 455.58203125 l 1
 425.41796875 552.251953125 513.119140625 600 600 600 c 1
 600 500 l 1
 550 500 500 400 500 300 c 0
 500 175 550 100 600 100 c 1
 600 0 l 1
 600 -50 l 2
 600 -150 550 -200 450 -200 c 1
 450 -100 l 1
 450 -100 500 -100 500 -50 c 2
 500 22.63671875 l 1xe8
 419.779296875 60.9140625 356.411132812 147.818359375 350.466796875 283.390625 c 1
 218.287109375 145.986328125 l 1
 173.432617188 48.70703125 87.177734375 0 0 0 c 1
 0 100 l 1
 50 100 100 175 100 300 c 0
 100 400 50 500 0 500 c 1
 0 600 l 1xf0
EndSplineSet
EndChar

StartChar: ogonek
Encoding: 731 731 505
Width: 400
Flags: W
HStem: -200 200<100 200> -200 75<300 400>
VStem: 0 200<-109.46 -33.5107>
LayerCount: 2
Fore
SplineSet
250 -25 m 5xa0
 250 -25 200 -25 200 -75 c 4
 200 -125 300 -125 300 -125 c 5
 400 -125 l 5
 400 -200 l 5x60
 100 -200 l 5
 100 -200 0 -200 0 -100 c 4
 0 -7.908203125 100 0 100 0 c 5
 250 0 l 5
 250 -25 l 5xa0
EndSplineSet
EndChar

StartChar: tilde
Encoding: 732 732 506
Width: 500
Flags: W
HStem: 625 75<300.523 350> 700 100<150 204.597>
LayerCount: 2
Fore
SplineSet
200 800 m 0x40
 300 800 275 700 350 700 c 1x80
 400 775 l 1
 500 775 l 1
 450 700 l 2x40
 422.264648438 658.397460938 400 625 300 625 c 0x80
 200 625 225 700 150 700 c 1x40
 100 625 l 1
 0 625 l 1x80
 50 700 l 2
 77.7353515625 741.602539062 100 800 200 800 c 0x40
EndSplineSet
EndChar

StartChar: uni02BC
Encoding: 700 700 507
Width: 200
Flags: W
HStem: 500 300
VStem: 50 150<587.5 725>
LayerCount: 2
Fore
SplineSet
50 500 m 5
 0 550 l 5
 33.9052734375 571.18359375 50 575 50 600 c 4
 50 625 -1.2724609375 620.33984375 0 700 c 4
 0.798828125 749.993164062 50 800 100 800 c 4
 150 800 200 750 200 700 c 4
 200 575 94.08203125 525 50 500 c 5
EndSplineSet
EndChar

StartChar: uniE2B4
Encoding: 58036 58036 508
Width: 1200
HStem: 0 21G<222.404 277.596 522.404 577.596 736.202 763.798 836.202 863.798> 0 21G<222.404 277.596 522.404 577.596 736.202 763.798 836.202 863.798> 100 100<25 75 100 150 1025 1075> 125 50<75 100 1000 1025> 525 75<800 900 1000 1075> 575 25<175 200 300 325>
VStem: 25 50<100 125 175 200> 200 100<500 575> 700 100<6.03846 50 500 525> 800 100<6.03846 50> 900 100<350 525> 1025 50<100 125 175 200>
LayerCount: 2
Fore
SplineSet
175 600 m 1x2790
 325 600 l 1
 325 575 l 1
 300 575 l 1
 300 500 l 1
 700 500 l 1
 700 600 l 1x2790
 1075 600 l 1
 1075 525 l 1
 1000 525 l 1
 1000 175 l 1
 1025 175 l 1x1bb0
 1025 200 l 1
 1075 200 l 1
 1075 100 l 1
 1025 100 l 1x23b0
 1025 125 l 1
 1000 125 l 1x13b0
 1000 100 l 1x23b0
 950 50 l 1
 900 50 l 1x2350
 900 22.404296875 877.595703125 0 850 0 c 0
 822.404296875 0 800 22.404296875 800 50 c 1
 800 22.404296875 777.595703125 0 750 0 c 0
 722.404296875 0 700 22.404296875 700 50 c 1
 650 100 l 1
 650 44.80859375 605.19140625 0 550 0 c 0
 494.80859375 0 450 44.80859375 450 100 c 1
 350 100 l 1
 350 44.80859375 305.19140625 0 250 0 c 0
 194.80859375 0 150 44.80859375 150 100 c 1
 100 100 l 1xa390
 100 125 l 1
 75 125 l 1x1390
 75 100 l 1
 25 100 l 1
 25 200 l 1
 75 200 l 1x2390
 75 175 l 1
 100 175 l 1x1390
 100 200 l 1
 150 200 l 1
 150 225 l 1
 100 225 l 1
 100 500 l 1
 200 500 l 1
 200 575 l 1
 175 575 l 1
 175 600 l 1x2790
800 525 m 1x0bb0
 800 350 l 1x0b50
 900 350 l 1
 900 525 l 1
 800 525 l 1x0bb0
EndSplineSet
EndChar

StartChar: uniE2B5
Encoding: 58037 58037 509
Width: 1100
Flags: W
HStem: 0 21G<172.404 227.596 772.404 827.596> 0 21G<172.404 227.596 772.404 827.596> 100 100<325 450 950 1000> 500 50<109.152 200> 580 20G<400 1000>
VStem: 200 125<325 500>
LayerCount: 2
Fore
SplineSet
400 600 m 1xbc
 1000 600 l 1
 1000 225 l 1
 950 225 l 1
 950 200 l 1
 1000 200 l 1
 1000 100 l 1
 900 100 l 1
 900 44.80859375 855.19140625 0 800 0 c 0
 744.80859375 0 700 44.80859375 700 100 c 1
 300 100 l 1
 300 44.80859375 255.19140625 0 200 0 c 0
 144.80859375 0 100 44.80859375 100 100 c 1
 50 100 l 2
 25 100 0 125 0 150 c 2
 0 300 l 1
 50 500 l 2
 59.201171875 536.8046875 75 550 100 550 c 2
 325 550 l 1
 325 200 l 1
 450 200 l 1
 450 225 l 1
 400 225 l 1
 400 600 l 1xbc
150 500 m 2
 125 500 108.661132812 486.936523438 100 450 c 0
 76.4755859375 349.676757812 68.0546875 325 68.0546875 325 c 1
 200 325 l 1
 200 500 l 1
 150 500 l 2
EndSplineSet
EndChar

StartChar: uniE2B6
Encoding: 58038 58038 510
Width: 1200
HStem: 0 21G<172.404 227.596 872.404 927.596> 0 21G<172.404 227.596 872.404 927.596> 100 275<325 400 500 600 700 775> 100 75<1075 1100> 500 100<107.192 200 300 400 500 600 700 800 900 1000>
VStem: 25 75<300 492.808> 200 100<375 500> 400 100<375 500> 600 100<375 500> 800 100<375 500> 1000 100<375 500> 1025 75<100 125>
LayerCount: 2
Fore
SplineSet
100 600 m 2x9fe0
 1050 600 l 2
 1075 600 1100 575 1100 550 c 2
 1100 200 l 1
 1075 200 l 1
 1075 175 l 1
 1100 175 l 1
 1100 100 l 1
 1025 100 l 1
 1025 125 l 1x9fd0
 1000 125 l 1
 1000 100 l 2
 1000 44.80859375 955.19140625 0 900 0 c 0
 844.80859375 0 800 44.80859375 800 100 c 2x9fe0
 800 125 l 1
 775 125 l 1
 775 100 l 1
 325 100 l 1x2fe0
 325 125 l 1
 300 125 l 1
 300 100 l 2
 300 44.80859375 255.19140625 0 200 0 c 0
 144.80859375 0 100 44.80859375 100 100 c 2
 100 125 l 1
 75 125 l 1
 75 100 l 1
 50 100 l 2
 25 100 0 125 0 150 c 2
 0 275 l 1
 25 300 l 1
 25 500 l 1
 0 500 l 1
 0 550 50 600 100 600 c 2x9fe0
150 500 m 2
 125 500 100 475 100 450 c 2
 100 300 l 1
 200 300 l 1
 200 500 l 1
 150 500 l 2
300 500 m 1
 300 375 l 1
 400 375 l 1x2fc0
 400 500 l 1
 300 500 l 1
500 500 m 1
 500 375 l 1
 600 375 l 1
 600 500 l 1
 500 500 l 1
700 500 m 1
 700 375 l 1
 800 375 l 1
 800 500 l 1
 700 500 l 1
900 500 m 1
 900 375 l 1
 1000 375 l 1
 1000 500 l 1x2fe0
 900 500 l 1
EndSplineSet
EndChar

StartChar: uniE2B7
Encoding: 58039 58039 511
Width: 1300
Flags: W
HStem: 200 100<107.192 192.808 307.192 392.808 775 792.808> 425 75<109.302 192.808 307.192 392.808 507.192 525 775 792.808 907.192 966.989>
VStem: 0 100<307.192 390.025> 200 100<307.192 417.808> 400 100<307.192 417.808> 600 100<307.192 417.808> 800 100<307.192 417.808>
LayerCount: 2
Fore
SplineSet
750 700 m 6
 800 700 l 5
 775 500 l 5
 900 500 l 6
 975 500 1075 625 1100 650 c 4
 1125 675 1150 700 1175 700 c 6
 1200 700 l 5
 1200 400 l 5
 1050 300 l 6
 975 250 900 200 850 200 c 6
 775 200 l 5
 800 -100 l 5
 750 -100 l 6
 700 -100 675 -50 650 -25 c 6
 425 200 l 5
 100 200 l 6
 50 200 0 250 0 300 c 4
 0 400 100 500 200 500 c 6
 525 500 l 5
 675 650 l 6
 700 675 738.5859375 700 750 700 c 6
150 425 m 4
 125 425 100 400 100 375 c 6
 100 350 l 6
 100 325 125 300 150 300 c 4
 175 300 200 325 200 350 c 6
 200 375 l 6
 200 400 175 425 150 425 c 4
350 425 m 4
 325 425 300 400 300 375 c 6
 300 350 l 6
 300 325 325 300 350 300 c 4
 375 300 400 325 400 350 c 6
 400 375 l 6
 400 400 375 425 350 425 c 4
550 425 m 4
 525 425 500 400 500 375 c 6
 500 350 l 6
 500 325 525 300 550 300 c 4
 575 300 600 325 600 350 c 6
 600 375 l 6
 600 400 575 425 550 425 c 4
750 425 m 4
 725 425 700 400 700 375 c 6
 700 350 l 6
 700 325 725 300 750 300 c 4
 775 300 800 325 800 350 c 6
 800 375 l 6
 800 400 775 425 750 425 c 4
950 425 m 4
 925 425 900 400 900 375 c 6
 900 350 l 6
 900 325 925 300 950 300 c 4
 975 300 1000 325 1000 350 c 6
 1000 375 l 6
 1000 400 975 425 950 425 c 4
EndSplineSet
EndChar

StartChar: uniE2B8
Encoding: 58040 58040 512
Width: 1300
Flags: W
HStem: 0 300<600 725 800 900> 300 50<100.008 149.992 200.008 249.992 400.008 449.992> 400 200<800 900>
VStem: 0 100<250.781 299.992> 150 50<250.008 299.992> 250 50<250.008 299.992> 300 100<350 375 500 692.808> 350 50<250.008 299.992> 800 100<500 600> 900 200<300 400>
LayerCount: 2
Fore
SplineSet
350 700 m 0x79
 375 700 400 675 400 650 c 2
 400 350 l 1
 500 350 l 1x7a
 600 300 l 1
 725 300 l 1
 675 500 l 1
 800 500 l 1
 800 600 l 1
 900 600 l 1
 900 500 l 1xba80
 1100 500 l 1
 1100 300 l 1
 1200 300 l 1x7840
 1200 200 l 1
 1100 0 l 1
 300 0 l 2xba40
 250 0 200 50 100 150 c 0
 50 200 0 250 0 300 c 2
 0 350 l 1
 300 350 l 1
 300 375 l 1
 125 550 l 2
 100 575 75 600 100 625 c 0
 125 650 150 650 175 625 c 2
 300 500 l 1
 300 650 l 2x7a40
 300 675 325 700 350 700 c 0x79
775 400 m 1
 800 300 l 1xb880
 900 300 l 1
 900 400 l 1xb840
 775 400 l 1
125 300 m 0x78
 111.202148438 300 100 288.797851562 100 275 c 0
 100 261.202148438 111.202148438 250 125 250 c 0
 138.797851562 250 150 261.202148438 150 275 c 0
 150 288.797851562 138.797851562 300 125 300 c 0x78
225 300 m 0
 211.202148438 300 200 288.797851562 200 275 c 0
 200 261.202148438 211.202148438 250 225 250 c 0
 238.797851562 250 250 261.202148438 250 275 c 0x7c
 250 288.797851562 238.797851562 300 225 300 c 0
325 300 m 0
 311.202148438 300 300 288.797851562 300 275 c 0
 300 261.202148438 311.202148438 250 325 250 c 0
 338.797851562 250 350 261.202148438 350 275 c 0x7d
 350 288.797851562 338.797851562 300 325 300 c 0
425 300 m 0
 411.202148438 300 400 288.797851562 400 275 c 0
 400 261.202148438 411.202148438 250 425 250 c 0
 438.797851562 250 450 261.202148438 450 275 c 0
 450 288.797851562 438.797851562 300 425 300 c 0
EndSplineSet
EndChar

StartChar: uniE2A0
Encoding: 58016 58016 515
Width: 700
Flags: W
HStem: 580 20G<330 370>
LayerCount: 2
Fore
SplineSet
0 250 m 1
 350 600 l 1
 700 250 l 1
 700 200 l 1
 0 200 l 1
 0 250 l 1
EndSplineSet
EndChar

StartChar: uniE2AA
Encoding: 58026 58026 516
Width: 700
Flags: W
HStem: 580 20G<0 700>
LayerCount: 2
Fore
SplineSet
0 550 m 1
 0 600 l 1
 700 600 l 1
 700 550 l 1
 350 200 l 1
 0 550 l 1
EndSplineSet
EndChar

StartChar: uniE2AC
Encoding: 58028 58028 517
Width: 800
Flags: W
HStem: 780 20G<730 800>
LayerCount: 2
Fore
SplineSet
100 450 m 1
 250 300 l 1
 750 800 l 1
 800 800 l 1
 800 650 l 1
 250 100 l 1
 0 350 l 1
 100 450 l 1
EndSplineSet
EndChar

StartChar: uniE2AD
Encoding: 58029 58029 518
Width: 700
Flags: W
HStem: 0 21G<0 170 530 700> 0 21G<0 170 530 700> 780 20G<0 170 530 700>
LayerCount: 2
Fore
SplineSet
0 650 m 1xa0
 0 800 l 1
 150 800 l 1
 350 600 l 1
 550 800 l 1
 700 800 l 1
 700 650 l 1
 450 400 l 1
 700 150 l 1
 700 0 l 1
 550 0 l 1
 350 200 l 1
 150 0 l 1
 0 0 l 1
 0 150 l 1
 250 400 l 1
 0 650 l 1xa0
EndSplineSet
EndChar

StartChar: uniE2AF
Encoding: 58031 58031 519
Width: 400
Flags: W
HStem: 0 21G<0 70> 0 21G<0 70>
LayerCount: 2
Fore
SplineSet
50 700 m 1x80
 400 350 l 1
 50 0 l 1
 0 0 l 1
 0 700 l 1
 50 700 l 1x80
EndSplineSet
EndChar

StartChar: uniE2B9
Encoding: 58041 58041 520
Width: 900
Flags: W
HStem: 300 100<400 525 675 800> 500 100<0 300> 780 20G<551.667 675>
VStem: 525 150<400 600>
LayerCount: 2
Fore
SplineSet
400 300 m 1
 400 400 l 1
 525 400 l 1
 525 600 l 1
 400 600 l 1
 400 650 l 1
 575 800 l 1
 675 800 l 1
 675 400 l 1
 800 400 l 1
 800 300 l 1
 400 300 l 1
0 500 m 1
 0 600 l 1
 300 600 l 1
 300 500 l 1
 0 500 l 1
EndSplineSet
EndChar

StartChar: uniE2BC
Encoding: 58044 58044 521
Width: 500
Flags: W
HStem: 300 300
LayerCount: 2
Fore
SplineSet
0 350 m 1
 250 600 l 1
 500 350 l 1
 500 300 l 1
 0 300 l 1
 0 350 l 1
EndSplineSet
EndChar

StartChar: uniE2BD
Encoding: 58045 58045 522
Width: 500
Flags: W
HStem: 300 300
LayerCount: 2
Fore
SplineSet
0 550 m 1
 0 600 l 1
 500 600 l 1
 500 550 l 1
 250 300 l 1
 0 550 l 1
EndSplineSet
EndChar

StartChar: uni0410
Encoding: 1040 1040 523
Width: 1000
Flags: W
HStem: 0 21G<0 160 740 900> 0 21G<0 160 740 900> 200 100<300 600> 780 20G<365 535>
LayerCount: 2
Fore
SplineSet
0 50 m 1xb0
 375 800 l 1
 525 800 l 1
 900 50 l 1
 900 0 l 1
 750 0 l 1
 650 200 l 1
 250 200 l 1
 150 0 l 1
 0 0 l 1
 0 50 l 1xb0
300 300 m 1
 600 300 l 1
 450 600 l 1
 300 300 l 1
EndSplineSet
EndChar

StartChar: uni0411
Encoding: 1041 1041 524
Width: 700
Flags: W
HStem: 0 100<200 358.13> 400 100<200 358.13> 700 100<200 575>
VStem: 0 200<100 400 500 700> 400 200<142.832 356.989>
LayerCount: 2
Fore
SplineSet
0 800 m 1
 575 800 l 1
 575 700 l 1
 200 700 l 1
 200 500 l 1
 350 500 l 2
 525 500 600 334.779296875 600 275 c 2
 600 225 l 2
 600 125 525 0 350 0 c 2
 200 0 l 1
 0 0 l 1
 0 800 l 1
200 400 m 1
 200 100 l 1
 300 100 l 2
 350 100 400 150 400 225 c 2
 400 275 l 2
 400 350 348.28515625 400 300 400 c 2
 200 400 l 1
EndSplineSet
EndChar

StartChar: uni0412
Encoding: 1042 1042 525
Width: 700
Flags: W
HStem: 0 100<200 358.13> 400 100<200 346.69> 700 100<200 346.59>
VStem: 0 200<100 400 500 700> 375 200<527.099 670.423> 400 200<142.832 356.989>
LayerCount: 2
Fore
SplineSet
0 800 m 1xf4
 200 800 l 1
 350 800 l 2
 525 800 575 700 575 600 c 0xf8
 575 543.763671875 559.186523438 487.52734375 514.22265625 449.076171875 c 1
 573.16796875 403.47265625 600 334.780273438 600 275 c 2
 600 225 l 2
 600 125 525 0 350 0 c 2
 200 0 l 1
 0 0 l 1
 0 800 l 1xf4
200 700 m 1
 200 500 l 1
 275 500 l 2
 325 500 375 525 375 600 c 0
 375 675 323.28515625 700 275 700 c 2
 200 700 l 1
200 400 m 1
 200 100 l 1
 300 100 l 2
 350 100 400 150 400 225 c 2
 400 275 l 2xf4
 400 350 348.28515625 400 300 400 c 2
 200 400 l 1
EndSplineSet
EndChar

StartChar: uni0413
Encoding: 1043 1043 526
Width: 800
Flags: W
HStem: 0 21G<0 200> 0 21G<0 200> 700 100<200 700>
VStem: 0 200<0 700>
LayerCount: 2
Fore
SplineSet
0 800 m 1xb0
 700 800 l 1
 700 700 l 1
 200 700 l 1
 200 0 l 1
 0 0 l 1
 0 800 l 1xb0
EndSplineSet
EndChar

StartChar: uni0415
Encoding: 1045 1045 527
Width: 700
Flags: W
HStem: 0 100<200 600> 400 100<200 500> 700 100<200 600>
VStem: 0 200<100 400 500 700>
LayerCount: 2
Fore
SplineSet
0 800 m 1
 600 800 l 1
 600 700 l 1
 200 700 l 1
 200 500 l 1
 500 500 l 1
 500 400 l 1
 200 400 l 1
 200 100 l 1
 600 100 l 1
 600 0 l 1
 0 0 l 1
 0 800 l 1
EndSplineSet
EndChar

StartChar: uni041A
Encoding: 1050 1050 528
Width: 700
Flags: W
HStem: 0 21G<0 200 492.5 600> 0 21G<0 200 492.5 600> 780 20G<0 200 442.5 600>
VStem: 0 200<0 312.5 537.5 800>
LayerCount: 2
Fore
SplineSet
600 137.5 m 1xb0
 600 0 l 1
 512.5 0 l 1
 200 312.5 l 1
 200 0 l 1
 0 0 l 1
 0 800 l 1
 200 800 l 1
 200 537.5 l 1
 462.5 800 l 1
 600 800 l 1
 600 712.5 l 1
 312.5 425 l 1
 600 137.5 l 1xb0
EndSplineSet
EndChar

StartChar: uni0416
Encoding: 1046 1046 529
Width: 1100
Flags: W
HStem: 0 21G<0 95 400 600 905 1000> 0 21G<0 95 400 600 905 1000> 780 20G<0 168.182 400 600 831.818 1000>
VStem: 400 200<0 325 525 800>
LayerCount: 2
Fore
SplineSet
0 800 m 1xb0
 150 800 l 1
 400 525 l 1
 400 800 l 1
 600 800 l 1
 600 525 l 1
 850 800 l 1
 1000 800 l 1
 1000 725 l 1
 700 425 l 1
 1000 125 l 1
 1000 0 l 1
 925 0 l 1
 600 325 l 1
 600 0 l 1
 400 0 l 1
 400 325 l 1
 75 0 l 1
 0 0 l 1
 0 125 l 1
 300 425 l 1
 0 725 l 1
 0 800 l 1xb0
EndSplineSet
EndChar

StartChar: uni0437
Encoding: 1079 1079 530
Width: 600
Flags: W
HStem: 0 100<0.0367165 271.486> 225 150<100 291.042> 500 100<0.0367165 271.486>
VStem: 300 200<127.479 207.7 392.3 472.521>
CounterMasks: 1 e0
LayerCount: 2
Fore
SplineSet
200 600 m 0
 350 600 498.83984375 549.993164062 500 450 c 0
 500.477539062 408.872070312 442.309570312 348.044921875 373.630859375 300 c 1
 442.309570312 251.955078125 500.477539062 191.127929688 500 150 c 0
 498.83984375 50.0068359375 350 0 200 0 c 0
 50 0 0 25 0 25 c 1
 0 125 l 1
 0 125 50 100 150 100 c 0
 250 100 300 125 300 175 c 0
 300 200 275 225 200 225 c 2
 100 225 l 1
 100 375 l 1
 200 375 l 2
 275 375 300 400 300 425 c 0
 300 475 250 500 150 500 c 0
 50 500 0 475 0 475 c 1
 0 575 l 1
 0 575 50 600 200 600 c 0
EndSplineSet
EndChar

StartChar: uni0417
Encoding: 1047 1047 531
Width: 700
Flags: W
HStem: 0 100<19.4512 329.652> 325 150<100 364.641> 700 100<19.4512 329.652>
VStem: 400 200<159.435 290.194 509.806 640.565>
CounterMasks: 1 e0
LayerCount: 2
Fore
SplineSet
266.666015625 800 m 0
 466.666015625 800 600 708.333007812 600 575 c 0
 600 511.081054688 545.404296875 447.205078125 475.4140625 400 c 1
 545.404296875 352.794921875 600 288.918945312 600 225 c 0
 600 91.6669921875 466.666015625 0 266.666015625 0 c 0
 66.666015625 0 0 33.333984375 0 33.333984375 c 1
 0 133.333984375 l 1
 0 133.333984375 66.6669921875 100 200 100 c 0
 333.333007812 100 400 158.333007812 400 225 c 0
 400 275 366.666015625 325 266.666015625 325 c 2
 100 325 l 1
 100 475 l 1
 266.666015625 475 l 2
 366.666015625 475 400 525 400 575 c 0
 400 641.666992188 333.333007812 700 200 700 c 0
 66.6669921875 700 0 666.666015625 0 666.666015625 c 1
 0 766.666015625 l 1
 0 766.666015625 66.666015625 800 266.666015625 800 c 0
EndSplineSet
EndChar

StartChar: uni041F
Encoding: 1055 1055 532
Width: 800
Flags: W
HStem: 0 21G<0 200 500 700> 0 21G<0 200 500 700> 700 100<200 500>
VStem: 0 200<0 700> 500 200<0 700>
LayerCount: 2
Fore
SplineSet
0 800 m 1xb8
 700 800 l 1
 700 750 l 1
 700 700 l 1
 700 0 l 1
 500 0 l 1
 500 700 l 1
 200 700 l 1
 200 0 l 1
 0 0 l 1
 0 700 l 1
 0 775 l 1
 0 800 l 1xb8
EndSplineSet
EndChar

StartChar: uni0420
Encoding: 1056 1056 533
Width: 700
Flags: W
HStem: 0 21G<0 200> 0 21G<0 200> 200 100<200 324.272> 700 100<200 324.272>
VStem: 0 200<0 200 300 700> 400 200<370.898 629.102>
LayerCount: 2
Fore
SplineSet
0 800 m 1xbc
 200 800 l 1
 300 800 l 2
 475 800 600 650 600 550 c 2
 600 450 l 2
 600 350 475 200 300 200 c 2
 200 200 l 1
 200 0 l 1
 0 0 l 1
 0 800 l 1xbc
250 700 m 2
 200 700 l 1
 200 300 l 1
 250 300 l 2
 300 300 400 350 400 450 c 2
 400 550 l 2
 400 650 300 700 250 700 c 2
EndSplineSet
EndChar

StartChar: uni0418
Encoding: 1048 1048 534
Width: 800
Flags: W
HStem: 0 21G<0 200 500 700> 0 21G<0 200 500 700> 780 20G<0 200 500 700>
VStem: 0 200<0 150 350 800> 500 200<0 450 650 800>
LayerCount: 2
Fore
SplineSet
0 0 m 1xb8
 0 800 l 1
 200 800 l 1
 200 350 l 1
 500 650 l 1
 500 800 l 1
 700 800 l 1
 700 0 l 1
 500 0 l 1
 500 450 l 1
 200 150 l 1
 200 0 l 1
 0 0 l 1xb8
EndSplineSet
EndChar

StartChar: uni041C
Encoding: 1052 1052 535
Width: 1000
Flags: W
HStem: 0 21G<0 200 700 900> 0 21G<0 200 700 900> 780 20G<0 170 730 900>
VStem: 0 200<0 550> 700 200<0 550>
LayerCount: 2
Fore
SplineSet
150 800 m 1xb8
 450 500 l 1
 750 800 l 1
 900 800 l 1
 900 0 l 1
 700 0 l 1
 700 550 l 1
 450 300 l 1
 200 550 l 1
 200 0 l 1
 0 0 l 1
 0 800 l 1
 150 800 l 1xb8
EndSplineSet
EndChar

StartChar: uni041E
Encoding: 1054 1054 536
Width: 900
Flags: W
HStem: 0 100<317.116 482.884> 700 100<317.114 482.886>
VStem: 0 200<248.909 551.091> 600 200<248.909 551.091>
LayerCount: 2
Fore
SplineSet
600 375 m 2
 600 425 l 2
 600 550 525 700 400 700 c 0
 275 700 200 550 200 425 c 2
 200 375 l 2
 200 250 275.006835938 101.276367188 400 100 c 0
 524.993164062 101.276367188 600 250 600 375 c 2
0 375 m 2
 0 425 l 2
 0 625 175 800 400 800 c 0
 625 800 800 625 800 425 c 2
 800 375 l 2
 800 175 625 0 400 0 c 0
 175 0 0 175 0 375 c 2
EndSplineSet
EndChar

StartChar: uni041D
Encoding: 1053 1053 537
Width: 800
Flags: W
HStem: 0 21G<0 200 500 700> 0 21G<0 200 500 700> 400 100<200 500> 780 20G<0 200 500 700>
VStem: 0 200<0 400 500 800> 500 200<0 400 500 800>
LayerCount: 2
Fore
SplineSet
0 800 m 1xbc
 200 800 l 1
 200 500 l 1
 500 500 l 1
 500 800 l 1
 700 800 l 1
 700 0 l 1
 500 0 l 1
 500 400 l 1
 200 400 l 1
 200 0 l 1
 0 0 l 1
 0 800 l 1xbc
EndSplineSet
EndChar

StartChar: uni0419
Encoding: 1049 1049 538
Width: 800
Flags: W
HStem: 0 21G<0 200 500 700> 0 21G<0 200 500 700> 580 20G<0 200 500 700> 625 75<210.4 389.6> 780 20G<100 150 450 500>
VStem: 0 200<0 50 250 600> 100 50<755.532 800> 450 50<755.147 800> 500 200<0 350 550 600>
LayerCount: 2
Fore
SplineSet
0 0 m 1xbc80
 0 600 l 1
 200 600 l 1
 200 250 l 1
 500 550 l 1
 500 600 l 1
 700 600 l 1
 700 0 l 1
 500 0 l 1
 500 350 l 1
 200 50 l 1
 200 0 l 1
 0 0 l 1xbc80
EndSplineSet
Refer: 410 728 S 1 0 0 1 100 0 2
EndChar

StartChar: uni041B
Encoding: 1051 1051 539
Width: 800
Flags: W
HStem: 0 100<0 50.296> 700 100<375 500>
VStem: 500 200<0 700>
LayerCount: 2
Fore
SplineSet
225 800 m 1
 700 800 l 1
 700 700 l 1
 700 0 l 1
 500 0 l 1
 500 700 l 1
 375 700 l 1
 250 200 l 2
 225 100 200 0 50 0 c 2
 0 0 l 1
 0 100 l 1
 50 100 75.205078125 150.8203125 100 250 c 2
 225 750 l 1
 225 800 l 1
EndSplineSet
EndChar

StartChar: uni0414
Encoding: 1044 1044 540
Width: 900
Flags: W
HStem: 0 100<0 100 218.547 700> 700 100<375 500>
VStem: 0 100<-125 0> 500 200<0 700> 700 100<-125 0>
LayerCount: 2
Fore
SplineSet
225 800 m 1xf0
 700 800 l 1xe8
 700 700 l 1
 700 0 l 1
 500 0 l 1
 500 700 l 1
 375 700 l 1
 250 200 l 2
 225 100 200 0 50 0 c 2
 0 0 l 1
 0 100 l 1
 50 100 75.205078125 150.8203125 100 250 c 2
 225 750 l 1
 225 800 l 1xf0
800 -125 m 1
 700 -125 l 1xe8
 700 0 l 1xf0
 100 0 l 1
 100 -125 l 1
 0 -125 l 1
 0 100 l 1
 800 100 l 1
 800 -125 l 1
225 800 m 1
 700 800 l 1xe8
 700 700 l 1
 700 100 l 1xf0
 800 100 l 1
 800 -125 l 1
 700 -125 l 1xe8
 700 0 l 1
 500 0 l 1xf0
 100 0 l 1
 100 -125 l 1
 0 -125 l 1
 0 0 l 1
 0 100 l 1
 50 100 75.205078125 150.8203125 100 250 c 2
 225 750 l 1
 225 800 l 1
375 700 m 1
 250 200 l 2
 241.30859375 165.232421875 232.4921875 130.564453125 218.546875 100 c 1
 500 100 l 1
 500 700 l 1xf0
 375 700 l 1
EndSplineSet
EndChar

StartChar: uni0434
Encoding: 1076 1076 541
Width: 800
Flags: W
HStem: -100 200<0 46.7629 600 700> 0 100<220.332 400> 500 100<325 400>
VStem: 0 100<-100 0> 400 200<100 500> 600 100<-100 0>
LayerCount: 2
Fore
SplineSet
175 600 m 1xb8
 600 600 l 1
 600 525 l 1xb4
 600 100 l 1xb8
 700 100 l 1
 700 -100 l 1
 600 -100 l 1xb4
 600 0 l 1x74
 400 0 l 1
 100 0 l 1x78
 100 -100 l 1
 0 -100 l 1xb8
 0 0 l 1x78
 0 100 l 1
 37.5 100 56.404296875 125.615234375 75 200 c 2
 175 600 l 1xb8
325 500 m 1
 250 200 l 2
 240.4296875 161.716796875 231.423828125 128.184570312 220.33203125 100 c 1
 400 100 l 1
 400 500 l 1x78
 325 500 l 1
EndSplineSet
EndChar

StartChar: uni0421
Encoding: 1057 1057 542
Width: 800
Flags: W
HStem: 0 100<318.213 492.854> 700 100<317.114 493.971>
VStem: 0 200<248.909 551.091> 600 100<204.678 275 525 595.026>
LayerCount: 2
Fore
SplineSet
700 275 m 1
 699.528320312 96.9580078125 l 1
 633.868164062 42.1806640625 535.01171875 0 400 0 c 0
 175 0 0 175 0 375 c 2
 0 425 l 2
 0 625 175 800 400 800 c 0
 535.65625 800 634.501953125 757.01171875 699.99609375 701.642578125 c 1
 700 525 l 1
 600 525 l 1
 600 575 525 700 400 700 c 0
 275 700 200 550 200 425 c 2
 200 375 l 2
 200 250 275.006835938 101.276367188 400 100 c 0
 524.556640625 98.7275390625 600 225 600 275 c 1
 700 275 l 1
EndSplineSet
EndChar

StartChar: uni0422
Encoding: 1058 1058 543
Width: 900
Flags: W
HStem: 0 21G<300 500> 0 21G<300 500> 700 100<0 300 500 800>
VStem: 300 200<0 700>
LayerCount: 2
Fore
SplineSet
0 800 m 1xb0
 800 800 l 1
 800 700 l 1
 500 700 l 1
 500 0 l 1
 300 0 l 1
 300 700 l 1
 0 700 l 1
 0 800 l 1xb0
EndSplineSet
EndChar

StartChar: uni0423
Encoding: 1059 1059 544
Width: 700
Flags: W
HStem: 0 100<0 104.565> 780 20G<0 160 440 600>
LayerCount: 2
Fore
SplineSet
0 0 m 1
 0 100 l 1
 50 100 100 100 125 150 c 0
 150 200 200 300 200 300 c 1
 0 700 l 1
 0 800 l 1
 150 800 l 1
 300 500 l 1
 450 800 l 1
 600 800 l 1
 600 700 l 1
 600 700 325 150 300 100 c 0
 250 0 200 0 0 0 c 1
EndSplineSet
EndChar

StartChar: uni0424
Encoding: 1060 1060 545
Width: 1100
Flags: W
HStem: 0 21G<400 600> 0 21G<400 600> 100 100<279.535 400 600 720.465> 600 100<279.535 400 600 718.213> 780 20G<400 600>
VStem: 0 200<281.198 518.802> 400 200<0 100 200 600 700 800> 800 200<281.198 518.802>
CounterMasks: 1 07
LayerCount: 2
Fore
SplineSet
400 800 m 1xbf
 600 800 l 1
 600 700 l 1
 825 700 1000 575 1000 425 c 2
 1000 375 l 2
 1000 225 825 100 600 100 c 1
 600 0 l 1
 400 0 l 1
 400 100 l 1
 175 100 0 225 0 375 c 2
 0 425 l 2
 0 575 175 700 400 700 c 1
 400 800 l 1xbf
400 600 m 1
 275 600 200 550 200 425 c 2
 200 375 l 2
 200 250 275.006835938 201.1171875 400 200 c 1
 400 600 l 1
600 600 m 1
 600 200 l 1
 724.993164062 201.1171875 800 250 800 375 c 2
 800 425 l 2
 800 542.0078125 725 600 600 600 c 1
EndSplineSet
EndChar

StartChar: uni0425
Encoding: 1061 1061 546
Width: 1000
Flags: W
HStem: 0 21G<0 170 730 900> 0 21G<0 170 730 900> 780 20G<0 170 730 900>
LayerCount: 2
Fore
SplineSet
-0 75 m 1xa0
 325 400 l 1
 -0 725 l 1
 -0 800 l 1
 150 800 l 1
 450 500 l 1
 750 800 l 1
 900 800 l 1
 900 725 l 1
 575 400 l 1
 900 75 l 1
 900 0 l 1
 750 0 l 1
 450 300 l 1
 150 0 l 1
 -0 0 l 1
 -0 75 l 1xa0
EndSplineSet
EndChar

StartChar: uni0426
Encoding: 1062 1062 547
Width: 900
Flags: W
HStem: 0 100<200 500> 780 20G<0 200 500 700>
VStem: 0 200<100 800> 500 200<100 800> 700 100<-125 0>
LayerCount: 2
Fore
SplineSet
0 800 m 1xe8
 200 800 l 1
 200 100 l 1
 500 100 l 1
 500 800 l 1
 700 800 l 1
 700 100 l 1xf0
 800 100 l 1
 800 -125 l 1
 700 -125 l 1
 700 0 l 1
 0 0 l 1
 0 800 l 1xe8
EndSplineSet
EndChar

StartChar: uni0428
Encoding: 1064 1064 548
Width: 1300
Flags: W
HStem: 0 100<200 500 700 1000> 780 20G<0 200 500 700 1000 1200>
VStem: 0 200<100 800> 500 200<100 800> 1000 200<100 800>
CounterMasks: 1 38
LayerCount: 2
Fore
SplineSet
1200 800 m 1
 1200 0 l 1
 0 0 l 1
 0 800 l 1
 200 800 l 1
 200 100 l 1
 500 100 l 1
 500 800 l 1
 700 800 l 1
 700 100 l 1
 1000 100 l 1
 1000 800 l 1
 1200 800 l 1
EndSplineSet
EndChar

StartChar: uni0429
Encoding: 1065 1065 549
Width: 1400
Flags: W
HStem: 0 100<200 500 700 1000> 780 20G<0 200 500 700 1000 1200>
VStem: 0 200<100 800> 500 200<100 800> 1000 200<100 800> 1200 100<-125 0>
LayerCount: 2
Fore
SplineSet
700 100 m 1xf4
 1000 100 l 1
 1000 800 l 1
 1200 800 l 1
 1200 100 l 1xf8
 1300 100 l 1
 1300 -125 l 1
 1200 -125 l 1
 1200 0 l 1
 0 0 l 1
 0 800 l 1
 200 800 l 1
 200 100 l 1
 500 100 l 1
 500 800 l 1
 700 800 l 1
 700 100 l 1xf4
EndSplineSet
EndChar

StartChar: uni042A
Encoding: 1066 1066 550
Width: 900
Flags: W
HStem: 0 100<400 558.13> 400 100<400 558.13> 700 100<0 200>
VStem: 200 200<100 400 500 700> 600 200<142.832 356.989>
LayerCount: 2
Fore
SplineSet
200 700 m 1
 0 700 l 1
 0 800 l 1
 400 800 l 1
 400 500 l 1
 550 500 l 2
 725 500 800 334.779296875 800 275 c 2
 800 225 l 2
 800 125 725 0 550 0 c 2
 400 0 l 1
 200 0 l 1
 200 700 l 1
400 400 m 1
 400 100 l 1
 500 100 l 2
 550 100 600 150 600 225 c 2
 600 275 l 2
 600 350 548.28515625 400 500 400 c 2
 400 400 l 1
EndSplineSet
EndChar

StartChar: uni042C
Encoding: 1068 1068 551
Width: 700
Flags: W
HStem: 0 100<200 358.13> 400 100<200 358.13> 780 20G<0 200>
VStem: 0 200<100 400 500 800> 400 200<142.832 356.989>
LayerCount: 2
Fore
SplineSet
0 800 m 1
 200 800 l 1
 200 500 l 1
 350 500 l 2
 525 500 600 334.779296875 600 275 c 2
 600 225 l 2
 600 125 525 0 350 0 c 2
 200 0 l 1
 0 0 l 1
 0 800 l 1
200 400 m 1
 200 100 l 1
 300 100 l 2
 350 100 400 150 400 225 c 2
 400 275 l 2
 400 350 348.28515625 400 300 400 c 2
 200 400 l 1
EndSplineSet
EndChar

StartChar: uni0406
Encoding: 1030 1030 552
Width: 300
Flags: W
HStem: 0 21G<0 200> 0 21G<0 200> 780 20G<0 200>
VStem: 0 200<0 800>
LayerCount: 2
Fore
SplineSet
0 800 m 1xb0
 200 800 l 1
 200 0 l 1
 0 0 l 1
 0 800 l 1xb0
EndSplineSet
EndChar

StartChar: uni042E
Encoding: 1070 1070 555
Width: 1200
HStem: 0 100<615.934 782.884> 325 150<200 308.355> 700 100<615.933 782.886>
VStem: 0 200<0 325 475 800> 303.768 196.232<244.637 325 475 555.66> 900 200<248.909 551.091>
CounterMasks: 1 e0
LayerCount: 2
Fore
SplineSet
0 800 m 1
 200 800 l 1
 200 475 l 1
 303.767578125 475 l 1
 330.002929688 653.274414062 493.993164062 800 700 800 c 0
 925 800 1100 625 1100 425 c 2
 1100 375 l 2
 1100 175 925 0 700 0 c 0
 493.993164062 0 330.002929688 146.725585938 303.767578125 325 c 1
 200 325 l 1
 200 0 l 1
 0 0 l 1
 0 800 l 1
700 700 m 0
 575 700 500 550 500 425 c 2
 500 375 l 2
 500 250 575.006835938 101.276367188 700 100 c 0
 824.993164062 101.276367188 900 250 900 375 c 2
 900 425 l 2
 900 550 825 700 700 700 c 0
EndSplineSet
EndChar

StartChar: uni042F
Encoding: 1071 1071 556
Width: 700
Flags: W
HStem: 0 21G<0 145 400 600> 0 21G<0 145 400 600> 200 100<325 400> 700 100<275.728 400>
VStem: 0 200<371.548 629.102> 400 200<0 200 300 700>
LayerCount: 2
Fore
SplineSet
600 800 m 1xbc
 600 0 l 1
 400 0 l 1
 400 200 l 1
 325 200 l 1
 125 0 l 1
 0 0 l 1
 0 75 l 1
 159.453125 234.453125 l 1
 61.8828125 284.670898438 0 379.668945312 0 450 c 2
 0 550 l 2
 0 650 125 800 300 800 c 2
 400 800 l 1
 600 800 l 1xbc
400 700 m 1
 350 700 l 2
 300 700 200 650 200 550 c 2
 200 450 l 2
 200 350 300 300 350 300 c 2
 400 300 l 1
 400 700 l 1
EndSplineSet
EndChar

StartChar: uni042D
Encoding: 1069 1069 559
Width: 800
Flags: W
HStem: 0 100<207.146 381.787> 400 100<200 491.459> 700 100<206.029 383.064>
VStem: 0 100<204.678 275 525 595.026> 500 200<248.909 400>
LayerCount: 2
Fore
SplineSet
300 800 m 0
 525 800 700 625 700 425 c 2
 700 375 l 2
 700 175 525 0 300 0 c 0
 164.98828125 0 66.1328125 42.181640625 0.47265625 96.958984375 c 1
 0 275 l 1
 100 275 l 1
 100 225 175.443359375 98.7275390625 300 100 c 0
 424.993164062 101.276367188 500 250 500 375 c 2
 500 400 l 1
 200 400 l 1
 200 500 l 1
 491.458984375 500 l 1
 468.603515625 602.991210938 400.514648438 700 300 700 c 0
 175 700 100 575 100 525 c 1
 0 525 l 1
 0.00390625 701.642578125 l 1
 65.498046875 757.01171875 164.34375 800 300 800 c 0
EndSplineSet
EndChar

StartChar: uni0404
Encoding: 1028 1028 560
Width: 800
Flags: W
HStem: 0 100<318.213 492.854> 400 100<208.541 500> 700 100<316.936 493.971>
VStem: 0 200<248.909 400> 600 100<204.678 275 525 595.026>
LayerCount: 2
Fore
SplineSet
400 800 m 0
 535.65625 800 634.501953125 757.01171875 699.99609375 701.642578125 c 1
 700 525 l 1
 600 525 l 1
 600 575 525 700 400 700 c 0
 299.485351562 700 231.396484375 602.991210938 208.541015625 500 c 1
 500 500 l 1
 500 400 l 1
 200 400 l 1
 200 375 l 2
 200 250 275.006835938 101.276367188 400 100 c 0
 524.556640625 98.7275390625 600 225 600 275 c 1
 700 275 l 1
 699.52734375 96.958984375 l 1
 633.8671875 42.181640625 535.01171875 0 400 0 c 0
 175 0 0 175 0 375 c 2
 0 425 l 2
 0 625 175 800 400 800 c 0
EndSplineSet
EndChar

StartChar: uni0427
Encoding: 1063 1063 561
Width: 700
Flags: W
HStem: 0 21G<400 600> 0 21G<400 600> 200 100.053<241.87 400> 780 20.0527G<0 200 400 600>
VStem: 0 200<343.064 800.053> 400 200<0 200 300 800>
LayerCount: 2
Fore
SplineSet
600 800 m 1xbc
 600 0 l 1
 400 0 l 1
 400 200 l 1
 300 200 l 1
 250 200.052734375 l 2
 75 200.237304688 0 325.052734375 0 425.052734375 c 2
 0 800.052734375 l 1
 200 800.052734375 l 1
 200 425.052734375 l 2
 200 350.052734375 251.71484375 300.052734375 300 300.052734375 c 2
 400 300 l 1
 400 800 l 1
 600 800 l 1xbc
EndSplineSet
EndChar

StartChar: uni0405
Encoding: 1029 1029 562
Width: 700
Flags: W
HStem: 0 100<200.544 367.742> 700 100<229.302 394.69>
VStem: 0 200<525.574 671.363> 0 75<205.113 275> 400 200<129.223 274.426> 525 75<525 594.531>
LayerCount: 2
Fore
SplineSet
300 800 m 0xe8
 405.255859375 800 517.275390625 743.352539062 600 675 c 1
 600 525 l 1
 525 525 l 1
 525 625 375 700 300 700 c 0
 224.571289062 700 200 650 200 600 c 0xe4
 200 400 600 500 600 200 c 0
 600 50 425 0 300 0 c 0
 194.655273438 0 82.68359375 55.6943359375 0 125 c 1
 0 275 l 1
 75 275 l 1xd8
 75 175 225.04296875 97.4697265625 300 100 c 0
 375.385742188 102.543945312 400 150 400 200 c 0
 400 400 0 300 0 600 c 0
 0 750.385742188 175 800 300 800 c 0xe8
EndSplineSet
EndChar

StartChar: uni0408
Encoding: 1032 1032 563
Width: 600
Flags: W
HStem: 0 100<215.218 284.782> 700 100<200 300>
VStem: 300 200<113.081 700>
LayerCount: 2
Fore
SplineSet
200 800 m 1
 500 800 l 1
 500 200 l 2
 500 100 444.024414062 -2.5439453125 250 0 c 0
 55.9755859375 2.5439453125 -0 100 -0 200 c 1
 200 200 l 1
 200 125 225 100 250 100 c 0
 275 100 300 125 300 200 c 2
 300 700 l 1
 200 700 l 1
 200 800 l 1
EndSplineSet
EndChar

StartChar: uni0403
Encoding: 1027 1027 564
Width: 800
Flags: W
HStem: 0 21G<0 200> 0 21G<0 200> 500 100<200 700> 625 175
VStem: 0 200<0 500> 300 200
LayerCount: 2
Fore
SplineSet
0 600 m 1xbc
 700 600 l 1
 700 500 l 1
 200 500 l 1
 200 0 l 1
 0 0 l 1
 0 600 l 1xbc
EndSplineSet
Refer: 129 180 S 1 0 0 1 300 0 2
EndChar

StartChar: uni0402
Encoding: 1026 1026 565
Width: 1000
Flags: W
HStem: 0 100<575.018 692.946> 500 100.033<500 658.13> 700 100<0 300 500 800>
VStem: 300 200<0 500 600.033 700> 700 200<105.096 456.989>
LayerCount: 2
Fore
SplineSet
0 800 m 1
 800 800 l 1
 800 700 l 1
 500 700 l 1
 500 600.033203125 l 1
 600 600.052734375 l 1
 650 600 l 2
 825 599.815429688 900 475 900 375 c 2
 900 200 l 2
 900 100.000976562 849.999023438 0 675 0 c 0
 600 0 575 25 575 25 c 1
 575 125 l 1
 575 125 600 100 650 100 c 0
 700 100 700 125 700 200 c 2
 700 375 l 2
 700 450 648.284179688 500 600 500 c 2
 500 500 l 1
 500 0 l 1
 300 0 l 1
 300 700 l 1
 0 700 l 1
 0 800 l 1
EndSplineSet
EndChar

StartChar: uni040D
Encoding: 1037 1037 566
Width: 800
Flags: W
HStem: 0 21G<0 200 500 700> 0 21G<0 200 500 700> 580 20G<0 200 500 700> 625 175
VStem: 0 200<0 50 250 600> 200 200 500 200<0 350 550 600>
LayerCount: 2
Fore
SplineSet
0 0 m 1xba
 0 600 l 1
 200 600 l 1
 200 250 l 1
 500 550 l 1
 500 600 l 1
 700 600 l 1
 700 0 l 1
 500 0 l 1
 500 350 l 1
 200 50 l 1
 200 0 l 1
 0 0 l 1xba
EndSplineSet
Refer: 30 96 S 1 0 0 1 200 0 2
EndChar

